<?xml version="1.0" encoding="UTF-8"?>
<svg xmlns="http://www.w3.org/2000/svg" xmlns:xlink="http://www.w3.org/1999/xlink" width="800pt" height="300pt" viewBox="0 0 800 300" version="1.1">
<defs>
<clipPath id="clip1">
  <path d="M 285 263 L 360 263 L 360 300 L 285 300 Z M 285 263 "/>
</clipPath>
<clipPath id="clip2">
  <path d="M 375 263 L 450 263 L 450 300 L 375 300 Z M 375 263 "/>
</clipPath>
<clipPath id="clip3">
  <path d="M 21.632812 67 L 800 67 L 800 234.601562 L 21.632812 234.601562 Z M 21.632812 67 "/>
</clipPath>
<clipPath id="clip4">
  <path d="M 20.632812 43 L 800 43 L 800 235.601562 L 20.632812 235.601562 Z M 20.632812 43 "/>
</clipPath>
<clipPath id="clip5">
  <path d="M 21.632812 44 L 800 44 L 800 234.601562 L 21.632812 234.601562 Z M 21.632812 44 "/>
</clipPath>
<clipPath id="clip6">
  <path d="M 20.632812 43 L 800 43 L 800 144 L 20.632812 144 Z M 20.632812 43 "/>
</clipPath>
</defs>
<g id="surface2377621">
<rect x="0" y="0" width="800" height="300" style="fill:rgb(100%,100%,100%);fill-opacity:1;stroke:none;"/>
<path style="fill:none;stroke-width:1;stroke-linecap:butt;stroke-linejoin:miter;stroke:rgb(0%,0%,0%);stroke-opacity:0.0980392;stroke-miterlimit:10;" d="M 22 234.5 L 800 234.5 "/>
<path style="fill:none;stroke-width:1;stroke-linecap:butt;stroke-linejoin:miter;stroke:rgb(0%,0%,0%);stroke-opacity:0.0980392;stroke-miterlimit:10;" d="M 13.632812 234.5 L 21 234.5 "/>
<path style="fill:none;stroke-width:1;stroke-linecap:butt;stroke-linejoin:miter;stroke:rgb(0%,0%,0%);stroke-opacity:0.0980392;stroke-miterlimit:10;" d="M 22 186.5 L 800 186.5 "/>
<path style="fill:none;stroke-width:1;stroke-linecap:butt;stroke-linejoin:miter;stroke:rgb(0%,0%,0%);stroke-opacity:0.0980392;stroke-miterlimit:10;" d="M 13.632812 186.5 L 21 186.5 "/>
<path style="fill:none;stroke-width:1;stroke-linecap:butt;stroke-linejoin:miter;stroke:rgb(0%,0%,0%);stroke-opacity:0.0980392;stroke-miterlimit:10;" d="M 22 139.5 L 800 139.5 "/>
<path style="fill:none;stroke-width:1;stroke-linecap:butt;stroke-linejoin:miter;stroke:rgb(0%,0%,0%);stroke-opacity:0.0980392;stroke-miterlimit:10;" d="M 13.632812 139.5 L 21 139.5 "/>
<path style="fill:none;stroke-width:1;stroke-linecap:butt;stroke-linejoin:miter;stroke:rgb(0%,0%,0%);stroke-opacity:0.0980392;stroke-miterlimit:10;" d="M 22 91.5 L 800 91.5 "/>
<path style="fill:none;stroke-width:1;stroke-linecap:butt;stroke-linejoin:miter;stroke:rgb(0%,0%,0%);stroke-opacity:0.0980392;stroke-miterlimit:10;" d="M 13.632812 91.5 L 21 91.5 "/>
<path style="fill:none;stroke-width:1;stroke-linecap:butt;stroke-linejoin:miter;stroke:rgb(0%,0%,0%);stroke-opacity:0.0980392;stroke-miterlimit:10;" d="M 22 44.5 L 800 44.5 "/>
<path style="fill:none;stroke-width:1;stroke-linecap:butt;stroke-linejoin:miter;stroke:rgb(0%,0%,0%);stroke-opacity:0.0980392;stroke-miterlimit:10;" d="M 13.632812 44.5 L 21 44.5 "/>
<path style=" stroke:none;fill-rule:nonzero;fill:rgb(9.019608%,58.823529%,95.294118%);fill-opacity:0.6;" d="M 331.121094 284 C 331.121094 288.6875 327.324219 292.484375 322.636719 292.484375 C 317.953125 292.484375 314.152344 288.6875 314.152344 284 C 314.152344 279.3125 317.953125 275.515625 322.636719 275.515625 C 327.324219 275.515625 331.121094 279.3125 331.121094 284 Z M 331.121094 284 "/>
<g clip-path="url(#clip1)" clip-rule="nonzero">
<path style="fill:none;stroke-width:2;stroke-linecap:butt;stroke-linejoin:miter;stroke:rgb(9.019608%,58.823529%,95.294118%);stroke-opacity:1;stroke-miterlimit:10;" d="M 331.121094 284 C 331.121094 288.6875 327.324219 292.484375 322.636719 292.484375 C 317.953125 292.484375 314.152344 288.6875 314.152344 284 C 314.152344 279.3125 317.953125 275.515625 322.636719 275.515625 C 327.324219 275.515625 331.121094 279.3125 331.121094 284 Z M 331.121094 284 "/>
</g>
<path style=" stroke:none;fill-rule:nonzero;fill:rgb(0%,0%,0%);fill-opacity:1;" d="M 337.4375 279.40625 L 343.0625 279.40625 L 343.0625 279.90625 L 339.890625 288.15625 L 338.65625 288.15625 L 341.640625 280.40625 L 337.4375 280.40625 Z M 354.320312 279.6875 L 354.320312 280.84375 C 353.871094 280.636719 353.445312 280.480469 353.039062 280.375 C 352.640625 280.261719 352.261719 280.203125 351.898438 280.203125 C 351.25 280.203125 350.75 280.328125 350.398438 280.578125 C 350.054688 280.828125 349.882812 281.1875 349.882812 281.65625 C 349.882812 282.042969 349.996094 282.335938 350.226562 282.53125 C 350.453125 282.730469 350.898438 282.886719 351.554688 283 L 352.257812 283.15625 C 353.140625 283.324219 353.792969 283.621094 354.210938 284.046875 C 354.636719 284.464844 354.851562 285.027344 354.851562 285.734375 C 354.851562 286.589844 354.5625 287.234375 353.992188 287.671875 C 353.429688 288.109375 352.59375 288.328125 351.492188 288.328125 C 351.085938 288.328125 350.648438 288.28125 350.179688 288.1875 C 349.710938 288.09375 349.226562 287.953125 348.726562 287.765625 L 348.726562 286.546875 C 349.203125 286.820312 349.671875 287.023438 350.132812 287.15625 C 350.601562 287.292969 351.054688 287.359375 351.492188 287.359375 C 352.167969 287.359375 352.6875 287.230469 353.054688 286.96875 C 353.429688 286.699219 353.617188 286.320312 353.617188 285.828125 C 353.617188 285.402344 353.480469 285.070312 353.210938 284.828125 C 352.949219 284.578125 352.515625 284.398438 351.914062 284.28125 L 351.195312 284.140625 C 350.308594 283.964844 349.667969 283.6875 349.273438 283.3125 C 348.886719 282.9375 348.695312 282.417969 348.695312 281.75 C 348.695312 280.96875 348.964844 280.359375 349.507812 279.921875 C 350.046875 279.476562 350.796875 279.25 351.757812 279.25 C 352.171875 279.25 352.589844 279.289062 353.007812 279.359375 C 353.433594 279.433594 353.871094 279.542969 354.320312 279.6875 Z M 362.265625 284.609375 L 362.265625 285.125 L 357.296875 285.125 C 357.347656 285.875 357.570312 286.445312 357.96875 286.828125 C 358.375 287.214844 358.929688 287.40625 359.640625 287.40625 C 360.054688 287.40625 360.457031 287.359375 360.84375 287.265625 C 361.238281 287.164062 361.628906 287.007812 362.015625 286.796875 L 362.015625 287.828125 C 361.617188 287.984375 361.21875 288.105469 360.8125 288.1875 C 360.40625 288.28125 359.992188 288.328125 359.578125 288.328125 C 358.535156 288.328125 357.707031 288.027344 357.09375 287.421875 C 356.476562 286.808594 356.171875 285.980469 356.171875 284.9375 C 356.171875 283.867188 356.460938 283.015625 357.046875 282.390625 C 357.628906 281.757812 358.410156 281.4375 359.390625 281.4375 C 360.273438 281.4375 360.972656 281.726562 361.484375 282.296875 C 362.003906 282.859375 362.265625 283.632812 362.265625 284.609375 Z M 361.1875 284.28125 C 361.175781 283.699219 361.007812 283.230469 360.6875 282.875 C 360.363281 282.523438 359.9375 282.34375 359.40625 282.34375 C 358.800781 282.34375 358.316406 282.515625 357.953125 282.859375 C 357.597656 283.203125 357.394531 283.683594 357.34375 284.296875 Z M 367.835938 282.59375 C 367.710938 282.53125 367.574219 282.484375 367.429688 282.453125 C 367.292969 282.414062 367.136719 282.390625 366.960938 282.390625 C 366.355469 282.390625 365.886719 282.589844 365.554688 282.984375 C 365.230469 283.382812 365.070312 283.953125 365.070312 284.703125 L 365.070312 288.15625 L 363.992188 288.15625 L 363.992188 281.59375 L 365.070312 281.59375 L 365.070312 282.609375 C 365.296875 282.214844 365.59375 281.921875 365.960938 281.734375 C 366.324219 281.539062 366.765625 281.4375 367.289062 281.4375 C 367.359375 281.4375 367.4375 281.445312 367.523438 281.453125 C 367.617188 281.464844 367.714844 281.480469 367.820312 281.5 Z M 368.195312 281.59375 L 369.335938 281.59375 L 371.382812 287.09375 L 373.445312 281.59375 L 374.585938 281.59375 L 372.117188 288.15625 L 370.648438 288.15625 Z M 381.6875 284.609375 L 381.6875 285.125 L 376.71875 285.125 C 376.769531 285.875 376.992188 286.445312 377.390625 286.828125 C 377.796875 287.214844 378.351562 287.40625 379.0625 287.40625 C 379.476562 287.40625 379.878906 287.359375 380.265625 287.265625 C 380.660156 287.164062 381.050781 287.007812 381.4375 286.796875 L 381.4375 287.828125 C 381.039062 287.984375 380.640625 288.105469 380.234375 288.1875 C 379.828125 288.28125 379.414062 288.328125 379 288.328125 C 377.957031 288.328125 377.128906 288.027344 376.515625 287.421875 C 375.898438 286.808594 375.59375 285.980469 375.59375 284.9375 C 375.59375 283.867188 375.882812 283.015625 376.46875 282.390625 C 377.050781 281.757812 377.832031 281.4375 378.8125 281.4375 C 379.695312 281.4375 380.394531 281.726562 380.90625 282.296875 C 381.425781 282.859375 381.6875 283.632812 381.6875 284.609375 Z M 380.609375 284.28125 C 380.597656 283.699219 380.429688 283.230469 380.109375 282.875 C 379.785156 282.523438 379.359375 282.34375 378.828125 282.34375 C 378.222656 282.34375 377.738281 282.515625 377.375 282.859375 C 377.019531 283.203125 376.816406 283.683594 376.765625 284.296875 Z M 387.257812 282.59375 C 387.132812 282.53125 386.996094 282.484375 386.851562 282.453125 C 386.714844 282.414062 386.558594 282.390625 386.382812 282.390625 C 385.777344 282.390625 385.308594 282.589844 384.976562 282.984375 C 384.652344 283.382812 384.492188 283.953125 384.492188 284.703125 L 384.492188 288.15625 L 383.414062 288.15625 L 383.414062 281.59375 L 384.492188 281.59375 L 384.492188 282.609375 C 384.71875 282.214844 385.015625 281.921875 385.382812 281.734375 C 385.746094 281.539062 386.1875 281.4375 386.710938 281.4375 C 386.78125 281.4375 386.859375 281.445312 386.945312 281.453125 C 387.039062 281.464844 387.136719 281.480469 387.242188 281.5 Z M 392.5625 281.78125 L 392.5625 282.8125 C 392.257812 282.65625 391.941406 282.542969 391.609375 282.46875 C 391.285156 282.386719 390.945312 282.34375 390.59375 282.34375 C 390.0625 282.34375 389.660156 282.429688 389.390625 282.59375 C 389.117188 282.75 388.984375 282.996094 388.984375 283.328125 C 388.984375 283.578125 389.078125 283.777344 389.265625 283.921875 C 389.460938 284.058594 389.851562 284.1875 390.4375 284.3125 L 390.796875 284.40625 C 391.566406 284.5625 392.113281 284.792969 392.4375 285.09375 C 392.757812 285.398438 392.921875 285.8125 392.921875 286.34375 C 392.921875 286.960938 392.675781 287.445312 392.1875 287.796875 C 391.707031 288.152344 391.046875 288.328125 390.203125 288.328125 C 389.847656 288.328125 389.476562 288.289062 389.09375 288.21875 C 388.71875 288.15625 388.320312 288.058594 387.90625 287.921875 L 387.90625 286.796875 C 388.300781 287.007812 388.691406 287.164062 389.078125 287.265625 C 389.460938 287.371094 389.847656 287.421875 390.234375 287.421875 C 390.734375 287.421875 391.117188 287.339844 391.390625 287.171875 C 391.671875 286.996094 391.8125 286.746094 391.8125 286.421875 C 391.8125 286.132812 391.710938 285.90625 391.515625 285.75 C 391.316406 285.59375 390.882812 285.445312 390.21875 285.296875 L 389.84375 285.21875 C 389.175781 285.074219 388.691406 284.855469 388.390625 284.5625 C 388.097656 284.273438 387.953125 283.875 387.953125 283.375 C 387.953125 282.75 388.171875 282.273438 388.609375 281.9375 C 389.046875 281.605469 389.664062 281.4375 390.46875 281.4375 C 390.863281 281.4375 391.238281 281.46875 391.59375 281.53125 C 391.945312 281.585938 392.269531 281.667969 392.5625 281.78125 Z M 332.636719 277.015625 "/>
<path style=" stroke:none;fill-rule:nonzero;fill:rgb(96.862745%,44.705882%,40.784314%);fill-opacity:1;" d="M 420.988281 284 C 420.988281 288.6875 417.191406 292.484375 412.503906 292.484375 C 407.820312 292.484375 404.019531 288.6875 404.019531 284 C 404.019531 279.3125 407.820312 275.515625 412.503906 275.515625 C 417.191406 275.515625 420.988281 279.3125 420.988281 284 Z M 420.988281 284 "/>
<g clip-path="url(#clip2)" clip-rule="nonzero">
<path style="fill:none;stroke-width:2;stroke-linecap:butt;stroke-linejoin:miter;stroke:rgb(100%,4.705882%,0%);stroke-opacity:0.247059;stroke-miterlimit:10;" d="M 420.988281 284 C 420.988281 288.6875 417.191406 292.484375 412.503906 292.484375 C 407.820312 292.484375 404.019531 288.6875 404.019531 284 C 404.019531 279.3125 407.820312 275.515625 412.503906 275.515625 C 417.191406 275.515625 420.988281 279.3125 420.988281 284 Z M 420.988281 284 "/>
</g>
<path style=" stroke:none;fill-rule:nonzero;fill:rgb(0%,0%,0%);fill-opacity:1;" d="M 430.132812 280.1875 C 429.527344 280.1875 429.070312 280.492188 428.757812 281.09375 C 428.453125 281.6875 428.304688 282.589844 428.304688 283.796875 C 428.304688 284.996094 428.453125 285.898438 428.757812 286.5 C 429.070312 287.09375 429.527344 287.390625 430.132812 287.390625 C 430.746094 287.390625 431.203125 287.09375 431.507812 286.5 C 431.820312 285.898438 431.976562 284.996094 431.976562 283.796875 C 431.976562 282.589844 431.820312 281.6875 431.507812 281.09375 C 431.203125 280.492188 430.746094 280.1875 430.132812 280.1875 Z M 430.132812 279.25 C 431.109375 279.25 431.859375 279.640625 432.382812 280.421875 C 432.902344 281.195312 433.164062 282.320312 433.164062 283.796875 C 433.164062 285.265625 432.902344 286.390625 432.382812 287.171875 C 431.859375 287.945312 431.109375 288.328125 430.132812 288.328125 C 429.152344 288.328125 428.402344 287.945312 427.882812 287.171875 C 427.371094 286.390625 427.117188 285.265625 427.117188 283.796875 C 427.117188 282.320312 427.371094 281.195312 427.882812 280.421875 C 428.402344 279.640625 429.152344 279.25 430.132812 279.25 Z M 440.125 280.375 L 440.125 283.671875 L 441.609375 283.671875 C 442.160156 283.671875 442.585938 283.53125 442.890625 283.25 C 443.191406 282.960938 443.34375 282.546875 443.34375 282.015625 C 443.34375 281.496094 443.191406 281.09375 442.890625 280.8125 C 442.585938 280.523438 442.160156 280.375 441.609375 280.375 Z M 438.9375 279.40625 L 441.609375 279.40625 C 442.597656 279.40625 443.34375 279.632812 443.84375 280.078125 C 444.34375 280.515625 444.59375 281.164062 444.59375 282.015625 C 444.59375 282.882812 444.34375 283.539062 443.84375 283.984375 C 443.34375 284.421875 442.597656 284.640625 441.609375 284.640625 L 440.125 284.640625 L 440.125 288.15625 L 438.9375 288.15625 Z M 446.128906 279.03125 L 447.207031 279.03125 L 447.207031 288.15625 L 446.128906 288.15625 Z M 452.445312 284.859375 C 451.578125 284.859375 450.976562 284.960938 450.632812 285.15625 C 450.296875 285.355469 450.132812 285.695312 450.132812 286.171875 C 450.132812 286.558594 450.257812 286.867188 450.507812 287.09375 C 450.765625 287.3125 451.109375 287.421875 451.539062 287.421875 C 452.140625 287.421875 452.621094 287.214844 452.976562 286.796875 C 453.339844 286.371094 453.523438 285.804688 453.523438 285.09375 L 453.523438 284.859375 Z M 454.601562 284.40625 L 454.601562 288.15625 L 453.523438 288.15625 L 453.523438 287.15625 C 453.273438 287.554688 452.964844 287.851562 452.601562 288.046875 C 452.234375 288.234375 451.789062 288.328125 451.257812 288.328125 C 450.578125 288.328125 450.042969 288.140625 449.648438 287.765625 C 449.25 287.382812 449.054688 286.875 449.054688 286.25 C 449.054688 285.511719 449.296875 284.953125 449.789062 284.578125 C 450.289062 284.203125 451.027344 284.015625 452.007812 284.015625 L 453.523438 284.015625 L 453.523438 283.90625 C 453.523438 283.40625 453.355469 283.023438 453.023438 282.75 C 452.699219 282.480469 452.246094 282.34375 451.664062 282.34375 C 451.289062 282.34375 450.917969 282.390625 450.554688 282.484375 C 450.199219 282.578125 449.859375 282.714844 449.539062 282.890625 L 449.539062 281.890625 C 449.933594 281.734375 450.3125 281.621094 450.679688 281.546875 C 451.054688 281.476562 451.417969 281.4375 451.773438 281.4375 C 452.71875 281.4375 453.429688 281.683594 453.898438 282.171875 C 454.367188 282.664062 454.601562 283.40625 454.601562 284.40625 Z M 459.550781 288.765625 C 459.246094 289.546875 458.949219 290.054688 458.660156 290.296875 C 458.367188 290.535156 457.980469 290.65625 457.503906 290.65625 L 456.644531 290.65625 L 456.644531 289.75 L 457.269531 289.75 C 457.570312 289.75 457.800781 289.675781 457.957031 289.53125 C 458.121094 289.394531 458.304688 289.066406 458.503906 288.546875 L 458.707031 288.046875 L 456.050781 281.59375 L 457.191406 281.59375 L 459.238281 286.71875 L 461.300781 281.59375 L 462.441406 281.59375 Z M 469.542969 284.609375 L 469.542969 285.125 L 464.574219 285.125 C 464.625 285.875 464.847656 286.445312 465.246094 286.828125 C 465.652344 287.214844 466.207031 287.40625 466.917969 287.40625 C 467.332031 287.40625 467.734375 287.359375 468.121094 287.265625 C 468.515625 287.164062 468.90625 287.007812 469.292969 286.796875 L 469.292969 287.828125 C 468.894531 287.984375 468.496094 288.105469 468.089844 288.1875 C 467.683594 288.28125 467.269531 288.328125 466.855469 288.328125 C 465.8125 288.328125 464.984375 288.027344 464.371094 287.421875 C 463.753906 286.808594 463.449219 285.980469 463.449219 284.9375 C 463.449219 283.867188 463.738281 283.015625 464.324219 282.390625 C 464.90625 281.757812 465.6875 281.4375 466.667969 281.4375 C 467.550781 281.4375 468.25 281.726562 468.761719 282.296875 C 469.28125 282.859375 469.542969 283.632812 469.542969 284.609375 Z M 468.464844 284.28125 C 468.453125 283.699219 468.285156 283.230469 467.964844 282.875 C 467.640625 282.523438 467.214844 282.34375 466.683594 282.34375 C 466.078125 282.34375 465.59375 282.515625 465.230469 282.859375 C 464.875 283.203125 464.671875 283.683594 464.621094 284.296875 Z M 475.113281 282.59375 C 474.988281 282.53125 474.851562 282.484375 474.707031 282.453125 C 474.570312 282.414062 474.414062 282.390625 474.238281 282.390625 C 473.632812 282.390625 473.164062 282.589844 472.832031 282.984375 C 472.507812 283.382812 472.347656 283.953125 472.347656 284.703125 L 472.347656 288.15625 L 471.269531 288.15625 L 471.269531 281.59375 L 472.347656 281.59375 L 472.347656 282.609375 C 472.574219 282.214844 472.871094 281.921875 473.238281 281.734375 C 473.601562 281.539062 474.042969 281.4375 474.566406 281.4375 C 474.636719 281.4375 474.714844 281.445312 474.800781 281.453125 C 474.894531 281.464844 474.992188 281.480469 475.097656 281.5 Z M 480.421875 281.78125 L 480.421875 282.8125 C 480.117188 282.65625 479.800781 282.542969 479.46875 282.46875 C 479.144531 282.386719 478.804688 282.34375 478.453125 282.34375 C 477.921875 282.34375 477.519531 282.429688 477.25 282.59375 C 476.976562 282.75 476.84375 282.996094 476.84375 283.328125 C 476.84375 283.578125 476.9375 283.777344 477.125 283.921875 C 477.320312 284.058594 477.710938 284.1875 478.296875 284.3125 L 478.65625 284.40625 C 479.425781 284.5625 479.972656 284.792969 480.296875 285.09375 C 480.617188 285.398438 480.78125 285.8125 480.78125 286.34375 C 480.78125 286.960938 480.535156 287.445312 480.046875 287.796875 C 479.566406 288.152344 478.90625 288.328125 478.0625 288.328125 C 477.707031 288.328125 477.335938 288.289062 476.953125 288.21875 C 476.578125 288.15625 476.179688 288.058594 475.765625 287.921875 L 475.765625 286.796875 C 476.160156 287.007812 476.550781 287.164062 476.9375 287.265625 C 477.320312 287.371094 477.707031 287.421875 478.09375 287.421875 C 478.59375 287.421875 478.976562 287.339844 479.25 287.171875 C 479.53125 286.996094 479.671875 286.746094 479.671875 286.421875 C 479.671875 286.132812 479.570312 285.90625 479.375 285.75 C 479.175781 285.59375 478.742188 285.445312 478.078125 285.296875 L 477.703125 285.21875 C 477.035156 285.074219 476.550781 284.855469 476.25 284.5625 C 475.957031 284.273438 475.8125 283.875 475.8125 283.375 C 475.8125 282.75 476.03125 282.273438 476.46875 281.9375 C 476.90625 281.605469 477.523438 281.4375 478.328125 281.4375 C 478.722656 281.4375 479.097656 281.46875 479.453125 281.53125 C 479.804688 281.585938 480.128906 281.667969 480.421875 281.78125 Z M 422.503906 277.015625 "/>
<path style=" stroke:none;fill-rule:nonzero;fill:rgb(26.666667%,26.666667%,26.666667%);fill-opacity:1;" d="M 299.09375 14.34375 L 312.53125 14.34375 L 312.53125 17.1875 L 307.703125 17.1875 L 307.703125 28.921875 L 303.9375 28.921875 L 303.9375 17.1875 L 299.09375 17.1875 Z M 312.007812 24.65625 L 312.007812 17.984375 L 315.523438 17.984375 L 315.523438 19.078125 C 315.523438 19.671875 315.515625 20.417969 315.507812 21.3125 C 315.507812 22.210938 315.507812 22.804688 315.507812 23.09375 C 315.507812 23.980469 315.527344 24.617188 315.570312 25 C 315.621094 25.386719 315.699219 25.667969 315.804688 25.84375 C 315.949219 26.074219 316.136719 26.25 316.367188 26.375 C 316.59375 26.5 316.859375 26.5625 317.164062 26.5625 C 317.890625 26.5625 318.464844 26.28125 318.882812 25.71875 C 319.296875 25.15625 319.507812 24.382812 319.507812 23.390625 L 319.507812 17.984375 L 323.007812 17.984375 L 323.007812 28.921875 L 319.507812 28.921875 L 319.507812 27.34375 C 318.976562 27.980469 318.414062 28.449219 317.820312 28.75 C 317.234375 29.050781 316.589844 29.203125 315.882812 29.203125 C 314.621094 29.203125 313.65625 28.820312 312.992188 28.046875 C 312.335938 27.265625 312.007812 26.136719 312.007812 24.65625 Z M 334.496094 20.96875 C 334.183594 20.824219 333.875 20.71875 333.574219 20.65625 C 333.269531 20.585938 332.96875 20.546875 332.667969 20.546875 C 331.761719 20.546875 331.0625 20.835938 330.574219 21.40625 C 330.09375 21.980469 329.855469 22.804688 329.855469 23.875 L 329.855469 28.921875 L 326.371094 28.921875 L 326.371094 17.984375 L 329.855469 17.984375 L 329.855469 19.78125 C 330.300781 19.0625 330.816406 18.542969 331.402344 18.21875 C 331.984375 17.886719 332.683594 17.71875 333.496094 17.71875 C 333.621094 17.71875 333.75 17.726562 333.886719 17.734375 C 334.019531 17.746094 334.21875 17.765625 334.480469 17.796875 Z M 343.421875 13.71875 L 343.421875 16.015625 L 341.484375 16.015625 C 340.992188 16.015625 340.648438 16.109375 340.453125 16.296875 C 340.253906 16.476562 340.15625 16.78125 340.15625 17.21875 L 340.15625 17.984375 L 343.15625 17.984375 L 343.15625 20.484375 L 340.15625 20.484375 L 340.15625 28.921875 L 336.671875 28.921875 L 336.671875 20.484375 L 334.921875 20.484375 L 334.921875 17.984375 L 336.671875 17.984375 L 336.671875 17.21875 C 336.671875 16.03125 337 15.152344 337.65625 14.578125 C 338.320312 14.007812 339.351562 13.71875 340.75 13.71875 Z M 343.84375 14.34375 L 347.453125 14.34375 L 349.96875 24.9375 L 352.46875 14.34375 L 356.09375 14.34375 L 358.59375 24.9375 L 361.109375 14.34375 L 364.6875 14.34375 L 361.25 28.921875 L 356.90625 28.921875 L 354.265625 17.84375 L 351.65625 28.921875 L 347.3125 28.921875 Z M 371.171875 24 C 370.441406 24 369.894531 24.125 369.53125 24.375 C 369.164062 24.617188 368.984375 24.980469 368.984375 25.46875 C 368.984375 25.90625 369.128906 26.25 369.421875 26.5 C 369.722656 26.75 370.132812 26.875 370.65625 26.875 C 371.3125 26.875 371.863281 26.640625 372.3125 26.171875 C 372.769531 25.703125 373 25.117188 373 24.40625 L 373 24 Z M 376.515625 22.6875 L 376.515625 28.921875 L 373 28.921875 L 373 27.296875 C 372.53125 27.964844 372 28.449219 371.40625 28.75 C 370.820312 29.050781 370.109375 29.203125 369.265625 29.203125 C 368.140625 29.203125 367.222656 28.875 366.515625 28.21875 C 365.804688 27.554688 365.453125 26.695312 365.453125 25.640625 C 365.453125 24.359375 365.890625 23.421875 366.765625 22.828125 C 367.648438 22.226562 369.039062 21.921875 370.9375 21.921875 L 373 21.921875 L 373 21.640625 C 373 21.089844 372.78125 20.6875 372.34375 20.4375 C 371.90625 20.179688 371.222656 20.046875 370.296875 20.046875 C 369.546875 20.046875 368.847656 20.125 368.203125 20.28125 C 367.554688 20.429688 366.957031 20.648438 366.40625 20.9375 L 366.40625 18.28125 C 367.15625 18.09375 367.90625 17.953125 368.65625 17.859375 C 369.414062 17.765625 370.175781 17.71875 370.9375 17.71875 C 372.90625 17.71875 374.328125 18.109375 375.203125 18.890625 C 376.078125 19.664062 376.515625 20.929688 376.515625 22.6875 Z M 387.90625 20.96875 C 387.59375 20.824219 387.285156 20.71875 386.984375 20.65625 C 386.679688 20.585938 386.378906 20.546875 386.078125 20.546875 C 385.171875 20.546875 384.472656 20.835938 383.984375 21.40625 C 383.503906 21.980469 383.265625 22.804688 383.265625 23.875 L 383.265625 28.921875 L 379.78125 28.921875 L 379.78125 17.984375 L 383.265625 17.984375 L 383.265625 19.78125 C 383.710938 19.0625 384.226562 18.542969 384.8125 18.21875 C 385.394531 17.886719 386.09375 17.71875 386.90625 17.71875 C 387.03125 17.71875 387.160156 17.726562 387.296875 17.734375 C 387.429688 17.746094 387.628906 17.765625 387.890625 17.796875 Z M 398.171875 18.328125 L 398.171875 20.984375 C 397.429688 20.671875 396.710938 20.4375 396.015625 20.28125 C 395.316406 20.125 394.65625 20.046875 394.03125 20.046875 C 393.375 20.046875 392.882812 20.132812 392.5625 20.296875 C 392.238281 20.464844 392.078125 20.71875 392.078125 21.0625 C 392.078125 21.34375 392.195312 21.558594 392.4375 21.703125 C 392.6875 21.851562 393.125 21.960938 393.75 22.03125 L 394.375 22.125 C 396.164062 22.355469 397.367188 22.730469 397.984375 23.25 C 398.597656 23.773438 398.90625 24.589844 398.90625 25.703125 C 398.90625 26.871094 398.472656 27.746094 397.609375 28.328125 C 396.753906 28.914062 395.476562 29.203125 393.78125 29.203125 C 393.050781 29.203125 392.300781 29.144531 391.53125 29.03125 C 390.757812 28.917969 389.96875 28.746094 389.15625 28.515625 L 389.15625 25.859375 C 389.851562 26.203125 390.566406 26.460938 391.296875 26.625 C 392.023438 26.792969 392.769531 26.875 393.53125 26.875 C 394.21875 26.875 394.734375 26.78125 395.078125 26.59375 C 395.421875 26.40625 395.59375 26.125 395.59375 25.75 C 395.59375 25.4375 395.472656 25.210938 395.234375 25.0625 C 394.992188 24.90625 394.519531 24.789062 393.8125 24.703125 L 393.203125 24.625 C 391.640625 24.429688 390.546875 24.070312 389.921875 23.546875 C 389.296875 23.015625 388.984375 22.214844 388.984375 21.140625 C 388.984375 19.984375 389.378906 19.125 390.171875 18.5625 C 390.972656 18 392.191406 17.71875 393.828125 17.71875 C 394.472656 17.71875 395.148438 17.773438 395.859375 17.875 C 396.566406 17.96875 397.335938 18.121094 398.171875 18.328125 Z M 414.320312 26.671875 C 415.070312 26.671875 415.640625 26.402344 416.039062 25.859375 C 416.433594 25.308594 416.632812 24.511719 416.632812 23.46875 C 416.632812 22.429688 416.433594 21.636719 416.039062 21.09375 C 415.640625 20.542969 415.070312 20.265625 414.320312 20.265625 C 413.570312 20.265625 412.992188 20.542969 412.585938 21.09375 C 412.1875 21.636719 411.992188 22.429688 411.992188 23.46875 C 411.992188 24.5 412.1875 25.292969 412.585938 25.84375 C 412.992188 26.398438 413.570312 26.671875 414.320312 26.671875 Z M 411.992188 19.578125 C 412.480469 18.945312 413.015625 18.476562 413.601562 18.171875 C 414.183594 17.871094 414.855469 17.71875 415.617188 17.71875 C 416.96875 17.71875 418.078125 18.257812 418.945312 19.328125 C 419.808594 20.402344 420.242188 21.78125 420.242188 23.46875 C 420.242188 25.148438 419.808594 26.523438 418.945312 27.59375 C 418.078125 28.667969 416.96875 29.203125 415.617188 29.203125 C 414.855469 29.203125 414.183594 29.050781 413.601562 28.75 C 413.015625 28.449219 412.480469 27.980469 411.992188 27.34375 L 411.992188 28.921875 L 408.507812 28.921875 L 408.507812 13.71875 L 411.992188 13.71875 Z M 421.390625 17.984375 L 424.875 17.984375 L 427.828125 25.40625 L 430.328125 17.984375 L 433.8125 17.984375 L 429.21875 29.953125 C 428.757812 31.171875 428.21875 32.019531 427.59375 32.5 C 426.976562 32.988281 426.171875 33.234375 425.171875 33.234375 L 423.140625 33.234375 L 423.140625 30.9375 L 424.234375 30.9375 C 424.828125 30.9375 425.257812 30.84375 425.53125 30.65625 C 425.800781 30.46875 426.007812 30.128906 426.15625 29.640625 L 426.265625 29.34375 Z M 442.828125 17.984375 L 446.3125 17.984375 L 446.3125 28.921875 L 442.828125 28.921875 Z M 442.828125 13.71875 L 446.3125 13.71875 L 446.3125 16.578125 L 442.828125 16.578125 Z M 459.976562 14.796875 L 459.976562 17.890625 C 459.171875 17.527344 458.390625 17.257812 457.632812 17.078125 C 456.871094 16.890625 456.152344 16.796875 455.476562 16.796875 C 454.578125 16.796875 453.914062 16.921875 453.476562 17.171875 C 453.046875 17.421875 452.835938 17.808594 452.835938 18.328125 C 452.835938 18.714844 452.980469 19.015625 453.273438 19.234375 C 453.5625 19.453125 454.089844 19.640625 454.851562 19.796875 L 456.445312 20.125 C 458.070312 20.449219 459.21875 20.945312 459.898438 21.609375 C 460.585938 22.277344 460.929688 23.21875 460.929688 24.4375 C 460.929688 26.042969 460.449219 27.242188 459.492188 28.03125 C 458.542969 28.8125 457.089844 29.203125 455.132812 29.203125 C 454.203125 29.203125 453.273438 29.113281 452.335938 28.9375 C 451.40625 28.761719 450.480469 28.5 449.554688 28.15625 L 449.554688 24.984375 C 450.480469 25.484375 451.375 25.859375 452.242188 26.109375 C 453.117188 26.359375 453.960938 26.484375 454.773438 26.484375 C 455.59375 26.484375 456.21875 26.351562 456.648438 26.078125 C 457.085938 25.796875 457.304688 25.402344 457.304688 24.890625 C 457.304688 24.445312 457.152344 24.09375 456.851562 23.84375 C 456.558594 23.59375 455.96875 23.371094 455.085938 23.171875 L 453.632812 22.859375 C 452.171875 22.546875 451.105469 22.054688 450.429688 21.375 C 449.761719 20.6875 449.429688 19.761719 449.429688 18.59375 C 449.429688 17.148438 449.898438 16.03125 450.835938 15.25 C 451.773438 14.46875 453.121094 14.078125 454.882812 14.078125 C 455.683594 14.078125 456.507812 14.140625 457.351562 14.265625 C 458.195312 14.382812 459.070312 14.558594 459.976562 14.796875 Z M 468.976562 24 C 468.246094 24 467.699219 24.125 467.335938 24.375 C 466.96875 24.617188 466.789062 24.980469 466.789062 25.46875 C 466.789062 25.90625 466.933594 26.25 467.226562 26.5 C 467.527344 26.75 467.9375 26.875 468.460938 26.875 C 469.117188 26.875 469.667969 26.640625 470.117188 26.171875 C 470.574219 25.703125 470.804688 25.117188 470.804688 24.40625 L 470.804688 24 Z M 474.320312 22.6875 L 474.320312 28.921875 L 470.804688 28.921875 L 470.804688 27.296875 C 470.335938 27.964844 469.804688 28.449219 469.210938 28.75 C 468.625 29.050781 467.914062 29.203125 467.070312 29.203125 C 465.945312 29.203125 465.027344 28.875 464.320312 28.21875 C 463.609375 27.554688 463.257812 26.695312 463.257812 25.640625 C 463.257812 24.359375 463.695312 23.421875 464.570312 22.828125 C 465.453125 22.226562 466.84375 21.921875 468.742188 21.921875 L 470.804688 21.921875 L 470.804688 21.640625 C 470.804688 21.089844 470.585938 20.6875 470.148438 20.4375 C 469.710938 20.179688 469.027344 20.046875 468.101562 20.046875 C 467.351562 20.046875 466.652344 20.125 466.007812 20.28125 C 465.359375 20.429688 464.761719 20.648438 464.210938 20.9375 L 464.210938 18.28125 C 464.960938 18.09375 465.710938 17.953125 466.460938 17.859375 C 467.21875 17.765625 467.980469 17.71875 468.742188 17.71875 C 470.710938 17.71875 472.132812 18.109375 473.007812 18.890625 C 473.882812 19.664062 474.320312 20.929688 474.320312 22.6875 Z M 486.410156 18.328125 L 486.410156 21.171875 C 485.941406 20.851562 485.464844 20.609375 484.988281 20.453125 C 484.507812 20.296875 484.007812 20.21875 483.488281 20.21875 C 482.519531 20.21875 481.757812 20.507812 481.207031 21.078125 C 480.664062 21.640625 480.394531 22.4375 480.394531 23.46875 C 480.394531 24.492188 480.664062 25.289062 481.207031 25.859375 C 481.757812 26.421875 482.519531 26.703125 483.488281 26.703125 C 484.039062 26.703125 484.558594 26.625 485.050781 26.46875 C 485.539062 26.304688 485.992188 26.058594 486.410156 25.734375 L 486.410156 28.59375 C 485.867188 28.804688 485.316406 28.953125 484.753906 29.046875 C 484.191406 29.148438 483.621094 29.203125 483.050781 29.203125 C 481.082031 29.203125 479.539062 28.699219 478.425781 27.6875 C 477.308594 26.679688 476.753906 25.273438 476.753906 23.46875 C 476.753906 21.65625 477.308594 20.246094 478.425781 19.234375 C 479.539062 18.226562 481.082031 17.71875 483.050781 17.71875 C 483.621094 17.71875 484.183594 17.773438 484.738281 17.875 C 485.300781 17.96875 485.855469 18.121094 486.410156 18.328125 Z M 500.421875 22.265625 L 500.421875 28.921875 L 496.90625 28.921875 L 496.90625 23.84375 C 496.90625 22.886719 496.882812 22.230469 496.84375 21.875 C 496.800781 21.511719 496.726562 21.246094 496.625 21.078125 C 496.488281 20.851562 496.300781 20.671875 496.0625 20.546875 C 495.832031 20.421875 495.566406 20.359375 495.265625 20.359375 C 494.535156 20.359375 493.960938 20.640625 493.546875 21.203125 C 493.128906 21.765625 492.921875 22.546875 492.921875 23.546875 L 492.921875 28.921875 L 489.4375 28.921875 L 489.4375 13.71875 L 492.921875 13.71875 L 492.921875 19.578125 C 493.453125 18.945312 494.015625 18.476562 494.609375 18.171875 C 495.203125 17.871094 495.851562 17.71875 496.5625 17.71875 C 497.832031 17.71875 498.789062 18.109375 499.4375 18.890625 C 500.09375 19.664062 500.421875 20.789062 500.421875 22.265625 Z M 299 10.359375 "/>
<path style="fill:none;stroke-width:1;stroke-linecap:butt;stroke-linejoin:miter;stroke:rgb(0%,0%,0%);stroke-opacity:0.0980392;stroke-miterlimit:10;" d="M 21 234.5 L 801 234.5 "/>
<path style=" stroke:none;fill-rule:nonzero;fill:rgb(40%,40%,40%);fill-opacity:1;" d="M 42.980469 248.203125 L 44.574219 248.203125 L 48.464844 255.515625 L 48.464844 248.203125 L 49.605469 248.203125 L 49.605469 256.953125 L 48.011719 256.953125 L 44.136719 249.640625 L 44.136719 256.953125 L 42.980469 256.953125 Z M 54.457031 251.140625 C 53.882812 251.140625 53.425781 251.371094 53.082031 251.828125 C 52.746094 252.277344 52.582031 252.890625 52.582031 253.671875 C 52.582031 254.464844 52.746094 255.085938 53.082031 255.53125 C 53.414062 255.980469 53.871094 256.203125 54.457031 256.203125 C 55.027344 256.203125 55.480469 255.980469 55.816406 255.53125 C 56.160156 255.074219 56.332031 254.453125 56.332031 253.671875 C 56.332031 252.902344 56.160156 252.289062 55.816406 251.828125 C 55.480469 251.371094 55.027344 251.140625 54.457031 251.140625 Z M 54.457031 250.234375 C 55.394531 250.234375 56.128906 250.542969 56.660156 251.15625 C 57.199219 251.761719 57.472656 252.601562 57.472656 253.671875 C 57.472656 254.746094 57.199219 255.589844 56.660156 256.203125 C 56.128906 256.820312 55.394531 257.125 54.457031 257.125 C 53.519531 257.125 52.777344 256.820312 52.238281 256.203125 C 51.707031 255.589844 51.441406 254.746094 51.441406 253.671875 C 51.441406 252.601562 51.707031 251.761719 52.238281 251.15625 C 52.777344 250.542969 53.519531 250.234375 54.457031 250.234375 Z M 58.484375 250.390625 L 59.625 250.390625 L 61.671875 255.890625 L 63.734375 250.390625 L 64.875 250.390625 L 62.40625 256.953125 L 60.9375 256.953125 Z M 72.855469 252.796875 C 72.292969 252.796875 71.847656 252.949219 71.527344 253.25 C 71.203125 253.554688 71.042969 253.964844 71.042969 254.484375 C 71.042969 255.015625 71.203125 255.433594 71.527344 255.734375 C 71.847656 256.039062 72.292969 256.1875 72.855469 256.1875 C 73.417969 256.1875 73.859375 256.039062 74.183594 255.734375 C 74.503906 255.433594 74.667969 255.015625 74.667969 254.484375 C 74.667969 253.964844 74.503906 253.554688 74.183594 253.25 C 73.871094 252.949219 73.425781 252.796875 72.855469 252.796875 Z M 71.667969 252.296875 C 71.167969 252.171875 70.769531 251.9375 70.480469 251.59375 C 70.199219 251.242188 70.058594 250.8125 70.058594 250.3125 C 70.058594 249.617188 70.308594 249.0625 70.808594 248.65625 C 71.308594 248.25 71.988281 248.046875 72.855469 248.046875 C 73.730469 248.046875 74.410156 248.25 74.902344 248.65625 C 75.402344 249.0625 75.652344 249.617188 75.652344 250.3125 C 75.652344 250.8125 75.511719 251.242188 75.230469 251.59375 C 74.949219 251.9375 74.550781 252.171875 74.042969 252.296875 C 74.613281 252.433594 75.058594 252.695312 75.371094 253.078125 C 75.691406 253.464844 75.855469 253.933594 75.855469 254.484375 C 75.855469 255.339844 75.59375 255.996094 75.074219 256.453125 C 74.5625 256.902344 73.824219 257.125 72.855469 257.125 C 71.894531 257.125 71.15625 256.902344 70.636719 256.453125 C 70.113281 255.996094 69.855469 255.339844 69.855469 254.484375 C 69.855469 253.933594 70.015625 253.464844 70.339844 253.078125 C 70.660156 252.695312 71.105469 252.433594 71.667969 252.296875 Z M 71.246094 250.421875 C 71.246094 250.882812 71.386719 251.234375 71.667969 251.484375 C 71.949219 251.734375 72.34375 251.859375 72.855469 251.859375 C 73.363281 251.859375 73.761719 251.734375 74.042969 251.484375 C 74.332031 251.234375 74.480469 250.882812 74.480469 250.421875 C 74.480469 249.976562 74.332031 249.625 74.042969 249.375 C 73.761719 249.117188 73.363281 248.984375 72.855469 248.984375 C 72.34375 248.984375 71.949219 249.117188 71.667969 249.375 C 71.386719 249.625 71.246094 249.976562 71.246094 250.421875 Z M 41.808594 245.816406 "/>
<path style=" stroke:none;fill-rule:nonzero;fill:rgb(40%,40%,40%);fill-opacity:1;" d="M 154.507812 248.203125 L 156.101562 248.203125 L 159.992188 255.515625 L 159.992188 248.203125 L 161.132812 248.203125 L 161.132812 256.953125 L 159.539062 256.953125 L 155.664062 249.640625 L 155.664062 256.953125 L 154.507812 256.953125 Z M 165.984375 251.140625 C 165.410156 251.140625 164.953125 251.371094 164.609375 251.828125 C 164.273438 252.277344 164.109375 252.890625 164.109375 253.671875 C 164.109375 254.464844 164.273438 255.085938 164.609375 255.53125 C 164.941406 255.980469 165.398438 256.203125 165.984375 256.203125 C 166.554688 256.203125 167.007812 255.980469 167.34375 255.53125 C 167.6875 255.074219 167.859375 254.453125 167.859375 253.671875 C 167.859375 252.902344 167.6875 252.289062 167.34375 251.828125 C 167.007812 251.371094 166.554688 251.140625 165.984375 251.140625 Z M 165.984375 250.234375 C 166.921875 250.234375 167.65625 250.542969 168.1875 251.15625 C 168.726562 251.761719 169 252.601562 169 253.671875 C 169 254.746094 168.726562 255.589844 168.1875 256.203125 C 167.65625 256.820312 166.921875 257.125 165.984375 257.125 C 165.046875 257.125 164.304688 256.820312 163.765625 256.203125 C 163.234375 255.589844 162.96875 254.746094 162.96875 253.671875 C 162.96875 252.601562 163.234375 251.761719 163.765625 251.15625 C 164.304688 250.542969 165.046875 250.234375 165.984375 250.234375 Z M 170.015625 250.390625 L 171.15625 250.390625 L 173.203125 255.890625 L 175.265625 250.390625 L 176.40625 250.390625 L 173.9375 256.953125 L 172.46875 256.953125 Z M 181.882812 256.765625 L 181.882812 255.6875 C 182.183594 255.835938 182.484375 255.945312 182.789062 256.015625 C 183.089844 256.089844 183.390625 256.125 183.695312 256.125 C 184.476562 256.125 185.070312 255.867188 185.476562 255.34375 C 185.890625 254.8125 186.125 254.011719 186.179688 252.9375 C 185.960938 253.28125 185.671875 253.542969 185.320312 253.71875 C 184.976562 253.898438 184.589844 253.984375 184.164062 253.984375 C 183.289062 253.984375 182.59375 253.726562 182.085938 253.203125 C 181.574219 252.671875 181.320312 251.945312 181.320312 251.015625 C 181.320312 250.121094 181.585938 249.402344 182.117188 248.859375 C 182.648438 248.320312 183.355469 248.046875 184.242188 248.046875 C 185.25 248.046875 186.023438 248.4375 186.554688 249.21875 C 187.09375 249.992188 187.367188 251.117188 187.367188 252.59375 C 187.367188 253.96875 187.039062 255.070312 186.382812 255.890625 C 185.726562 256.714844 184.84375 257.125 183.742188 257.125 C 183.4375 257.125 183.136719 257.09375 182.835938 257.03125 C 182.53125 256.976562 182.214844 256.890625 181.882812 256.765625 Z M 184.242188 253.0625 C 184.773438 253.0625 185.195312 252.882812 185.507812 252.515625 C 185.820312 252.152344 185.976562 251.652344 185.976562 251.015625 C 185.976562 250.390625 185.820312 249.898438 185.507812 249.53125 C 185.195312 249.167969 184.773438 248.984375 184.242188 248.984375 C 183.710938 248.984375 183.289062 249.167969 182.976562 249.53125 C 182.671875 249.898438 182.523438 250.390625 182.523438 251.015625 C 182.523438 251.652344 182.671875 252.152344 182.976562 252.515625 C 183.289062 252.882812 183.710938 253.0625 184.242188 253.0625 Z M 153.335938 245.816406 "/>
<path style=" stroke:none;fill-rule:nonzero;fill:rgb(40%,40%,40%);fill-opacity:1;" d="M 262.035156 248.203125 L 263.628906 248.203125 L 267.519531 255.515625 L 267.519531 248.203125 L 268.660156 248.203125 L 268.660156 256.953125 L 267.066406 256.953125 L 263.191406 249.640625 L 263.191406 256.953125 L 262.035156 256.953125 Z M 273.511719 251.140625 C 272.9375 251.140625 272.480469 251.371094 272.136719 251.828125 C 271.800781 252.277344 271.636719 252.890625 271.636719 253.671875 C 271.636719 254.464844 271.800781 255.085938 272.136719 255.53125 C 272.46875 255.980469 272.925781 256.203125 273.511719 256.203125 C 274.082031 256.203125 274.535156 255.980469 274.871094 255.53125 C 275.214844 255.074219 275.386719 254.453125 275.386719 253.671875 C 275.386719 252.902344 275.214844 252.289062 274.871094 251.828125 C 274.535156 251.371094 274.082031 251.140625 273.511719 251.140625 Z M 273.511719 250.234375 C 274.449219 250.234375 275.183594 250.542969 275.714844 251.15625 C 276.253906 251.761719 276.527344 252.601562 276.527344 253.671875 C 276.527344 254.746094 276.253906 255.589844 275.714844 256.203125 C 275.183594 256.820312 274.449219 257.125 273.511719 257.125 C 272.574219 257.125 271.832031 256.820312 271.292969 256.203125 C 270.761719 255.589844 270.496094 254.746094 270.496094 253.671875 C 270.496094 252.601562 270.761719 251.761719 271.292969 251.15625 C 271.832031 250.542969 272.574219 250.234375 273.511719 250.234375 Z M 277.539062 250.390625 L 278.679688 250.390625 L 280.726562 255.890625 L 282.789062 250.390625 L 283.929688 250.390625 L 281.460938 256.953125 L 279.992188 256.953125 Z M 289.582031 255.953125 L 291.519531 255.953125 L 291.519531 249.28125 L 289.410156 249.703125 L 289.410156 248.625 L 291.503906 248.203125 L 292.691406 248.203125 L 292.691406 255.953125 L 294.628906 255.953125 L 294.628906 256.953125 L 289.582031 256.953125 Z M 299.546875 248.984375 C 298.941406 248.984375 298.484375 249.289062 298.171875 249.890625 C 297.867188 250.484375 297.71875 251.386719 297.71875 252.59375 C 297.71875 253.792969 297.867188 254.695312 298.171875 255.296875 C 298.484375 255.890625 298.941406 256.1875 299.546875 256.1875 C 300.160156 256.1875 300.617188 255.890625 300.921875 255.296875 C 301.234375 254.695312 301.390625 253.792969 301.390625 252.59375 C 301.390625 251.386719 301.234375 250.484375 300.921875 249.890625 C 300.617188 249.289062 300.160156 248.984375 299.546875 248.984375 Z M 299.546875 248.046875 C 300.523438 248.046875 301.273438 248.4375 301.796875 249.21875 C 302.316406 249.992188 302.578125 251.117188 302.578125 252.59375 C 302.578125 254.0625 302.316406 255.1875 301.796875 255.96875 C 301.273438 256.742188 300.523438 257.125 299.546875 257.125 C 298.566406 257.125 297.816406 256.742188 297.296875 255.96875 C 296.785156 255.1875 296.53125 254.0625 296.53125 252.59375 C 296.53125 251.117188 296.785156 249.992188 297.296875 249.21875 C 297.816406 248.4375 298.566406 248.046875 299.546875 248.046875 Z M 260.863281 245.816406 "/>
<path style=" stroke:none;fill-rule:nonzero;fill:rgb(40%,40%,40%);fill-opacity:1;" d="M 373.5625 248.203125 L 375.15625 248.203125 L 379.046875 255.515625 L 379.046875 248.203125 L 380.1875 248.203125 L 380.1875 256.953125 L 378.59375 256.953125 L 374.71875 249.640625 L 374.71875 256.953125 L 373.5625 256.953125 Z M 385.039062 251.140625 C 384.464844 251.140625 384.007812 251.371094 383.664062 251.828125 C 383.328125 252.277344 383.164062 252.890625 383.164062 253.671875 C 383.164062 254.464844 383.328125 255.085938 383.664062 255.53125 C 383.996094 255.980469 384.453125 256.203125 385.039062 256.203125 C 385.609375 256.203125 386.0625 255.980469 386.398438 255.53125 C 386.742188 255.074219 386.914062 254.453125 386.914062 253.671875 C 386.914062 252.902344 386.742188 252.289062 386.398438 251.828125 C 386.0625 251.371094 385.609375 251.140625 385.039062 251.140625 Z M 385.039062 250.234375 C 385.976562 250.234375 386.710938 250.542969 387.242188 251.15625 C 387.78125 251.761719 388.054688 252.601562 388.054688 253.671875 C 388.054688 254.746094 387.78125 255.589844 387.242188 256.203125 C 386.710938 256.820312 385.976562 257.125 385.039062 257.125 C 384.101562 257.125 383.359375 256.820312 382.820312 256.203125 C 382.289062 255.589844 382.023438 254.746094 382.023438 253.671875 C 382.023438 252.601562 382.289062 251.761719 382.820312 251.15625 C 383.359375 250.542969 384.101562 250.234375 385.039062 250.234375 Z M 389.070312 250.390625 L 390.210938 250.390625 L 392.257812 255.890625 L 394.320312 250.390625 L 395.460938 250.390625 L 392.992188 256.953125 L 391.523438 256.953125 Z M 401.109375 255.953125 L 403.046875 255.953125 L 403.046875 249.28125 L 400.9375 249.703125 L 400.9375 248.625 L 403.03125 248.203125 L 404.21875 248.203125 L 404.21875 255.953125 L 406.15625 255.953125 L 406.15625 256.953125 L 401.109375 256.953125 Z M 408.742188 255.953125 L 410.679688 255.953125 L 410.679688 249.28125 L 408.570312 249.703125 L 408.570312 248.625 L 410.664062 248.203125 L 411.851562 248.203125 L 411.851562 255.953125 L 413.789062 255.953125 L 413.789062 256.953125 L 408.742188 256.953125 Z M 372.390625 245.816406 "/>
<path style=" stroke:none;fill-rule:nonzero;fill:rgb(40%,40%,40%);fill-opacity:1;" d="M 485.089844 248.203125 L 486.683594 248.203125 L 490.574219 255.515625 L 490.574219 248.203125 L 491.714844 248.203125 L 491.714844 256.953125 L 490.121094 256.953125 L 486.246094 249.640625 L 486.246094 256.953125 L 485.089844 256.953125 Z M 496.566406 251.140625 C 495.992188 251.140625 495.535156 251.371094 495.191406 251.828125 C 494.855469 252.277344 494.691406 252.890625 494.691406 253.671875 C 494.691406 254.464844 494.855469 255.085938 495.191406 255.53125 C 495.523438 255.980469 495.980469 256.203125 496.566406 256.203125 C 497.136719 256.203125 497.589844 255.980469 497.925781 255.53125 C 498.269531 255.074219 498.441406 254.453125 498.441406 253.671875 C 498.441406 252.902344 498.269531 252.289062 497.925781 251.828125 C 497.589844 251.371094 497.136719 251.140625 496.566406 251.140625 Z M 496.566406 250.234375 C 497.503906 250.234375 498.238281 250.542969 498.769531 251.15625 C 499.308594 251.761719 499.582031 252.601562 499.582031 253.671875 C 499.582031 254.746094 499.308594 255.589844 498.769531 256.203125 C 498.238281 256.820312 497.503906 257.125 496.566406 257.125 C 495.628906 257.125 494.886719 256.820312 494.347656 256.203125 C 493.816406 255.589844 493.550781 254.746094 493.550781 253.671875 C 493.550781 252.601562 493.816406 251.761719 494.347656 251.15625 C 494.886719 250.542969 495.628906 250.234375 496.566406 250.234375 Z M 500.59375 250.390625 L 501.734375 250.390625 L 503.78125 255.890625 L 505.84375 250.390625 L 506.984375 250.390625 L 504.515625 256.953125 L 503.046875 256.953125 Z M 512.636719 255.953125 L 514.574219 255.953125 L 514.574219 249.28125 L 512.464844 249.703125 L 512.464844 248.625 L 514.558594 248.203125 L 515.746094 248.203125 L 515.746094 255.953125 L 517.683594 255.953125 L 517.683594 256.953125 L 512.636719 256.953125 Z M 521.085938 255.953125 L 525.226562 255.953125 L 525.226562 256.953125 L 519.664062 256.953125 L 519.664062 255.953125 C 520.109375 255.496094 520.71875 254.875 521.492188 254.09375 C 522.273438 253.304688 522.761719 252.792969 522.960938 252.5625 C 523.34375 252.148438 523.609375 251.792969 523.757812 251.5 C 523.914062 251.199219 523.992188 250.90625 523.992188 250.625 C 523.992188 250.15625 523.824219 249.777344 523.492188 249.484375 C 523.167969 249.195312 522.746094 249.046875 522.226562 249.046875 C 521.851562 249.046875 521.453125 249.109375 521.039062 249.234375 C 520.632812 249.359375 520.195312 249.558594 519.726562 249.828125 L 519.726562 248.625 C 520.203125 248.4375 520.648438 248.296875 521.054688 248.203125 C 521.46875 248.101562 521.851562 248.046875 522.195312 248.046875 C 523.101562 248.046875 523.824219 248.277344 524.367188 248.734375 C 524.90625 249.183594 525.179688 249.789062 525.179688 250.546875 C 525.179688 250.902344 525.109375 251.242188 524.976562 251.5625 C 524.839844 251.886719 524.59375 252.265625 524.242188 252.703125 C 524.136719 252.820312 523.824219 253.148438 523.304688 253.6875 C 522.78125 254.230469 522.042969 254.984375 521.085938 255.953125 Z M 483.917969 245.816406 "/>
<path style=" stroke:none;fill-rule:nonzero;fill:rgb(40%,40%,40%);fill-opacity:1;" d="M 596.617188 248.203125 L 598.210938 248.203125 L 602.101562 255.515625 L 602.101562 248.203125 L 603.242188 248.203125 L 603.242188 256.953125 L 601.648438 256.953125 L 597.773438 249.640625 L 597.773438 256.953125 L 596.617188 256.953125 Z M 608.09375 251.140625 C 607.519531 251.140625 607.0625 251.371094 606.71875 251.828125 C 606.382812 252.277344 606.21875 252.890625 606.21875 253.671875 C 606.21875 254.464844 606.382812 255.085938 606.71875 255.53125 C 607.050781 255.980469 607.507812 256.203125 608.09375 256.203125 C 608.664062 256.203125 609.117188 255.980469 609.453125 255.53125 C 609.796875 255.074219 609.96875 254.453125 609.96875 253.671875 C 609.96875 252.902344 609.796875 252.289062 609.453125 251.828125 C 609.117188 251.371094 608.664062 251.140625 608.09375 251.140625 Z M 608.09375 250.234375 C 609.03125 250.234375 609.765625 250.542969 610.296875 251.15625 C 610.835938 251.761719 611.109375 252.601562 611.109375 253.671875 C 611.109375 254.746094 610.835938 255.589844 610.296875 256.203125 C 609.765625 256.820312 609.03125 257.125 608.09375 257.125 C 607.15625 257.125 606.414062 256.820312 605.875 256.203125 C 605.34375 255.589844 605.078125 254.746094 605.078125 253.671875 C 605.078125 252.601562 605.34375 251.761719 605.875 251.15625 C 606.414062 250.542969 607.15625 250.234375 608.09375 250.234375 Z M 612.125 250.390625 L 613.265625 250.390625 L 615.3125 255.890625 L 617.375 250.390625 L 618.515625 250.390625 L 616.046875 256.953125 L 614.578125 256.953125 Z M 624.164062 255.953125 L 626.101562 255.953125 L 626.101562 249.28125 L 623.992188 249.703125 L 623.992188 248.625 L 626.085938 248.203125 L 627.273438 248.203125 L 627.273438 255.953125 L 629.210938 255.953125 L 629.210938 256.953125 L 624.164062 256.953125 Z M 635.1875 252.234375 C 635.75 252.359375 636.1875 252.617188 636.5 253 C 636.820312 253.375 636.984375 253.84375 636.984375 254.40625 C 636.984375 255.273438 636.6875 255.945312 636.09375 256.421875 C 635.5 256.890625 634.65625 257.125 633.5625 257.125 C 633.195312 257.125 632.816406 257.085938 632.421875 257.015625 C 632.035156 256.945312 631.640625 256.835938 631.234375 256.6875 L 631.234375 255.546875 C 631.554688 255.734375 631.910156 255.882812 632.296875 255.984375 C 632.691406 256.078125 633.101562 256.125 633.53125 256.125 C 634.269531 256.125 634.832031 255.980469 635.21875 255.6875 C 635.613281 255.398438 635.8125 254.96875 635.8125 254.40625 C 635.8125 253.898438 635.628906 253.496094 635.265625 253.203125 C 634.898438 252.914062 634.398438 252.765625 633.765625 252.765625 L 632.734375 252.765625 L 632.734375 251.796875 L 633.8125 251.796875 C 634.382812 251.796875 634.828125 251.683594 635.140625 251.453125 C 635.453125 251.214844 635.609375 250.875 635.609375 250.4375 C 635.609375 249.992188 635.445312 249.648438 635.125 249.40625 C 634.8125 249.167969 634.359375 249.046875 633.765625 249.046875 C 633.429688 249.046875 633.078125 249.085938 632.703125 249.15625 C 632.335938 249.21875 631.929688 249.324219 631.484375 249.46875 L 631.484375 248.421875 C 631.941406 248.296875 632.363281 248.203125 632.75 248.140625 C 633.144531 248.078125 633.515625 248.046875 633.859375 248.046875 C 634.765625 248.046875 635.476562 248.25 636 248.65625 C 636.519531 249.0625 636.78125 249.617188 636.78125 250.3125 C 636.78125 250.804688 636.640625 251.214844 636.359375 251.546875 C 636.085938 251.882812 635.695312 252.109375 635.1875 252.234375 Z M 595.445312 245.816406 "/>
<path style=" stroke:none;fill-rule:nonzero;fill:rgb(40%,40%,40%);fill-opacity:1;" d="M 708.144531 248.203125 L 709.738281 248.203125 L 713.628906 255.515625 L 713.628906 248.203125 L 714.769531 248.203125 L 714.769531 256.953125 L 713.175781 256.953125 L 709.300781 249.640625 L 709.300781 256.953125 L 708.144531 256.953125 Z M 719.621094 251.140625 C 719.046875 251.140625 718.589844 251.371094 718.246094 251.828125 C 717.910156 252.277344 717.746094 252.890625 717.746094 253.671875 C 717.746094 254.464844 717.910156 255.085938 718.246094 255.53125 C 718.578125 255.980469 719.035156 256.203125 719.621094 256.203125 C 720.191406 256.203125 720.644531 255.980469 720.980469 255.53125 C 721.324219 255.074219 721.496094 254.453125 721.496094 253.671875 C 721.496094 252.902344 721.324219 252.289062 720.980469 251.828125 C 720.644531 251.371094 720.191406 251.140625 719.621094 251.140625 Z M 719.621094 250.234375 C 720.558594 250.234375 721.292969 250.542969 721.824219 251.15625 C 722.363281 251.761719 722.636719 252.601562 722.636719 253.671875 C 722.636719 254.746094 722.363281 255.589844 721.824219 256.203125 C 721.292969 256.820312 720.558594 257.125 719.621094 257.125 C 718.683594 257.125 717.941406 256.820312 717.402344 256.203125 C 716.871094 255.589844 716.605469 254.746094 716.605469 253.671875 C 716.605469 252.601562 716.871094 251.761719 717.402344 251.15625 C 717.941406 250.542969 718.683594 250.234375 719.621094 250.234375 Z M 723.648438 250.390625 L 724.789062 250.390625 L 726.835938 255.890625 L 728.898438 250.390625 L 730.039062 250.390625 L 727.570312 256.953125 L 726.101562 256.953125 Z M 735.691406 255.953125 L 737.628906 255.953125 L 737.628906 249.28125 L 735.519531 249.703125 L 735.519531 248.625 L 737.613281 248.203125 L 738.800781 248.203125 L 738.800781 255.953125 L 740.738281 255.953125 L 740.738281 256.953125 L 735.691406 256.953125 Z M 746.375 249.234375 L 743.390625 253.90625 L 746.375 253.90625 Z M 746.0625 248.203125 L 747.5625 248.203125 L 747.5625 253.90625 L 748.8125 253.90625 L 748.8125 254.890625 L 747.5625 254.890625 L 747.5625 256.953125 L 746.375 256.953125 L 746.375 254.890625 L 742.4375 254.890625 L 742.4375 253.75 Z M 706.972656 245.816406 "/>
<path style="fill:none;stroke-width:1;stroke-linecap:butt;stroke-linejoin:miter;stroke:rgb(0%,0%,0%);stroke-opacity:0.0980392;stroke-miterlimit:10;" d="M 21.5 44 L 21.5 235 "/>
<path style=" stroke:none;fill-rule:nonzero;fill:rgb(40%,40%,40%);fill-opacity:1;" d="M 6.445312 230.789062 C 5.839844 230.789062 5.382812 231.09375 5.070312 231.695312 C 4.765625 232.289062 4.617188 233.191406 4.617188 234.398438 C 4.617188 235.597656 4.765625 236.5 5.070312 237.101562 C 5.382812 237.695312 5.839844 237.992188 6.445312 237.992188 C 7.058594 237.992188 7.515625 237.695312 7.820312 237.101562 C 8.132812 236.5 8.289062 235.597656 8.289062 234.398438 C 8.289062 233.191406 8.132812 232.289062 7.820312 231.695312 C 7.515625 231.09375 7.058594 230.789062 6.445312 230.789062 Z M 6.445312 229.851562 C 7.421875 229.851562 8.171875 230.242188 8.695312 231.023438 C 9.214844 231.796875 9.476562 232.921875 9.476562 234.398438 C 9.476562 235.867188 9.214844 236.992188 8.695312 237.773438 C 8.171875 238.546875 7.421875 238.929688 6.445312 238.929688 C 5.464844 238.929688 4.714844 238.546875 4.195312 237.773438 C 3.683594 236.992188 3.429688 235.867188 3.429688 234.398438 C 3.429688 232.921875 3.683594 231.796875 4.195312 231.023438 C 4.714844 230.242188 5.464844 229.851562 6.445312 229.851562 Z M 2.632812 227.617188 "/>
<path style=" stroke:none;fill-rule:nonzero;fill:rgb(40%,40%,40%);fill-opacity:1;" d="M 4.929688 190.101562 L 9.070312 190.101562 L 9.070312 191.101562 L 3.507812 191.101562 L 3.507812 190.101562 C 3.953125 189.644531 4.5625 189.023438 5.335938 188.242188 C 6.117188 187.453125 6.605469 186.941406 6.804688 186.710938 C 7.1875 186.296875 7.453125 185.941406 7.601562 185.648438 C 7.757812 185.347656 7.835938 185.054688 7.835938 184.773438 C 7.835938 184.304688 7.667969 183.925781 7.335938 183.632812 C 7.011719 183.34375 6.589844 183.195312 6.070312 183.195312 C 5.695312 183.195312 5.296875 183.257812 4.882812 183.382812 C 4.476562 183.507812 4.039062 183.707031 3.570312 183.976562 L 3.570312 182.773438 C 4.046875 182.585938 4.492188 182.445312 4.898438 182.351562 C 5.3125 182.25 5.695312 182.195312 6.039062 182.195312 C 6.945312 182.195312 7.667969 182.425781 8.210938 182.882812 C 8.75 183.332031 9.023438 183.9375 9.023438 184.695312 C 9.023438 185.050781 8.953125 185.390625 8.820312 185.710938 C 8.683594 186.035156 8.4375 186.414062 8.085938 186.851562 C 7.980469 186.96875 7.667969 187.296875 7.148438 187.835938 C 6.625 188.378906 5.886719 189.132812 4.929688 190.101562 Z M 2.632812 179.964844 "/>
<path style=" stroke:none;fill-rule:nonzero;fill:rgb(40%,40%,40%);fill-opacity:1;" d="M 7.164062 135.734375 L 4.179688 140.40625 L 7.164062 140.40625 Z M 6.851562 134.703125 L 8.351562 134.703125 L 8.351562 140.40625 L 9.601562 140.40625 L 9.601562 141.390625 L 8.351562 141.390625 L 8.351562 143.453125 L 7.164062 143.453125 L 7.164062 141.390625 L 3.226562 141.390625 L 3.226562 140.25 Z M 2.632812 132.316406 "/>
<path style=" stroke:none;fill-rule:nonzero;fill:rgb(40%,40%,40%);fill-opacity:1;" d="M 6.601562 90.960938 C 6.070312 90.960938 5.648438 91.144531 5.335938 91.507812 C 5.023438 91.875 4.867188 92.367188 4.867188 92.992188 C 4.867188 93.628906 5.023438 94.128906 5.335938 94.492188 C 5.648438 94.859375 6.070312 95.039062 6.601562 95.039062 C 7.132812 95.039062 7.546875 94.859375 7.851562 94.492188 C 8.164062 94.128906 8.320312 93.628906 8.320312 92.992188 C 8.320312 92.367188 8.164062 91.875 7.851562 91.507812 C 7.546875 91.144531 7.132812 90.960938 6.601562 90.960938 Z M 8.945312 87.242188 L 8.945312 88.320312 C 8.640625 88.1875 8.339844 88.082031 8.039062 88.007812 C 7.734375 87.9375 7.4375 87.898438 7.148438 87.898438 C 6.367188 87.898438 5.765625 88.164062 5.351562 88.695312 C 4.945312 89.21875 4.710938 90.007812 4.648438 91.070312 C 4.875 90.738281 5.164062 90.484375 5.507812 90.304688 C 5.859375 90.117188 6.246094 90.023438 6.664062 90.023438 C 7.539062 90.023438 8.230469 90.289062 8.742188 90.820312 C 9.25 91.351562 9.507812 92.078125 9.507812 92.992188 C 9.507812 93.898438 9.242188 94.625 8.710938 95.164062 C 8.179688 95.707031 7.476562 95.976562 6.601562 95.976562 C 5.578125 95.976562 4.804688 95.59375 4.273438 94.820312 C 3.742188 94.039062 3.476562 92.914062 3.476562 91.445312 C 3.476562 90.0625 3.804688 88.957031 4.460938 88.132812 C 5.117188 87.3125 5.996094 86.898438 7.101562 86.898438 C 7.390625 86.898438 7.6875 86.929688 7.992188 86.992188 C 8.292969 87.046875 8.609375 87.128906 8.945312 87.242188 Z M 2.632812 84.664062 "/>
<path style=" stroke:none;fill-rule:nonzero;fill:rgb(40%,40%,40%);fill-opacity:1;" d="M 6.445312 44 C 5.882812 44 5.4375 44.152344 5.117188 44.453125 C 4.792969 44.757812 4.632812 45.167969 4.632812 45.6875 C 4.632812 46.21875 4.792969 46.636719 5.117188 46.9375 C 5.4375 47.242188 5.882812 47.390625 6.445312 47.390625 C 7.007812 47.390625 7.449219 47.242188 7.773438 46.9375 C 8.09375 46.636719 8.257812 46.21875 8.257812 45.6875 C 8.257812 45.167969 8.09375 44.757812 7.773438 44.453125 C 7.460938 44.152344 7.015625 44 6.445312 44 Z M 5.257812 43.5 C 4.757812 43.375 4.359375 43.140625 4.070312 42.796875 C 3.789062 42.445312 3.648438 42.015625 3.648438 41.515625 C 3.648438 40.820312 3.898438 40.265625 4.398438 39.859375 C 4.898438 39.453125 5.578125 39.25 6.445312 39.25 C 7.320312 39.25 8 39.453125 8.492188 39.859375 C 8.992188 40.265625 9.242188 40.820312 9.242188 41.515625 C 9.242188 42.015625 9.101562 42.445312 8.820312 42.796875 C 8.539062 43.140625 8.140625 43.375 7.632812 43.5 C 8.203125 43.636719 8.648438 43.898438 8.960938 44.28125 C 9.28125 44.667969 9.445312 45.136719 9.445312 45.6875 C 9.445312 46.542969 9.183594 47.199219 8.664062 47.65625 C 8.152344 48.105469 7.414062 48.328125 6.445312 48.328125 C 5.484375 48.328125 4.746094 48.105469 4.226562 47.65625 C 3.703125 47.199219 3.445312 46.542969 3.445312 45.6875 C 3.445312 45.136719 3.605469 44.667969 3.929688 44.28125 C 4.25 43.898438 4.695312 43.636719 5.257812 43.5 Z M 4.835938 41.625 C 4.835938 42.085938 4.976562 42.4375 5.257812 42.6875 C 5.539062 42.9375 5.933594 43.0625 6.445312 43.0625 C 6.953125 43.0625 7.351562 42.9375 7.632812 42.6875 C 7.921875 42.4375 8.070312 42.085938 8.070312 41.625 C 8.070312 41.179688 7.921875 40.828125 7.632812 40.578125 C 7.351562 40.320312 6.953125 40.1875 6.445312 40.1875 C 5.933594 40.1875 5.539062 40.320312 5.257812 40.578125 C 4.976562 40.828125 4.835938 41.179688 4.835938 41.625 Z M 2.632812 37.015625 "/>
<g clip-path="url(#clip3)" clip-rule="nonzero">
<path style=" stroke:none;fill-rule:nonzero;fill:rgb(96.862745%,44.705882%,40.784314%);fill-opacity:1;" d="M 800 234.601562 L 723.324219 234.601562 L 721 210.773438 L 718.679688 234.601562 L 693.121094 234.601562 L 690.796875 210.773438 L 688.472656 234.601562 L 405.007812 234.601562 L 402.683594 210.773438 L 400.363281 234.601562 L 391.066406 234.601562 L 388.746094 210.773438 L 379.449219 210.773438 L 377.125 234.601562 L 309.746094 234.601562 L 307.421875 210.773438 L 305.097656 234.601562 L 291.160156 234.601562 L 288.835938 210.773438 L 286.511719 210.773438 L 284.1875 234.601562 L 260.953125 234.601562 L 258.628906 210.773438 L 256.304688 234.601562 L 240.042969 234.601562 L 237.71875 186.949219 L 235.394531 234.601562 L 221.453125 234.601562 L 219.128906 210.773438 L 216.808594 234.601562 L 184.277344 234.601562 L 181.953125 67.824219 L 179.632812 139.300781 L 177.308594 234.601562 L 170.335938 234.601562 L 168.015625 210.773438 L 161.042969 210.773438 L 158.71875 91.648438 L 156.398438 91.648438 L 154.074219 210.773438 L 151.75 234.601562 L 102.957031 234.601562 L 100.632812 163.125 L 98.308594 163.125 L 95.984375 234.601562 L 47.191406 234.601562 L 44.871094 210.773438 L 42.546875 234.601562 L 21.632812 234.601562 Z M 800 234.601562 "/>
</g>
<g clip-path="url(#clip4)" clip-rule="nonzero">
<path style="fill:none;stroke-width:2;stroke-linecap:butt;stroke-linejoin:miter;stroke:rgb(100%,4.705882%,0%);stroke-opacity:0.247059;stroke-miterlimit:10;" d="M 800 234.601562 L 723.324219 234.601562 L 721 210.773438 L 718.679688 234.601562 L 693.121094 234.601562 L 690.796875 210.773438 L 688.472656 234.601562 L 405.007812 234.601562 L 402.683594 210.773438 L 400.363281 234.601562 L 391.066406 234.601562 L 388.746094 210.773438 L 379.449219 210.773438 L 377.125 234.601562 L 309.746094 234.601562 L 307.421875 210.773438 L 305.097656 234.601562 L 291.160156 234.601562 L 288.835938 210.773438 L 286.511719 210.773438 L 284.1875 234.601562 L 260.953125 234.601562 L 258.628906 210.773438 L 256.304688 234.601562 L 240.042969 234.601562 L 237.71875 186.949219 L 235.394531 234.601562 L 221.453125 234.601562 L 219.128906 210.773438 L 216.808594 234.601562 L 184.277344 234.601562 L 181.953125 67.824219 L 179.632812 139.300781 L 177.308594 234.601562 L 170.335938 234.601562 L 168.015625 210.773438 L 161.042969 210.773438 L 158.71875 91.648438 L 156.398438 91.648438 L 154.074219 210.773438 L 151.75 234.601562 L 102.957031 234.601562 L 100.632812 163.125 L 98.308594 163.125 L 95.984375 234.601562 L 47.191406 234.601562 L 44.871094 210.773438 L 42.546875 234.601562 L 21.632812 234.601562 "/>
</g>
<g clip-path="url(#clip5)" clip-rule="nonzero">
<path style=" stroke:none;fill-rule:nonzero;fill:rgb(9.019608%,58.823529%,95.294118%);fill-opacity:0.6;" d="M 800 67.824219 L 795.351562 67.824219 L 793.03125 115.476562 L 790.707031 91.648438 L 788.382812 67.824219 L 786.058594 67.824219 L 783.734375 91.648438 L 779.089844 91.648438 L 776.765625 67.824219 L 774.441406 91.648438 L 772.117188 91.648438 L 769.792969 67.824219 L 767.472656 91.648438 L 765.148438 67.824219 L 762.824219 91.648438 L 760.5 67.824219 L 758.175781 67.824219 L 755.855469 91.648438 L 751.207031 91.648438 L 748.882812 115.476562 L 746.558594 91.648438 L 744.238281 67.824219 L 739.589844 67.824219 L 737.265625 91.648438 L 734.941406 91.648438 L 732.617188 115.476562 L 730.296875 91.648438 L 725.648438 91.648438 L 723.324219 67.824219 L 721 91.648438 L 718.679688 67.824219 L 714.03125 67.824219 L 711.707031 91.648438 L 709.382812 91.648438 L 707.0625 67.824219 L 704.738281 91.648438 L 695.445312 91.648438 L 693.121094 67.824219 L 686.148438 67.824219 L 683.824219 91.648438 L 681.503906 115.476562 L 679.179688 115.476562 L 676.855469 67.824219 L 674.53125 91.648438 L 672.207031 67.824219 L 669.886719 91.648438 L 667.5625 67.824219 L 665.238281 91.648438 L 653.621094 91.648438 L 651.296875 67.824219 L 646.652344 67.824219 L 644.328125 115.476562 L 642.003906 67.824219 L 639.679688 91.648438 L 632.710938 91.648438 L 630.386719 67.824219 L 625.738281 67.824219 L 623.414062 91.648438 L 616.445312 91.648438 L 614.121094 67.824219 L 611.796875 91.648438 L 609.476562 91.648438 L 607.152344 67.824219 L 604.828125 67.824219 L 602.503906 115.476562 L 600.179688 91.648438 L 593.210938 91.648438 L 590.886719 67.824219 L 588.5625 91.648438 L 586.238281 91.648438 L 583.917969 67.824219 L 581.59375 67.824219 L 579.269531 91.648438 L 576.945312 115.476562 L 574.621094 91.648438 L 569.976562 91.648438 L 567.652344 115.476562 L 565.328125 91.648438 L 560.683594 91.648438 L 558.359375 115.476562 L 556.035156 91.648438 L 553.710938 67.824219 L 551.386719 67.824219 L 549.0625 91.648438 L 546.742188 67.824219 L 537.445312 67.824219 L 535.125 91.648438 L 532.800781 67.824219 L 530.476562 67.824219 L 528.152344 91.648438 L 525.828125 67.824219 L 523.507812 91.648438 L 504.917969 91.648438 L 502.59375 67.824219 L 500.269531 91.648438 L 497.949219 91.648438 L 495.625 67.824219 L 493.300781 67.824219 L 490.976562 91.648438 L 486.332031 91.648438 L 484.007812 67.824219 L 481.683594 67.824219 L 479.359375 91.648438 L 477.035156 67.824219 L 474.714844 67.824219 L 472.390625 115.476562 L 470.066406 91.648438 L 465.417969 91.648438 L 463.09375 115.476562 L 460.773438 67.824219 L 458.449219 67.824219 L 456.125 91.648438 L 453.800781 67.824219 L 451.476562 115.476562 L 449.15625 115.476562 L 446.832031 91.648438 L 444.507812 67.824219 L 439.859375 67.824219 L 437.539062 91.648438 L 430.566406 91.648438 L 428.242188 67.824219 L 425.921875 67.824219 L 423.597656 91.648438 L 421.273438 91.648438 L 418.949219 67.824219 L 416.625 91.648438 L 414.300781 67.824219 L 411.980469 91.648438 L 409.65625 67.824219 L 407.332031 91.648438 L 405.007812 91.648438 L 402.683594 67.824219 L 398.039062 67.824219 L 395.714844 91.648438 L 393.390625 67.824219 L 391.066406 91.648438 L 388.746094 67.824219 L 386.421875 67.824219 L 384.097656 91.648438 L 381.773438 67.824219 L 379.449219 91.648438 L 377.125 91.648438 L 374.804688 67.824219 L 372.480469 91.648438 L 363.1875 91.648438 L 360.863281 67.824219 L 358.539062 91.648438 L 356.214844 115.476562 L 353.890625 67.824219 L 351.570312 91.648438 L 349.246094 67.824219 L 346.921875 91.648438 L 344.597656 91.648438 L 342.273438 67.824219 L 339.953125 67.824219 L 337.628906 91.648438 L 335.304688 115.476562 L 332.980469 91.648438 L 326.011719 91.648438 L 323.6875 67.824219 L 319.039062 67.824219 L 316.714844 91.648438 L 312.070312 91.648438 L 309.746094 44 L 307.421875 91.648438 L 305.097656 67.824219 L 302.777344 44 L 300.453125 91.648438 L 298.128906 44 L 295.804688 67.824219 L 293.480469 44 L 288.835938 44 L 286.511719 67.824219 L 284.1875 44 L 279.539062 91.648438 L 277.21875 44 L 274.894531 67.824219 L 272.570312 44 L 270.246094 67.824219 L 265.601562 67.824219 L 263.277344 44 L 260.953125 44 L 258.628906 67.824219 L 256.304688 44 L 251.660156 44 L 249.335938 67.824219 L 244.6875 67.824219 L 242.363281 44 L 240.042969 67.824219 L 235.394531 67.824219 L 233.070312 44 L 230.746094 67.824219 L 228.425781 91.648438 L 226.101562 44 L 221.453125 44 L 219.128906 67.824219 L 214.484375 67.824219 L 212.160156 44 L 209.835938 67.824219 L 207.511719 44 L 205.191406 67.824219 L 202.867188 44 L 200.542969 67.824219 L 191.25 67.824219 L 188.925781 44 L 186.601562 44 L 184.277344 67.824219 L 181.953125 44 L 179.632812 67.824219 L 177.308594 67.824219 L 174.984375 44 L 172.660156 67.824219 L 170.335938 44 L 168.015625 67.824219 L 165.691406 67.824219 L 163.367188 44 L 158.71875 44 L 156.398438 67.824219 L 154.074219 44 L 151.75 44 L 149.425781 67.824219 L 147.101562 44 L 144.777344 67.824219 L 142.457031 44 L 140.132812 67.824219 L 137.808594 67.824219 L 135.484375 44 L 133.160156 91.648438 L 130.839844 44 L 128.515625 67.824219 L 126.191406 67.824219 L 123.867188 44 L 121.542969 44 L 119.222656 67.824219 L 112.25 67.824219 L 109.925781 44 L 107.601562 67.824219 L 105.28125 44 L 102.957031 67.824219 L 100.632812 67.824219 L 98.308594 44 L 95.984375 67.824219 L 93.664062 44 L 91.339844 67.824219 L 86.691406 67.824219 L 84.367188 44 L 82.046875 67.824219 L 72.75 67.824219 L 70.429688 44 L 68.105469 67.824219 L 65.78125 44 L 63.457031 44 L 61.132812 67.824219 L 58.808594 67.824219 L 56.488281 44 L 54.164062 67.824219 L 51.839844 44 L 49.515625 44 L 47.191406 67.824219 L 42.546875 67.824219 L 40.222656 44 L 37.898438 67.824219 L 35.574219 44 L 30.929688 44 L 26.28125 91.648438 L 21.632812 44 L 21.632812 234.601562 L 800 234.601562 Z M 800 67.824219 "/>
</g>
<g clip-path="url(#clip6)" clip-rule="nonzero">
<path style="fill:none;stroke-width:2;stroke-linecap:butt;stroke-linejoin:miter;stroke:rgb(9.019608%,58.823529%,95.294118%);stroke-opacity:1;stroke-miterlimit:10;" d="M 800 67.824219 L 795.351562 67.824219 L 793.03125 115.476562 L 790.707031 91.648438 L 788.382812 67.824219 L 786.058594 67.824219 L 783.734375 91.648438 L 779.089844 91.648438 L 776.765625 67.824219 L 774.441406 91.648438 L 772.117188 91.648438 L 769.792969 67.824219 L 767.472656 91.648438 L 765.148438 67.824219 L 762.824219 91.648438 L 760.5 67.824219 L 758.175781 67.824219 L 755.855469 91.648438 L 751.207031 91.648438 L 748.882812 115.476562 L 746.558594 91.648438 L 744.238281 67.824219 L 739.589844 67.824219 L 737.265625 91.648438 L 734.941406 91.648438 L 732.617188 115.476562 L 730.296875 91.648438 L 725.648438 91.648438 L 723.324219 67.824219 L 721 91.648438 L 718.679688 67.824219 L 714.03125 67.824219 L 711.707031 91.648438 L 709.382812 91.648438 L 707.0625 67.824219 L 704.738281 91.648438 L 695.445312 91.648438 L 693.121094 67.824219 L 686.148438 67.824219 L 683.824219 91.648438 L 681.503906 115.476562 L 679.179688 115.476562 L 676.855469 67.824219 L 674.53125 91.648438 L 672.207031 67.824219 L 669.886719 91.648438 L 667.5625 67.824219 L 665.238281 91.648438 L 653.621094 91.648438 L 651.296875 67.824219 L 646.652344 67.824219 L 644.328125 115.476562 L 642.003906 67.824219 L 639.679688 91.648438 L 632.710938 91.648438 L 630.386719 67.824219 L 625.738281 67.824219 L 623.414062 91.648438 L 616.445312 91.648438 L 614.121094 67.824219 L 611.796875 91.648438 L 609.476562 91.648438 L 607.152344 67.824219 L 604.828125 67.824219 L 602.503906 115.476562 L 600.179688 91.648438 L 593.210938 91.648438 L 590.886719 67.824219 L 588.5625 91.648438 L 586.238281 91.648438 L 583.917969 67.824219 L 581.59375 67.824219 L 579.269531 91.648438 L 576.945312 115.476562 L 574.621094 91.648438 L 569.976562 91.648438 L 567.652344 115.476562 L 565.328125 91.648438 L 560.683594 91.648438 L 558.359375 115.476562 L 556.035156 91.648438 L 553.710938 67.824219 L 551.386719 67.824219 L 549.0625 91.648438 L 546.742188 67.824219 L 537.445312 67.824219 L 535.125 91.648438 L 532.800781 67.824219 L 530.476562 67.824219 L 528.152344 91.648438 L 525.828125 67.824219 L 523.507812 91.648438 L 504.917969 91.648438 L 502.59375 67.824219 L 500.269531 91.648438 L 497.949219 91.648438 L 495.625 67.824219 L 493.300781 67.824219 L 490.976562 91.648438 L 486.332031 91.648438 L 484.007812 67.824219 L 481.683594 67.824219 L 479.359375 91.648438 L 477.035156 67.824219 L 474.714844 67.824219 L 472.390625 115.476562 L 470.066406 91.648438 L 465.417969 91.648438 L 463.09375 115.476562 L 460.773438 67.824219 L 458.449219 67.824219 L 456.125 91.648438 L 453.800781 67.824219 L 451.476562 115.476562 L 449.15625 115.476562 L 446.832031 91.648438 L 444.507812 67.824219 L 439.859375 67.824219 L 437.539062 91.648438 L 430.566406 91.648438 L 428.242188 67.824219 L 425.921875 67.824219 L 423.597656 91.648438 L 421.273438 91.648438 L 418.949219 67.824219 L 416.625 91.648438 L 414.300781 67.824219 L 411.980469 91.648438 L 409.65625 67.824219 L 407.332031 91.648438 L 405.007812 91.648438 L 402.683594 67.824219 L 398.039062 67.824219 L 395.714844 91.648438 L 393.390625 67.824219 L 391.066406 91.648438 L 388.746094 67.824219 L 386.421875 67.824219 L 384.097656 91.648438 L 381.773438 67.824219 L 379.449219 91.648438 L 377.125 91.648438 L 374.804688 67.824219 L 372.480469 91.648438 L 363.1875 91.648438 L 360.863281 67.824219 L 358.539062 91.648438 L 356.214844 115.476562 L 353.890625 67.824219 L 351.570312 91.648438 L 349.246094 67.824219 L 346.921875 91.648438 L 344.597656 91.648438 L 342.273438 67.824219 L 339.953125 67.824219 L 337.628906 91.648438 L 335.304688 115.476562 L 332.980469 91.648438 L 326.011719 91.648438 L 323.6875 67.824219 L 319.039062 67.824219 L 316.714844 91.648438 L 312.070312 91.648438 L 309.746094 44 L 307.421875 91.648438 L 305.097656 67.824219 L 302.777344 44 L 300.453125 91.648438 L 298.128906 44 L 295.804688 67.824219 L 293.480469 44 L 288.835938 44 L 286.511719 67.824219 L 284.1875 44 L 279.539062 91.648438 L 277.21875 44 L 274.894531 67.824219 L 272.570312 44 L 270.246094 67.824219 L 265.601562 67.824219 L 263.277344 44 L 260.953125 44 L 258.628906 67.824219 L 256.304688 44 L 251.660156 44 L 249.335938 67.824219 L 244.6875 67.824219 L 242.363281 44 L 240.042969 67.824219 L 235.394531 67.824219 L 233.070312 44 L 230.746094 67.824219 L 228.425781 91.648438 L 226.101562 44 L 221.453125 44 L 219.128906 67.824219 L 214.484375 67.824219 L 212.160156 44 L 209.835938 67.824219 L 207.511719 44 L 205.191406 67.824219 L 202.867188 44 L 200.542969 67.824219 L 191.25 67.824219 L 188.925781 44 L 186.601562 44 L 184.277344 67.824219 L 181.953125 44 L 179.632812 67.824219 L 177.308594 67.824219 L 174.984375 44 L 172.660156 67.824219 L 170.335938 44 L 168.015625 67.824219 L 165.691406 67.824219 L 163.367188 44 L 158.71875 44 L 156.398438 67.824219 L 154.074219 44 L 151.75 44 L 149.425781 67.824219 L 147.101562 44 L 144.777344 67.824219 L 142.457031 44 L 140.132812 67.824219 L 137.808594 67.824219 L 135.484375 44 L 133.160156 91.648438 L 130.839844 44 L 128.515625 67.824219 L 126.191406 67.824219 L 123.867188 44 L 121.542969 44 L 119.222656 67.824219 L 112.25 67.824219 L 109.925781 44 L 107.601562 67.824219 L 105.28125 44 L 102.957031 67.824219 L 100.632812 67.824219 L 98.308594 44 L 95.984375 67.824219 L 93.664062 44 L 91.339844 67.824219 L 86.691406 67.824219 L 84.367188 44 L 82.046875 67.824219 L 72.75 67.824219 L 70.429688 44 L 68.105469 67.824219 L 65.78125 44 L 63.457031 44 L 61.132812 67.824219 L 58.808594 67.824219 L 56.488281 44 L 54.164062 67.824219 L 51.839844 44 L 49.515625 44 L 47.191406 67.824219 L 42.546875 67.824219 L 40.222656 44 L 37.898438 67.824219 L 35.574219 44 L 30.929688 44 L 26.28125 91.648438 L 21.632812 44 "/>
</g>
</g>
</svg>
