<?xml version="1.0" encoding="UTF-8"?>
<svg xmlns="http://www.w3.org/2000/svg" xmlns:xlink="http://www.w3.org/1999/xlink" width="800pt" height="300pt" viewBox="0 0 800 300" version="1.1">
<defs>
<clipPath id="clip1">
  <path d="M 278 263 L 352 263 L 352 300 L 278 300 Z M 278 263 "/>
</clipPath>
<clipPath id="clip2">
  <path d="M 375 263 L 450 263 L 450 300 L 375 300 Z M 375 263 "/>
</clipPath>
<clipPath id="clip3">
  <path d="M 29.269531 89 L 800 89 L 800 234.601562 L 29.269531 234.601562 Z M 29.269531 89 "/>
</clipPath>
<clipPath id="clip4">
  <path d="M 28.269531 60 L 800 60 L 800 235.601562 L 28.269531 235.601562 Z M 28.269531 60 "/>
</clipPath>
<clipPath id="clip5">
  <path d="M 29.269531 203 L 800 203 L 800 234.601562 L 29.269531 234.601562 Z M 29.269531 203 "/>
</clipPath>
<clipPath id="clip6">
  <path d="M 28.269531 175 L 800 175 L 800 235.601562 L 28.269531 235.601562 Z M 28.269531 175 "/>
</clipPath>
</defs>
<g id="surface2379271">
<rect x="0" y="0" width="800" height="300" style="fill:rgb(100%,100%,100%);fill-opacity:1;stroke:none;"/>
<path style="fill:none;stroke-width:1;stroke-linecap:butt;stroke-linejoin:miter;stroke:rgb(0%,0%,0%);stroke-opacity:0.0980392;stroke-miterlimit:10;" d="M 30 234.5 L 800 234.5 "/>
<path style="fill:none;stroke-width:1;stroke-linecap:butt;stroke-linejoin:miter;stroke:rgb(0%,0%,0%);stroke-opacity:0.0980392;stroke-miterlimit:10;" d="M 21.269531 234.5 L 29 234.5 "/>
<path style="fill:none;stroke-width:1;stroke-linecap:butt;stroke-linejoin:miter;stroke:rgb(0%,0%,0%);stroke-opacity:0.0980392;stroke-miterlimit:10;" d="M 30 186.5 L 800 186.5 "/>
<path style="fill:none;stroke-width:1;stroke-linecap:butt;stroke-linejoin:miter;stroke:rgb(0%,0%,0%);stroke-opacity:0.0980392;stroke-miterlimit:10;" d="M 21.269531 186.5 L 29 186.5 "/>
<path style="fill:none;stroke-width:1;stroke-linecap:butt;stroke-linejoin:miter;stroke:rgb(0%,0%,0%);stroke-opacity:0.0980392;stroke-miterlimit:10;" d="M 30 139.5 L 800 139.5 "/>
<path style="fill:none;stroke-width:1;stroke-linecap:butt;stroke-linejoin:miter;stroke:rgb(0%,0%,0%);stroke-opacity:0.0980392;stroke-miterlimit:10;" d="M 21.269531 139.5 L 29 139.5 "/>
<path style="fill:none;stroke-width:1;stroke-linecap:butt;stroke-linejoin:miter;stroke:rgb(0%,0%,0%);stroke-opacity:0.0980392;stroke-miterlimit:10;" d="M 30 91.5 L 800 91.5 "/>
<path style="fill:none;stroke-width:1;stroke-linecap:butt;stroke-linejoin:miter;stroke:rgb(0%,0%,0%);stroke-opacity:0.0980392;stroke-miterlimit:10;" d="M 21.269531 91.5 L 29 91.5 "/>
<path style="fill:none;stroke-width:1;stroke-linecap:butt;stroke-linejoin:miter;stroke:rgb(0%,0%,0%);stroke-opacity:0.0980392;stroke-miterlimit:10;" d="M 30 44.5 L 800 44.5 "/>
<path style="fill:none;stroke-width:1;stroke-linecap:butt;stroke-linejoin:miter;stroke:rgb(0%,0%,0%);stroke-opacity:0.0980392;stroke-miterlimit:10;" d="M 21.269531 44.5 L 29 44.5 "/>
<path style=" stroke:none;fill-rule:nonzero;fill:rgb(9.019608%,58.823529%,95.294118%);fill-opacity:0.6;" d="M 323.488281 284 C 323.488281 288.6875 319.6875 292.484375 315.003906 292.484375 C 310.316406 292.484375 306.519531 288.6875 306.519531 284 C 306.519531 279.3125 310.316406 275.515625 315.003906 275.515625 C 319.6875 275.515625 323.488281 279.3125 323.488281 284 Z M 323.488281 284 "/>
<g clip-path="url(#clip1)" clip-rule="nonzero">
<path style="fill:none;stroke-width:2;stroke-linecap:butt;stroke-linejoin:miter;stroke:rgb(9.019608%,58.823529%,95.294118%);stroke-opacity:1;stroke-miterlimit:10;" d="M 323.488281 284 C 323.488281 288.6875 319.6875 292.484375 315.003906 292.484375 C 310.316406 292.484375 306.519531 288.6875 306.519531 284 C 306.519531 279.3125 310.316406 275.515625 315.003906 275.515625 C 319.6875 275.515625 323.488281 279.3125 323.488281 284 Z M 323.488281 284 "/>
</g>
<path style=" stroke:none;fill-rule:nonzero;fill:rgb(0%,0%,0%);fill-opacity:1;" d="M 330.304688 287.15625 L 332.242188 287.15625 L 332.242188 280.484375 L 330.132812 280.90625 L 330.132812 279.828125 L 332.226562 279.40625 L 333.414062 279.40625 L 333.414062 287.15625 L 335.351562 287.15625 L 335.351562 288.15625 L 330.304688 288.15625 Z M 338.75 287.15625 L 342.890625 287.15625 L 342.890625 288.15625 L 337.328125 288.15625 L 337.328125 287.15625 C 337.773438 286.699219 338.382812 286.078125 339.15625 285.296875 C 339.9375 284.507812 340.425781 283.996094 340.625 283.765625 C 341.007812 283.351562 341.273438 282.996094 341.421875 282.703125 C 341.578125 282.402344 341.65625 282.109375 341.65625 281.828125 C 341.65625 281.359375 341.488281 280.980469 341.15625 280.6875 C 340.832031 280.398438 340.410156 280.25 339.890625 280.25 C 339.515625 280.25 339.117188 280.3125 338.703125 280.4375 C 338.296875 280.5625 337.859375 280.761719 337.390625 281.03125 L 337.390625 279.828125 C 337.867188 279.640625 338.3125 279.5 338.71875 279.40625 C 339.132812 279.304688 339.515625 279.25 339.859375 279.25 C 340.765625 279.25 341.488281 279.480469 342.03125 279.9375 C 342.570312 280.386719 342.84375 280.992188 342.84375 281.75 C 342.84375 282.105469 342.773438 282.445312 342.640625 282.765625 C 342.503906 283.089844 342.257812 283.46875 341.90625 283.90625 C 341.800781 284.023438 341.488281 284.351562 340.96875 284.890625 C 340.445312 285.433594 339.707031 286.1875 338.75 287.15625 Z M 354.324219 279.6875 L 354.324219 280.84375 C 353.875 280.636719 353.449219 280.480469 353.042969 280.375 C 352.644531 280.261719 352.265625 280.203125 351.902344 280.203125 C 351.253906 280.203125 350.753906 280.328125 350.402344 280.578125 C 350.058594 280.828125 349.886719 281.1875 349.886719 281.65625 C 349.886719 282.042969 350 282.335938 350.230469 282.53125 C 350.457031 282.730469 350.902344 282.886719 351.558594 283 L 352.261719 283.15625 C 353.144531 283.324219 353.796875 283.621094 354.214844 284.046875 C 354.640625 284.464844 354.855469 285.027344 354.855469 285.734375 C 354.855469 286.589844 354.566406 287.234375 353.996094 287.671875 C 353.433594 288.109375 352.597656 288.328125 351.496094 288.328125 C 351.089844 288.328125 350.652344 288.28125 350.183594 288.1875 C 349.714844 288.09375 349.230469 287.953125 348.730469 287.765625 L 348.730469 286.546875 C 349.207031 286.820312 349.675781 287.023438 350.136719 287.15625 C 350.605469 287.292969 351.058594 287.359375 351.496094 287.359375 C 352.171875 287.359375 352.691406 287.230469 353.058594 286.96875 C 353.433594 286.699219 353.621094 286.320312 353.621094 285.828125 C 353.621094 285.402344 353.484375 285.070312 353.214844 284.828125 C 352.953125 284.578125 352.519531 284.398438 351.917969 284.28125 L 351.199219 284.140625 C 350.3125 283.964844 349.671875 283.6875 349.277344 283.3125 C 348.890625 282.9375 348.699219 282.417969 348.699219 281.75 C 348.699219 280.96875 348.96875 280.359375 349.511719 279.921875 C 350.050781 279.476562 350.800781 279.25 351.761719 279.25 C 352.175781 279.25 352.59375 279.289062 353.011719 279.359375 C 353.4375 279.433594 353.875 279.542969 354.324219 279.6875 Z M 362.269531 284.609375 L 362.269531 285.125 L 357.300781 285.125 C 357.351562 285.875 357.574219 286.445312 357.972656 286.828125 C 358.378906 287.214844 358.933594 287.40625 359.644531 287.40625 C 360.058594 287.40625 360.460938 287.359375 360.847656 287.265625 C 361.242188 287.164062 361.632812 287.007812 362.019531 286.796875 L 362.019531 287.828125 C 361.621094 287.984375 361.222656 288.105469 360.816406 288.1875 C 360.410156 288.28125 359.996094 288.328125 359.582031 288.328125 C 358.539062 288.328125 357.710938 288.027344 357.097656 287.421875 C 356.480469 286.808594 356.175781 285.980469 356.175781 284.9375 C 356.175781 283.867188 356.464844 283.015625 357.050781 282.390625 C 357.632812 281.757812 358.414062 281.4375 359.394531 281.4375 C 360.277344 281.4375 360.976562 281.726562 361.488281 282.296875 C 362.007812 282.859375 362.269531 283.632812 362.269531 284.609375 Z M 361.191406 284.28125 C 361.179688 283.699219 361.011719 283.230469 360.691406 282.875 C 360.367188 282.523438 359.941406 282.34375 359.410156 282.34375 C 358.804688 282.34375 358.320312 282.515625 357.957031 282.859375 C 357.601562 283.203125 357.398438 283.683594 357.347656 284.296875 Z M 367.839844 282.59375 C 367.714844 282.53125 367.578125 282.484375 367.433594 282.453125 C 367.296875 282.414062 367.140625 282.390625 366.964844 282.390625 C 366.359375 282.390625 365.890625 282.589844 365.558594 282.984375 C 365.234375 283.382812 365.074219 283.953125 365.074219 284.703125 L 365.074219 288.15625 L 363.996094 288.15625 L 363.996094 281.59375 L 365.074219 281.59375 L 365.074219 282.609375 C 365.300781 282.214844 365.597656 281.921875 365.964844 281.734375 C 366.328125 281.539062 366.769531 281.4375 367.292969 281.4375 C 367.363281 281.4375 367.441406 281.445312 367.527344 281.453125 C 367.621094 281.464844 367.71875 281.480469 367.824219 281.5 Z M 368.195312 281.59375 L 369.335938 281.59375 L 371.382812 287.09375 L 373.445312 281.59375 L 374.585938 281.59375 L 372.117188 288.15625 L 370.648438 288.15625 Z M 381.6875 284.609375 L 381.6875 285.125 L 376.71875 285.125 C 376.769531 285.875 376.992188 286.445312 377.390625 286.828125 C 377.796875 287.214844 378.351562 287.40625 379.0625 287.40625 C 379.476562 287.40625 379.878906 287.359375 380.265625 287.265625 C 380.660156 287.164062 381.050781 287.007812 381.4375 286.796875 L 381.4375 287.828125 C 381.039062 287.984375 380.640625 288.105469 380.234375 288.1875 C 379.828125 288.28125 379.414062 288.328125 379 288.328125 C 377.957031 288.328125 377.128906 288.027344 376.515625 287.421875 C 375.898438 286.808594 375.59375 285.980469 375.59375 284.9375 C 375.59375 283.867188 375.882812 283.015625 376.46875 282.390625 C 377.050781 281.757812 377.832031 281.4375 378.8125 281.4375 C 379.695312 281.4375 380.394531 281.726562 380.90625 282.296875 C 381.425781 282.859375 381.6875 283.632812 381.6875 284.609375 Z M 380.609375 284.28125 C 380.597656 283.699219 380.429688 283.230469 380.109375 282.875 C 379.785156 282.523438 379.359375 282.34375 378.828125 282.34375 C 378.222656 282.34375 377.738281 282.515625 377.375 282.859375 C 377.019531 283.203125 376.816406 283.683594 376.765625 284.296875 Z M 387.257812 282.59375 C 387.132812 282.53125 386.996094 282.484375 386.851562 282.453125 C 386.714844 282.414062 386.558594 282.390625 386.382812 282.390625 C 385.777344 282.390625 385.308594 282.589844 384.976562 282.984375 C 384.652344 283.382812 384.492188 283.953125 384.492188 284.703125 L 384.492188 288.15625 L 383.414062 288.15625 L 383.414062 281.59375 L 384.492188 281.59375 L 384.492188 282.609375 C 384.71875 282.214844 385.015625 281.921875 385.382812 281.734375 C 385.746094 281.539062 386.1875 281.4375 386.710938 281.4375 C 386.78125 281.4375 386.859375 281.445312 386.945312 281.453125 C 387.039062 281.464844 387.136719 281.480469 387.242188 281.5 Z M 392.566406 281.78125 L 392.566406 282.8125 C 392.261719 282.65625 391.945312 282.542969 391.613281 282.46875 C 391.289062 282.386719 390.949219 282.34375 390.597656 282.34375 C 390.066406 282.34375 389.664062 282.429688 389.394531 282.59375 C 389.121094 282.75 388.988281 282.996094 388.988281 283.328125 C 388.988281 283.578125 389.082031 283.777344 389.269531 283.921875 C 389.464844 284.058594 389.855469 284.1875 390.441406 284.3125 L 390.800781 284.40625 C 391.570312 284.5625 392.117188 284.792969 392.441406 285.09375 C 392.761719 285.398438 392.925781 285.8125 392.925781 286.34375 C 392.925781 286.960938 392.679688 287.445312 392.191406 287.796875 C 391.710938 288.152344 391.050781 288.328125 390.207031 288.328125 C 389.851562 288.328125 389.480469 288.289062 389.097656 288.21875 C 388.722656 288.15625 388.324219 288.058594 387.910156 287.921875 L 387.910156 286.796875 C 388.304688 287.007812 388.695312 287.164062 389.082031 287.265625 C 389.464844 287.371094 389.851562 287.421875 390.238281 287.421875 C 390.738281 287.421875 391.121094 287.339844 391.394531 287.171875 C 391.675781 286.996094 391.816406 286.746094 391.816406 286.421875 C 391.816406 286.132812 391.714844 285.90625 391.519531 285.75 C 391.320312 285.59375 390.886719 285.445312 390.222656 285.296875 L 389.847656 285.21875 C 389.179688 285.074219 388.695312 284.855469 388.394531 284.5625 C 388.101562 284.273438 387.957031 283.875 387.957031 283.375 C 387.957031 282.75 388.175781 282.273438 388.613281 281.9375 C 389.050781 281.605469 389.667969 281.4375 390.472656 281.4375 C 390.867188 281.4375 391.242188 281.46875 391.597656 281.53125 C 391.949219 281.585938 392.273438 281.667969 392.566406 281.78125 Z M 325.003906 277.015625 "/>
<path style=" stroke:none;fill-rule:nonzero;fill:rgb(96.862745%,44.705882%,40.784314%);fill-opacity:1;" d="M 420.988281 284 C 420.988281 288.6875 417.191406 292.484375 412.503906 292.484375 C 407.820312 292.484375 404.019531 288.6875 404.019531 284 C 404.019531 279.3125 407.820312 275.515625 412.503906 275.515625 C 417.191406 275.515625 420.988281 279.3125 420.988281 284 Z M 420.988281 284 "/>
<g clip-path="url(#clip2)" clip-rule="nonzero">
<path style="fill:none;stroke-width:2;stroke-linecap:butt;stroke-linejoin:miter;stroke:rgb(100%,4.705882%,0%);stroke-opacity:0.247059;stroke-miterlimit:10;" d="M 420.988281 284 C 420.988281 288.6875 417.191406 292.484375 412.503906 292.484375 C 407.820312 292.484375 404.019531 288.6875 404.019531 284 C 404.019531 279.3125 407.820312 275.515625 412.503906 275.515625 C 417.191406 275.515625 420.988281 279.3125 420.988281 284 Z M 420.988281 284 "/>
</g>
<path style=" stroke:none;fill-rule:nonzero;fill:rgb(0%,0%,0%);fill-opacity:1;" d="M 431.195312 283.4375 C 431.757812 283.5625 432.195312 283.820312 432.507812 284.203125 C 432.828125 284.578125 432.992188 285.046875 432.992188 285.609375 C 432.992188 286.476562 432.695312 287.148438 432.101562 287.625 C 431.507812 288.09375 430.664062 288.328125 429.570312 288.328125 C 429.203125 288.328125 428.824219 288.289062 428.429688 288.21875 C 428.042969 288.148438 427.648438 288.039062 427.242188 287.890625 L 427.242188 286.75 C 427.5625 286.9375 427.917969 287.085938 428.304688 287.1875 C 428.699219 287.28125 429.109375 287.328125 429.539062 287.328125 C 430.277344 287.328125 430.839844 287.183594 431.226562 286.890625 C 431.621094 286.601562 431.820312 286.171875 431.820312 285.609375 C 431.820312 285.101562 431.636719 284.699219 431.273438 284.40625 C 430.90625 284.117188 430.40625 283.96875 429.773438 283.96875 L 428.742188 283.96875 L 428.742188 283 L 429.820312 283 C 430.390625 283 430.835938 282.886719 431.148438 282.65625 C 431.460938 282.417969 431.617188 282.078125 431.617188 281.640625 C 431.617188 281.195312 431.453125 280.851562 431.132812 280.609375 C 430.820312 280.371094 430.367188 280.25 429.773438 280.25 C 429.4375 280.25 429.085938 280.289062 428.710938 280.359375 C 428.34375 280.421875 427.9375 280.527344 427.492188 280.671875 L 427.492188 279.625 C 427.949219 279.5 428.371094 279.40625 428.757812 279.34375 C 429.152344 279.28125 429.523438 279.25 429.867188 279.25 C 430.773438 279.25 431.484375 279.453125 432.007812 279.859375 C 432.527344 280.265625 432.789062 280.820312 432.789062 281.515625 C 432.789062 282.007812 432.648438 282.417969 432.367188 282.75 C 432.09375 283.085938 431.703125 283.3125 431.195312 283.4375 Z M 438.828125 283.4375 C 439.390625 283.5625 439.828125 283.820312 440.140625 284.203125 C 440.460938 284.578125 440.625 285.046875 440.625 285.609375 C 440.625 286.476562 440.328125 287.148438 439.734375 287.625 C 439.140625 288.09375 438.296875 288.328125 437.203125 288.328125 C 436.835938 288.328125 436.457031 288.289062 436.0625 288.21875 C 435.675781 288.148438 435.28125 288.039062 434.875 287.890625 L 434.875 286.75 C 435.195312 286.9375 435.550781 287.085938 435.9375 287.1875 C 436.332031 287.28125 436.742188 287.328125 437.171875 287.328125 C 437.910156 287.328125 438.472656 287.183594 438.859375 286.890625 C 439.253906 286.601562 439.453125 286.171875 439.453125 285.609375 C 439.453125 285.101562 439.269531 284.699219 438.90625 284.40625 C 438.539062 284.117188 438.039062 283.96875 437.40625 283.96875 L 436.375 283.96875 L 436.375 283 L 437.453125 283 C 438.023438 283 438.46875 282.886719 438.78125 282.65625 C 439.09375 282.417969 439.25 282.078125 439.25 281.640625 C 439.25 281.195312 439.085938 280.851562 438.765625 280.609375 C 438.453125 280.371094 438 280.25 437.40625 280.25 C 437.070312 280.25 436.71875 280.289062 436.34375 280.359375 C 435.976562 280.421875 435.570312 280.527344 435.125 280.671875 L 435.125 279.625 C 435.582031 279.5 436.003906 279.40625 436.390625 279.34375 C 436.785156 279.28125 437.15625 279.25 437.5 279.25 C 438.40625 279.25 439.117188 279.453125 439.640625 279.859375 C 440.160156 280.265625 440.421875 280.820312 440.421875 281.515625 C 440.421875 282.007812 440.28125 282.417969 440 282.75 C 439.726562 283.085938 439.335938 283.3125 438.828125 283.4375 Z M 447.761719 280.375 L 447.761719 283.671875 L 449.246094 283.671875 C 449.796875 283.671875 450.222656 283.53125 450.527344 283.25 C 450.828125 282.960938 450.980469 282.546875 450.980469 282.015625 C 450.980469 281.496094 450.828125 281.09375 450.527344 280.8125 C 450.222656 280.523438 449.796875 280.375 449.246094 280.375 Z M 446.574219 279.40625 L 449.246094 279.40625 C 450.234375 279.40625 450.980469 279.632812 451.480469 280.078125 C 451.980469 280.515625 452.230469 281.164062 452.230469 282.015625 C 452.230469 282.882812 451.980469 283.539062 451.480469 283.984375 C 450.980469 284.421875 450.234375 284.640625 449.246094 284.640625 L 447.761719 284.640625 L 447.761719 288.15625 L 446.574219 288.15625 Z M 453.765625 279.03125 L 454.84375 279.03125 L 454.84375 288.15625 L 453.765625 288.15625 Z M 460.082031 284.859375 C 459.214844 284.859375 458.613281 284.960938 458.269531 285.15625 C 457.933594 285.355469 457.769531 285.695312 457.769531 286.171875 C 457.769531 286.558594 457.894531 286.867188 458.144531 287.09375 C 458.402344 287.3125 458.746094 287.421875 459.175781 287.421875 C 459.777344 287.421875 460.257812 287.214844 460.613281 286.796875 C 460.976562 286.371094 461.160156 285.804688 461.160156 285.09375 L 461.160156 284.859375 Z M 462.238281 284.40625 L 462.238281 288.15625 L 461.160156 288.15625 L 461.160156 287.15625 C 460.910156 287.554688 460.601562 287.851562 460.238281 288.046875 C 459.871094 288.234375 459.425781 288.328125 458.894531 288.328125 C 458.214844 288.328125 457.679688 288.140625 457.285156 287.765625 C 456.886719 287.382812 456.691406 286.875 456.691406 286.25 C 456.691406 285.511719 456.933594 284.953125 457.425781 284.578125 C 457.925781 284.203125 458.664062 284.015625 459.644531 284.015625 L 461.160156 284.015625 L 461.160156 283.90625 C 461.160156 283.40625 460.992188 283.023438 460.660156 282.75 C 460.335938 282.480469 459.882812 282.34375 459.300781 282.34375 C 458.925781 282.34375 458.554688 282.390625 458.191406 282.484375 C 457.835938 282.578125 457.496094 282.714844 457.175781 282.890625 L 457.175781 281.890625 C 457.570312 281.734375 457.949219 281.621094 458.316406 281.546875 C 458.691406 281.476562 459.054688 281.4375 459.410156 281.4375 C 460.355469 281.4375 461.066406 281.683594 461.535156 282.171875 C 462.003906 282.664062 462.238281 283.40625 462.238281 284.40625 Z M 467.1875 288.765625 C 466.882812 289.546875 466.585938 290.054688 466.296875 290.296875 C 466.003906 290.535156 465.617188 290.65625 465.140625 290.65625 L 464.28125 290.65625 L 464.28125 289.75 L 464.90625 289.75 C 465.207031 289.75 465.4375 289.675781 465.59375 289.53125 C 465.757812 289.394531 465.941406 289.066406 466.140625 288.546875 L 466.34375 288.046875 L 463.6875 281.59375 L 464.828125 281.59375 L 466.875 286.71875 L 468.9375 281.59375 L 470.078125 281.59375 Z M 477.179688 284.609375 L 477.179688 285.125 L 472.210938 285.125 C 472.261719 285.875 472.484375 286.445312 472.882812 286.828125 C 473.289062 287.214844 473.84375 287.40625 474.554688 287.40625 C 474.96875 287.40625 475.371094 287.359375 475.757812 287.265625 C 476.152344 287.164062 476.542969 287.007812 476.929688 286.796875 L 476.929688 287.828125 C 476.53125 287.984375 476.132812 288.105469 475.726562 288.1875 C 475.320312 288.28125 474.90625 288.328125 474.492188 288.328125 C 473.449219 288.328125 472.621094 288.027344 472.007812 287.421875 C 471.390625 286.808594 471.085938 285.980469 471.085938 284.9375 C 471.085938 283.867188 471.375 283.015625 471.960938 282.390625 C 472.542969 281.757812 473.324219 281.4375 474.304688 281.4375 C 475.1875 281.4375 475.886719 281.726562 476.398438 282.296875 C 476.917969 282.859375 477.179688 283.632812 477.179688 284.609375 Z M 476.101562 284.28125 C 476.089844 283.699219 475.921875 283.230469 475.601562 282.875 C 475.277344 282.523438 474.851562 282.34375 474.320312 282.34375 C 473.714844 282.34375 473.230469 282.515625 472.867188 282.859375 C 472.511719 283.203125 472.308594 283.683594 472.257812 284.296875 Z M 482.75 282.59375 C 482.625 282.53125 482.488281 282.484375 482.34375 282.453125 C 482.207031 282.414062 482.050781 282.390625 481.875 282.390625 C 481.269531 282.390625 480.800781 282.589844 480.46875 282.984375 C 480.144531 283.382812 479.984375 283.953125 479.984375 284.703125 L 479.984375 288.15625 L 478.90625 288.15625 L 478.90625 281.59375 L 479.984375 281.59375 L 479.984375 282.609375 C 480.210938 282.214844 480.507812 281.921875 480.875 281.734375 C 481.238281 281.539062 481.679688 281.4375 482.203125 281.4375 C 482.273438 281.4375 482.351562 281.445312 482.4375 281.453125 C 482.53125 281.464844 482.628906 281.480469 482.734375 281.5 Z M 488.054688 281.78125 L 488.054688 282.8125 C 487.75 282.65625 487.433594 282.542969 487.101562 282.46875 C 486.777344 282.386719 486.4375 282.34375 486.085938 282.34375 C 485.554688 282.34375 485.152344 282.429688 484.882812 282.59375 C 484.609375 282.75 484.476562 282.996094 484.476562 283.328125 C 484.476562 283.578125 484.570312 283.777344 484.757812 283.921875 C 484.953125 284.058594 485.34375 284.1875 485.929688 284.3125 L 486.289062 284.40625 C 487.058594 284.5625 487.605469 284.792969 487.929688 285.09375 C 488.25 285.398438 488.414062 285.8125 488.414062 286.34375 C 488.414062 286.960938 488.167969 287.445312 487.679688 287.796875 C 487.199219 288.152344 486.539062 288.328125 485.695312 288.328125 C 485.339844 288.328125 484.96875 288.289062 484.585938 288.21875 C 484.210938 288.15625 483.8125 288.058594 483.398438 287.921875 L 483.398438 286.796875 C 483.792969 287.007812 484.183594 287.164062 484.570312 287.265625 C 484.953125 287.371094 485.339844 287.421875 485.726562 287.421875 C 486.226562 287.421875 486.609375 287.339844 486.882812 287.171875 C 487.164062 286.996094 487.304688 286.746094 487.304688 286.421875 C 487.304688 286.132812 487.203125 285.90625 487.007812 285.75 C 486.808594 285.59375 486.375 285.445312 485.710938 285.296875 L 485.335938 285.21875 C 484.667969 285.074219 484.183594 284.855469 483.882812 284.5625 C 483.589844 284.273438 483.445312 283.875 483.445312 283.375 C 483.445312 282.75 483.664062 282.273438 484.101562 281.9375 C 484.539062 281.605469 485.15625 281.4375 485.960938 281.4375 C 486.355469 281.4375 486.730469 281.46875 487.085938 281.53125 C 487.4375 281.585938 487.761719 281.667969 488.054688 281.78125 Z M 422.503906 277.015625 "/>
<path style=" stroke:none;fill-rule:nonzero;fill:rgb(26.666667%,26.666667%,26.666667%);fill-opacity:1;" d="M 269.84375 14.34375 L 274.625 14.34375 L 277.9375 22.140625 L 281.28125 14.34375 L 286.0625 14.34375 L 286.0625 28.921875 L 282.5 28.921875 L 282.5 18.25 L 279.140625 26.125 L 276.765625 26.125 L 273.40625 18.25 L 273.40625 28.921875 L 269.84375 28.921875 Z M 294.480469 24 C 293.75 24 293.203125 24.125 292.839844 24.375 C 292.472656 24.617188 292.292969 24.980469 292.292969 25.46875 C 292.292969 25.90625 292.4375 26.25 292.730469 26.5 C 293.03125 26.75 293.441406 26.875 293.964844 26.875 C 294.621094 26.875 295.171875 26.640625 295.621094 26.171875 C 296.078125 25.703125 296.308594 25.117188 296.308594 24.40625 L 296.308594 24 Z M 299.824219 22.6875 L 299.824219 28.921875 L 296.308594 28.921875 L 296.308594 27.296875 C 295.839844 27.964844 295.308594 28.449219 294.714844 28.75 C 294.128906 29.050781 293.417969 29.203125 292.574219 29.203125 C 291.449219 29.203125 290.53125 28.875 289.824219 28.21875 C 289.113281 27.554688 288.761719 26.695312 288.761719 25.640625 C 288.761719 24.359375 289.199219 23.421875 290.074219 22.828125 C 290.957031 22.226562 292.347656 21.921875 294.246094 21.921875 L 296.308594 21.921875 L 296.308594 21.640625 C 296.308594 21.089844 296.089844 20.6875 295.652344 20.4375 C 295.214844 20.179688 294.53125 20.046875 293.605469 20.046875 C 292.855469 20.046875 292.15625 20.125 291.511719 20.28125 C 290.863281 20.429688 290.265625 20.648438 289.714844 20.9375 L 289.714844 18.28125 C 290.464844 18.09375 291.214844 17.953125 291.964844 17.859375 C 292.722656 17.765625 293.484375 17.71875 294.246094 17.71875 C 296.214844 17.71875 297.636719 18.109375 298.511719 18.890625 C 299.386719 19.664062 299.824219 20.929688 299.824219 22.6875 Z M 310.523438 27.0625 C 310.042969 27.699219 309.511719 28.167969 308.929688 28.46875 C 308.34375 28.773438 307.671875 28.921875 306.914062 28.921875 C 305.578125 28.921875 304.476562 28.398438 303.601562 27.34375 C 302.734375 26.292969 302.304688 24.953125 302.304688 23.328125 C 302.304688 21.695312 302.734375 20.355469 303.601562 19.3125 C 304.476562 18.261719 305.578125 17.734375 306.914062 17.734375 C 307.671875 17.734375 308.34375 17.886719 308.929688 18.1875 C 309.511719 18.492188 310.042969 18.964844 310.523438 19.609375 L 310.523438 17.984375 L 314.039062 17.984375 L 314.039062 27.8125 C 314.039062 29.570312 313.480469 30.914062 312.367188 31.84375 C 311.261719 32.769531 309.652344 33.234375 307.539062 33.234375 C 306.859375 33.234375 306.199219 33.179688 305.554688 33.078125 C 304.917969 32.972656 304.277344 32.816406 303.632812 32.609375 L 303.632812 29.875 C 304.246094 30.226562 304.84375 30.488281 305.429688 30.65625 C 306.011719 30.832031 306.601562 30.921875 307.195312 30.921875 C 308.339844 30.921875 309.179688 30.671875 309.710938 30.171875 C 310.25 29.671875 310.523438 28.886719 310.523438 27.8125 Z M 308.210938 20.265625 C 307.492188 20.265625 306.929688 20.53125 306.523438 21.0625 C 306.117188 21.59375 305.914062 22.351562 305.914062 23.328125 C 305.914062 24.328125 306.105469 25.089844 306.492188 25.609375 C 306.886719 26.121094 307.460938 26.375 308.210938 26.375 C 308.9375 26.375 309.507812 26.109375 309.914062 25.578125 C 310.320312 25.046875 310.523438 24.296875 310.523438 23.328125 C 310.523438 22.351562 310.320312 21.59375 309.914062 21.0625 C 309.507812 20.53125 308.9375 20.265625 308.210938 20.265625 Z M 317.402344 17.984375 L 320.886719 17.984375 L 320.886719 28.921875 L 317.402344 28.921875 Z M 317.402344 13.71875 L 320.886719 13.71875 L 320.886719 16.578125 L 317.402344 16.578125 Z M 333.085938 18.328125 L 333.085938 21.171875 C 332.617188 20.851562 332.140625 20.609375 331.664062 20.453125 C 331.183594 20.296875 330.683594 20.21875 330.164062 20.21875 C 329.195312 20.21875 328.433594 20.507812 327.882812 21.078125 C 327.339844 21.640625 327.070312 22.4375 327.070312 23.46875 C 327.070312 24.492188 327.339844 25.289062 327.882812 25.859375 C 328.433594 26.421875 329.195312 26.703125 330.164062 26.703125 C 330.714844 26.703125 331.234375 26.625 331.726562 26.46875 C 332.214844 26.304688 332.667969 26.058594 333.085938 25.734375 L 333.085938 28.59375 C 332.542969 28.804688 331.992188 28.953125 331.429688 29.046875 C 330.867188 29.148438 330.296875 29.203125 329.726562 29.203125 C 327.757812 29.203125 326.214844 28.699219 325.101562 27.6875 C 323.984375 26.679688 323.429688 25.273438 323.429688 23.46875 C 323.429688 21.65625 323.984375 20.246094 325.101562 19.234375 C 326.214844 18.226562 327.757812 17.71875 329.726562 17.71875 C 330.296875 17.71875 330.859375 17.773438 331.414062 17.875 C 331.976562 17.96875 332.53125 18.121094 333.085938 18.328125 Z M 341.003906 24 C 340.273438 24 339.726562 24.125 339.363281 24.375 C 338.996094 24.617188 338.816406 24.980469 338.816406 25.46875 C 338.816406 25.90625 338.960938 26.25 339.253906 26.5 C 339.554688 26.75 339.964844 26.875 340.488281 26.875 C 341.144531 26.875 341.695312 26.640625 342.144531 26.171875 C 342.601562 25.703125 342.832031 25.117188 342.832031 24.40625 L 342.832031 24 Z M 346.347656 22.6875 L 346.347656 28.921875 L 342.832031 28.921875 L 342.832031 27.296875 C 342.363281 27.964844 341.832031 28.449219 341.238281 28.75 C 340.652344 29.050781 339.941406 29.203125 339.097656 29.203125 C 337.972656 29.203125 337.054688 28.875 336.347656 28.21875 C 335.636719 27.554688 335.285156 26.695312 335.285156 25.640625 C 335.285156 24.359375 335.722656 23.421875 336.597656 22.828125 C 337.480469 22.226562 338.871094 21.921875 340.769531 21.921875 L 342.832031 21.921875 L 342.832031 21.640625 C 342.832031 21.089844 342.613281 20.6875 342.175781 20.4375 C 341.738281 20.179688 341.054688 20.046875 340.128906 20.046875 C 339.378906 20.046875 338.679688 20.125 338.035156 20.28125 C 337.386719 20.429688 336.789062 20.648438 336.238281 20.9375 L 336.238281 18.28125 C 336.988281 18.09375 337.738281 17.953125 338.488281 17.859375 C 339.246094 17.765625 340.007812 17.71875 340.769531 17.71875 C 342.738281 17.71875 344.160156 18.109375 345.035156 18.890625 C 345.910156 19.664062 346.347656 20.929688 346.347656 22.6875 Z M 349.609375 13.71875 L 353.09375 13.71875 L 353.09375 28.921875 L 349.609375 28.921875 Z M 356.621094 14.34375 L 366.761719 14.34375 L 366.761719 17.1875 L 360.371094 17.1875 L 360.371094 19.890625 L 366.386719 19.890625 L 366.386719 22.734375 L 360.371094 22.734375 L 360.371094 26.078125 L 366.980469 26.078125 L 366.980469 28.921875 L 356.621094 28.921875 Z M 368.734375 17.984375 L 372.234375 17.984375 L 374.96875 25.546875 L 377.671875 17.984375 L 381.1875 17.984375 L 376.875 28.921875 L 373.03125 28.921875 Z M 394.070312 23.421875 L 394.070312 24.421875 L 385.898438 24.421875 C 385.980469 25.246094 386.277344 25.859375 386.789062 26.265625 C 387.296875 26.671875 388.007812 26.875 388.914062 26.875 C 389.652344 26.875 390.40625 26.765625 391.179688 26.546875 C 391.949219 26.328125 392.742188 26 393.554688 25.5625 L 393.554688 28.25 C 392.730469 28.5625 391.902344 28.796875 391.070312 28.953125 C 390.246094 29.117188 389.421875 29.203125 388.601562 29.203125 C 386.621094 29.203125 385.078125 28.703125 383.976562 27.703125 C 382.882812 26.695312 382.335938 25.28125 382.335938 23.46875 C 382.335938 21.679688 382.871094 20.273438 383.945312 19.25 C 385.027344 18.230469 386.511719 17.71875 388.398438 17.71875 C 390.117188 17.71875 391.492188 18.242188 392.523438 19.28125 C 393.554688 20.3125 394.070312 21.695312 394.070312 23.421875 Z M 390.476562 22.265625 C 390.476562 21.601562 390.28125 21.0625 389.898438 20.65625 C 389.511719 20.25 389.007812 20.046875 388.382812 20.046875 C 387.703125 20.046875 387.152344 20.242188 386.726562 20.625 C 386.308594 21 386.046875 21.546875 385.945312 22.265625 Z M 407.710938 22.265625 L 407.710938 28.921875 L 404.195312 28.921875 L 404.195312 23.828125 C 404.195312 22.882812 404.171875 22.230469 404.132812 21.875 C 404.089844 21.511719 404.015625 21.246094 403.914062 21.078125 C 403.777344 20.851562 403.589844 20.671875 403.351562 20.546875 C 403.121094 20.421875 402.855469 20.359375 402.554688 20.359375 C 401.824219 20.359375 401.25 20.640625 400.835938 21.203125 C 400.417969 21.765625 400.210938 22.546875 400.210938 23.546875 L 400.210938 28.921875 L 396.726562 28.921875 L 396.726562 17.984375 L 400.210938 17.984375 L 400.210938 19.578125 C 400.742188 18.945312 401.304688 18.476562 401.898438 18.171875 C 402.492188 17.871094 403.140625 17.71875 403.851562 17.71875 C 405.121094 17.71875 406.078125 18.109375 406.726562 18.890625 C 407.382812 19.664062 407.710938 20.789062 407.710938 22.265625 Z M 414.78125 14.875 L 414.78125 17.984375 L 418.390625 17.984375 L 418.390625 20.484375 L 414.78125 20.484375 L 414.78125 25.125 C 414.78125 25.636719 414.878906 25.980469 415.078125 26.15625 C 415.285156 26.335938 415.6875 26.421875 416.28125 26.421875 L 418.078125 26.421875 L 418.078125 28.921875 L 415.078125 28.921875 C 413.703125 28.921875 412.722656 28.636719 412.140625 28.0625 C 411.566406 27.480469 411.28125 26.5 411.28125 25.125 L 411.28125 20.484375 L 409.546875 20.484375 L 409.546875 17.984375 L 411.28125 17.984375 L 411.28125 14.875 Z M 429.058594 18.328125 L 429.058594 20.984375 C 428.316406 20.671875 427.597656 20.4375 426.902344 20.28125 C 426.203125 20.125 425.542969 20.046875 424.917969 20.046875 C 424.261719 20.046875 423.769531 20.132812 423.449219 20.296875 C 423.125 20.464844 422.964844 20.71875 422.964844 21.0625 C 422.964844 21.34375 423.082031 21.558594 423.324219 21.703125 C 423.574219 21.851562 424.011719 21.960938 424.636719 22.03125 L 425.261719 22.125 C 427.050781 22.355469 428.253906 22.730469 428.871094 23.25 C 429.484375 23.773438 429.792969 24.589844 429.792969 25.703125 C 429.792969 26.871094 429.359375 27.746094 428.496094 28.328125 C 427.640625 28.914062 426.363281 29.203125 424.667969 29.203125 C 423.9375 29.203125 423.1875 29.144531 422.417969 29.03125 C 421.644531 28.917969 420.855469 28.746094 420.042969 28.515625 L 420.042969 25.859375 C 420.738281 26.203125 421.453125 26.460938 422.183594 26.625 C 422.910156 26.792969 423.65625 26.875 424.417969 26.875 C 425.105469 26.875 425.621094 26.78125 425.964844 26.59375 C 426.308594 26.40625 426.480469 26.125 426.480469 25.75 C 426.480469 25.4375 426.359375 25.210938 426.121094 25.0625 C 425.878906 24.90625 425.40625 24.789062 424.699219 24.703125 L 424.089844 24.625 C 422.527344 24.429688 421.433594 24.070312 420.808594 23.546875 C 420.183594 23.015625 419.871094 22.214844 419.871094 21.140625 C 419.871094 19.984375 420.265625 19.125 421.058594 18.5625 C 421.859375 18 423.078125 17.71875 424.714844 17.71875 C 425.359375 17.71875 426.035156 17.773438 426.746094 17.875 C 427.453125 17.96875 428.222656 18.121094 429.058594 18.328125 Z M 445.207031 26.671875 C 445.957031 26.671875 446.527344 26.402344 446.925781 25.859375 C 447.320312 25.308594 447.519531 24.511719 447.519531 23.46875 C 447.519531 22.429688 447.320312 21.636719 446.925781 21.09375 C 446.527344 20.542969 445.957031 20.265625 445.207031 20.265625 C 444.457031 20.265625 443.878906 20.542969 443.472656 21.09375 C 443.074219 21.636719 442.878906 22.429688 442.878906 23.46875 C 442.878906 24.5 443.074219 25.292969 443.472656 25.84375 C 443.878906 26.398438 444.457031 26.671875 445.207031 26.671875 Z M 442.878906 19.578125 C 443.367188 18.945312 443.902344 18.476562 444.488281 18.171875 C 445.070312 17.871094 445.742188 17.71875 446.503906 17.71875 C 447.855469 17.71875 448.964844 18.257812 449.832031 19.328125 C 450.695312 20.402344 451.128906 21.78125 451.128906 23.46875 C 451.128906 25.148438 450.695312 26.523438 449.832031 27.59375 C 448.964844 28.667969 447.855469 29.203125 446.503906 29.203125 C 445.742188 29.203125 445.070312 29.050781 444.488281 28.75 C 443.902344 28.449219 443.367188 27.980469 442.878906 27.34375 L 442.878906 28.921875 L 439.394531 28.921875 L 439.394531 13.71875 L 442.878906 13.71875 Z M 452.273438 17.984375 L 455.757812 17.984375 L 458.710938 25.40625 L 461.210938 17.984375 L 464.695312 17.984375 L 460.101562 29.953125 C 459.640625 31.171875 459.101562 32.019531 458.476562 32.5 C 457.859375 32.988281 457.054688 33.234375 456.054688 33.234375 L 454.023438 33.234375 L 454.023438 30.9375 L 455.117188 30.9375 C 455.710938 30.9375 456.140625 30.84375 456.414062 30.65625 C 456.683594 30.46875 456.890625 30.128906 457.039062 29.640625 L 457.148438 29.34375 Z M 473.710938 17.984375 L 477.195312 17.984375 L 477.195312 28.921875 L 473.710938 28.921875 Z M 473.710938 13.71875 L 477.195312 13.71875 L 477.195312 16.578125 L 473.710938 16.578125 Z M 490.863281 14.796875 L 490.863281 17.890625 C 490.058594 17.527344 489.277344 17.257812 488.519531 17.078125 C 487.757812 16.890625 487.039062 16.796875 486.363281 16.796875 C 485.464844 16.796875 484.800781 16.921875 484.363281 17.171875 C 483.933594 17.421875 483.722656 17.808594 483.722656 18.328125 C 483.722656 18.714844 483.867188 19.015625 484.160156 19.234375 C 484.449219 19.453125 484.976562 19.640625 485.738281 19.796875 L 487.332031 20.125 C 488.957031 20.449219 490.105469 20.945312 490.785156 21.609375 C 491.472656 22.277344 491.816406 23.21875 491.816406 24.4375 C 491.816406 26.042969 491.335938 27.242188 490.378906 28.03125 C 489.429688 28.8125 487.976562 29.203125 486.019531 29.203125 C 485.089844 29.203125 484.160156 29.113281 483.222656 28.9375 C 482.292969 28.761719 481.367188 28.5 480.441406 28.15625 L 480.441406 24.984375 C 481.367188 25.484375 482.261719 25.859375 483.128906 26.109375 C 484.003906 26.359375 484.847656 26.484375 485.660156 26.484375 C 486.480469 26.484375 487.105469 26.351562 487.535156 26.078125 C 487.972656 25.796875 488.191406 25.402344 488.191406 24.890625 C 488.191406 24.445312 488.039062 24.09375 487.738281 23.84375 C 487.445312 23.59375 486.855469 23.371094 485.972656 23.171875 L 484.519531 22.859375 C 483.058594 22.546875 481.992188 22.054688 481.316406 21.375 C 480.648438 20.6875 480.316406 19.761719 480.316406 18.59375 C 480.316406 17.148438 480.785156 16.03125 481.722656 15.25 C 482.660156 14.46875 484.007812 14.078125 485.769531 14.078125 C 486.570312 14.078125 487.394531 14.140625 488.238281 14.265625 C 489.082031 14.382812 489.957031 14.558594 490.863281 14.796875 Z M 499.859375 24 C 499.128906 24 498.582031 24.125 498.21875 24.375 C 497.851562 24.617188 497.671875 24.980469 497.671875 25.46875 C 497.671875 25.90625 497.816406 26.25 498.109375 26.5 C 498.410156 26.75 498.820312 26.875 499.34375 26.875 C 500 26.875 500.550781 26.640625 501 26.171875 C 501.457031 25.703125 501.6875 25.117188 501.6875 24.40625 L 501.6875 24 Z M 505.203125 22.6875 L 505.203125 28.921875 L 501.6875 28.921875 L 501.6875 27.296875 C 501.21875 27.964844 500.6875 28.449219 500.09375 28.75 C 499.507812 29.050781 498.796875 29.203125 497.953125 29.203125 C 496.828125 29.203125 495.910156 28.875 495.203125 28.21875 C 494.492188 27.554688 494.140625 26.695312 494.140625 25.640625 C 494.140625 24.359375 494.578125 23.421875 495.453125 22.828125 C 496.335938 22.226562 497.726562 21.921875 499.625 21.921875 L 501.6875 21.921875 L 501.6875 21.640625 C 501.6875 21.089844 501.46875 20.6875 501.03125 20.4375 C 500.59375 20.179688 499.910156 20.046875 498.984375 20.046875 C 498.234375 20.046875 497.535156 20.125 496.890625 20.28125 C 496.242188 20.429688 495.644531 20.648438 495.09375 20.9375 L 495.09375 18.28125 C 495.84375 18.09375 496.59375 17.953125 497.34375 17.859375 C 498.101562 17.765625 498.863281 17.71875 499.625 17.71875 C 501.59375 17.71875 503.015625 18.109375 503.890625 18.890625 C 504.765625 19.664062 505.203125 20.929688 505.203125 22.6875 Z M 517.296875 18.328125 L 517.296875 21.171875 C 516.828125 20.851562 516.351562 20.609375 515.875 20.453125 C 515.394531 20.296875 514.894531 20.21875 514.375 20.21875 C 513.40625 20.21875 512.644531 20.507812 512.09375 21.078125 C 511.550781 21.640625 511.28125 22.4375 511.28125 23.46875 C 511.28125 24.492188 511.550781 25.289062 512.09375 25.859375 C 512.644531 26.421875 513.40625 26.703125 514.375 26.703125 C 514.925781 26.703125 515.445312 26.625 515.9375 26.46875 C 516.425781 26.304688 516.878906 26.058594 517.296875 25.734375 L 517.296875 28.59375 C 516.753906 28.804688 516.203125 28.953125 515.640625 29.046875 C 515.078125 29.148438 514.507812 29.203125 513.9375 29.203125 C 511.96875 29.203125 510.425781 28.699219 509.3125 27.6875 C 508.195312 26.679688 507.640625 25.273438 507.640625 23.46875 C 507.640625 21.65625 508.195312 20.246094 509.3125 19.234375 C 510.425781 18.226562 511.96875 17.71875 513.9375 17.71875 C 514.507812 17.71875 515.070312 17.773438 515.625 17.875 C 516.1875 17.96875 516.742188 18.121094 517.296875 18.328125 Z M 531.304688 22.265625 L 531.304688 28.921875 L 527.789062 28.921875 L 527.789062 23.84375 C 527.789062 22.886719 527.765625 22.230469 527.726562 21.875 C 527.683594 21.511719 527.609375 21.246094 527.507812 21.078125 C 527.371094 20.851562 527.183594 20.671875 526.945312 20.546875 C 526.714844 20.421875 526.449219 20.359375 526.148438 20.359375 C 525.417969 20.359375 524.84375 20.640625 524.429688 21.203125 C 524.011719 21.765625 523.804688 22.546875 523.804688 23.546875 L 523.804688 28.921875 L 520.320312 28.921875 L 520.320312 13.71875 L 523.804688 13.71875 L 523.804688 19.578125 C 524.335938 18.945312 524.898438 18.476562 525.492188 18.171875 C 526.085938 17.871094 526.734375 17.71875 527.445312 17.71875 C 528.714844 17.71875 529.671875 18.109375 530.320312 18.890625 C 530.976562 19.664062 531.304688 20.789062 531.304688 22.265625 Z M 268 10.359375 "/>
<path style="fill:none;stroke-width:1;stroke-linecap:butt;stroke-linejoin:miter;stroke:rgb(0%,0%,0%);stroke-opacity:0.0980392;stroke-miterlimit:10;" d="M 29 234.5 L 801 234.5 "/>
<path style=" stroke:none;fill-rule:nonzero;fill:rgb(40%,40%,40%);fill-opacity:1;" d="M 50.253906 248.203125 L 51.847656 248.203125 L 55.738281 255.515625 L 55.738281 248.203125 L 56.878906 248.203125 L 56.878906 256.953125 L 55.285156 256.953125 L 51.410156 249.640625 L 51.410156 256.953125 L 50.253906 256.953125 Z M 61.730469 251.140625 C 61.15625 251.140625 60.699219 251.371094 60.355469 251.828125 C 60.019531 252.277344 59.855469 252.890625 59.855469 253.671875 C 59.855469 254.464844 60.019531 255.085938 60.355469 255.53125 C 60.6875 255.980469 61.144531 256.203125 61.730469 256.203125 C 62.300781 256.203125 62.753906 255.980469 63.089844 255.53125 C 63.433594 255.074219 63.605469 254.453125 63.605469 253.671875 C 63.605469 252.902344 63.433594 252.289062 63.089844 251.828125 C 62.753906 251.371094 62.300781 251.140625 61.730469 251.140625 Z M 61.730469 250.234375 C 62.667969 250.234375 63.402344 250.542969 63.933594 251.15625 C 64.472656 251.761719 64.746094 252.601562 64.746094 253.671875 C 64.746094 254.746094 64.472656 255.589844 63.933594 256.203125 C 63.402344 256.820312 62.667969 257.125 61.730469 257.125 C 60.792969 257.125 60.050781 256.820312 59.511719 256.203125 C 58.980469 255.589844 58.714844 254.746094 58.714844 253.671875 C 58.714844 252.601562 58.980469 251.761719 59.511719 251.15625 C 60.050781 250.542969 60.792969 250.234375 61.730469 250.234375 Z M 65.757812 250.390625 L 66.898438 250.390625 L 68.945312 255.890625 L 71.007812 250.390625 L 72.148438 250.390625 L 69.679688 256.953125 L 68.210938 256.953125 Z M 80.128906 252.796875 C 79.566406 252.796875 79.121094 252.949219 78.800781 253.25 C 78.476562 253.554688 78.316406 253.964844 78.316406 254.484375 C 78.316406 255.015625 78.476562 255.433594 78.800781 255.734375 C 79.121094 256.039062 79.566406 256.1875 80.128906 256.1875 C 80.691406 256.1875 81.132812 256.039062 81.457031 255.734375 C 81.777344 255.433594 81.941406 255.015625 81.941406 254.484375 C 81.941406 253.964844 81.777344 253.554688 81.457031 253.25 C 81.144531 252.949219 80.699219 252.796875 80.128906 252.796875 Z M 78.941406 252.296875 C 78.441406 252.171875 78.042969 251.9375 77.753906 251.59375 C 77.472656 251.242188 77.332031 250.8125 77.332031 250.3125 C 77.332031 249.617188 77.582031 249.0625 78.082031 248.65625 C 78.582031 248.25 79.261719 248.046875 80.128906 248.046875 C 81.003906 248.046875 81.683594 248.25 82.175781 248.65625 C 82.675781 249.0625 82.925781 249.617188 82.925781 250.3125 C 82.925781 250.8125 82.785156 251.242188 82.503906 251.59375 C 82.222656 251.9375 81.824219 252.171875 81.316406 252.296875 C 81.886719 252.433594 82.332031 252.695312 82.644531 253.078125 C 82.964844 253.464844 83.128906 253.933594 83.128906 254.484375 C 83.128906 255.339844 82.867188 255.996094 82.347656 256.453125 C 81.835938 256.902344 81.097656 257.125 80.128906 257.125 C 79.167969 257.125 78.429688 256.902344 77.910156 256.453125 C 77.386719 255.996094 77.128906 255.339844 77.128906 254.484375 C 77.128906 253.933594 77.289062 253.464844 77.613281 253.078125 C 77.933594 252.695312 78.378906 252.433594 78.941406 252.296875 Z M 78.519531 250.421875 C 78.519531 250.882812 78.660156 251.234375 78.941406 251.484375 C 79.222656 251.734375 79.617188 251.859375 80.128906 251.859375 C 80.636719 251.859375 81.035156 251.734375 81.316406 251.484375 C 81.605469 251.234375 81.753906 250.882812 81.753906 250.421875 C 81.753906 249.976562 81.605469 249.625 81.316406 249.375 C 81.035156 249.117188 80.636719 248.984375 80.128906 248.984375 C 79.617188 248.984375 79.222656 249.117188 78.941406 249.375 C 78.660156 249.625 78.519531 249.976562 78.519531 250.421875 Z M 49.082031 245.816406 "/>
<path style=" stroke:none;fill-rule:nonzero;fill:rgb(40%,40%,40%);fill-opacity:1;" d="M 160.683594 248.203125 L 162.277344 248.203125 L 166.167969 255.515625 L 166.167969 248.203125 L 167.308594 248.203125 L 167.308594 256.953125 L 165.714844 256.953125 L 161.839844 249.640625 L 161.839844 256.953125 L 160.683594 256.953125 Z M 172.160156 251.140625 C 171.585938 251.140625 171.128906 251.371094 170.785156 251.828125 C 170.449219 252.277344 170.285156 252.890625 170.285156 253.671875 C 170.285156 254.464844 170.449219 255.085938 170.785156 255.53125 C 171.117188 255.980469 171.574219 256.203125 172.160156 256.203125 C 172.730469 256.203125 173.183594 255.980469 173.519531 255.53125 C 173.863281 255.074219 174.035156 254.453125 174.035156 253.671875 C 174.035156 252.902344 173.863281 252.289062 173.519531 251.828125 C 173.183594 251.371094 172.730469 251.140625 172.160156 251.140625 Z M 172.160156 250.234375 C 173.097656 250.234375 173.832031 250.542969 174.363281 251.15625 C 174.902344 251.761719 175.175781 252.601562 175.175781 253.671875 C 175.175781 254.746094 174.902344 255.589844 174.363281 256.203125 C 173.832031 256.820312 173.097656 257.125 172.160156 257.125 C 171.222656 257.125 170.480469 256.820312 169.941406 256.203125 C 169.410156 255.589844 169.144531 254.746094 169.144531 253.671875 C 169.144531 252.601562 169.410156 251.761719 169.941406 251.15625 C 170.480469 250.542969 171.222656 250.234375 172.160156 250.234375 Z M 176.1875 250.390625 L 177.328125 250.390625 L 179.375 255.890625 L 181.4375 250.390625 L 182.578125 250.390625 L 180.109375 256.953125 L 178.640625 256.953125 Z M 188.058594 256.765625 L 188.058594 255.6875 C 188.359375 255.835938 188.660156 255.945312 188.964844 256.015625 C 189.265625 256.089844 189.566406 256.125 189.871094 256.125 C 190.652344 256.125 191.246094 255.867188 191.652344 255.34375 C 192.066406 254.8125 192.300781 254.011719 192.355469 252.9375 C 192.136719 253.28125 191.847656 253.542969 191.496094 253.71875 C 191.152344 253.898438 190.765625 253.984375 190.339844 253.984375 C 189.464844 253.984375 188.769531 253.726562 188.261719 253.203125 C 187.75 252.671875 187.496094 251.945312 187.496094 251.015625 C 187.496094 250.121094 187.761719 249.402344 188.292969 248.859375 C 188.824219 248.320312 189.53125 248.046875 190.417969 248.046875 C 191.425781 248.046875 192.199219 248.4375 192.730469 249.21875 C 193.269531 249.992188 193.542969 251.117188 193.542969 252.59375 C 193.542969 253.96875 193.214844 255.070312 192.558594 255.890625 C 191.902344 256.714844 191.019531 257.125 189.917969 257.125 C 189.613281 257.125 189.3125 257.09375 189.011719 257.03125 C 188.707031 256.976562 188.390625 256.890625 188.058594 256.765625 Z M 190.417969 253.0625 C 190.949219 253.0625 191.371094 252.882812 191.683594 252.515625 C 191.996094 252.152344 192.152344 251.652344 192.152344 251.015625 C 192.152344 250.390625 191.996094 249.898438 191.683594 249.53125 C 191.371094 249.167969 190.949219 248.984375 190.417969 248.984375 C 189.886719 248.984375 189.464844 249.167969 189.152344 249.53125 C 188.847656 249.898438 188.699219 250.390625 188.699219 251.015625 C 188.699219 251.652344 188.847656 252.152344 189.152344 252.515625 C 189.464844 252.882812 189.886719 253.0625 190.417969 253.0625 Z M 159.511719 245.816406 "/>
<path style=" stroke:none;fill-rule:nonzero;fill:rgb(40%,40%,40%);fill-opacity:1;" d="M 267.117188 248.203125 L 268.710938 248.203125 L 272.601562 255.515625 L 272.601562 248.203125 L 273.742188 248.203125 L 273.742188 256.953125 L 272.148438 256.953125 L 268.273438 249.640625 L 268.273438 256.953125 L 267.117188 256.953125 Z M 278.59375 251.140625 C 278.019531 251.140625 277.5625 251.371094 277.21875 251.828125 C 276.882812 252.277344 276.71875 252.890625 276.71875 253.671875 C 276.71875 254.464844 276.882812 255.085938 277.21875 255.53125 C 277.550781 255.980469 278.007812 256.203125 278.59375 256.203125 C 279.164062 256.203125 279.617188 255.980469 279.953125 255.53125 C 280.296875 255.074219 280.46875 254.453125 280.46875 253.671875 C 280.46875 252.902344 280.296875 252.289062 279.953125 251.828125 C 279.617188 251.371094 279.164062 251.140625 278.59375 251.140625 Z M 278.59375 250.234375 C 279.53125 250.234375 280.265625 250.542969 280.796875 251.15625 C 281.335938 251.761719 281.609375 252.601562 281.609375 253.671875 C 281.609375 254.746094 281.335938 255.589844 280.796875 256.203125 C 280.265625 256.820312 279.53125 257.125 278.59375 257.125 C 277.65625 257.125 276.914062 256.820312 276.375 256.203125 C 275.84375 255.589844 275.578125 254.746094 275.578125 253.671875 C 275.578125 252.601562 275.84375 251.761719 276.375 251.15625 C 276.914062 250.542969 277.65625 250.234375 278.59375 250.234375 Z M 282.625 250.390625 L 283.765625 250.390625 L 285.8125 255.890625 L 287.875 250.390625 L 289.015625 250.390625 L 286.546875 256.953125 L 285.078125 256.953125 Z M 294.664062 255.953125 L 296.601562 255.953125 L 296.601562 249.28125 L 294.492188 249.703125 L 294.492188 248.625 L 296.585938 248.203125 L 297.773438 248.203125 L 297.773438 255.953125 L 299.710938 255.953125 L 299.710938 256.953125 L 294.664062 256.953125 Z M 304.625 248.984375 C 304.019531 248.984375 303.5625 249.289062 303.25 249.890625 C 302.945312 250.484375 302.796875 251.386719 302.796875 252.59375 C 302.796875 253.792969 302.945312 254.695312 303.25 255.296875 C 303.5625 255.890625 304.019531 256.1875 304.625 256.1875 C 305.238281 256.1875 305.695312 255.890625 306 255.296875 C 306.3125 254.695312 306.46875 253.792969 306.46875 252.59375 C 306.46875 251.386719 306.3125 250.484375 306 249.890625 C 305.695312 249.289062 305.238281 248.984375 304.625 248.984375 Z M 304.625 248.046875 C 305.601562 248.046875 306.351562 248.4375 306.875 249.21875 C 307.394531 249.992188 307.65625 251.117188 307.65625 252.59375 C 307.65625 254.0625 307.394531 255.1875 306.875 255.96875 C 306.351562 256.742188 305.601562 257.125 304.625 257.125 C 303.644531 257.125 302.894531 256.742188 302.375 255.96875 C 301.863281 255.1875 301.609375 254.0625 301.609375 252.59375 C 301.609375 251.117188 301.863281 249.992188 302.375 249.21875 C 302.894531 248.4375 303.644531 248.046875 304.625 248.046875 Z M 265.945312 245.816406 "/>
<path style=" stroke:none;fill-rule:nonzero;fill:rgb(40%,40%,40%);fill-opacity:1;" d="M 377.550781 248.203125 L 379.144531 248.203125 L 383.035156 255.515625 L 383.035156 248.203125 L 384.175781 248.203125 L 384.175781 256.953125 L 382.582031 256.953125 L 378.707031 249.640625 L 378.707031 256.953125 L 377.550781 256.953125 Z M 389.027344 251.140625 C 388.453125 251.140625 387.996094 251.371094 387.652344 251.828125 C 387.316406 252.277344 387.152344 252.890625 387.152344 253.671875 C 387.152344 254.464844 387.316406 255.085938 387.652344 255.53125 C 387.984375 255.980469 388.441406 256.203125 389.027344 256.203125 C 389.597656 256.203125 390.050781 255.980469 390.386719 255.53125 C 390.730469 255.074219 390.902344 254.453125 390.902344 253.671875 C 390.902344 252.902344 390.730469 252.289062 390.386719 251.828125 C 390.050781 251.371094 389.597656 251.140625 389.027344 251.140625 Z M 389.027344 250.234375 C 389.964844 250.234375 390.699219 250.542969 391.230469 251.15625 C 391.769531 251.761719 392.042969 252.601562 392.042969 253.671875 C 392.042969 254.746094 391.769531 255.589844 391.230469 256.203125 C 390.699219 256.820312 389.964844 257.125 389.027344 257.125 C 388.089844 257.125 387.347656 256.820312 386.808594 256.203125 C 386.277344 255.589844 386.011719 254.746094 386.011719 253.671875 C 386.011719 252.601562 386.277344 251.761719 386.808594 251.15625 C 387.347656 250.542969 388.089844 250.234375 389.027344 250.234375 Z M 393.054688 250.390625 L 394.195312 250.390625 L 396.242188 255.890625 L 398.304688 250.390625 L 399.445312 250.390625 L 396.976562 256.953125 L 395.507812 256.953125 Z M 405.097656 255.953125 L 407.035156 255.953125 L 407.035156 249.28125 L 404.925781 249.703125 L 404.925781 248.625 L 407.019531 248.203125 L 408.207031 248.203125 L 408.207031 255.953125 L 410.144531 255.953125 L 410.144531 256.953125 L 405.097656 256.953125 Z M 412.734375 255.953125 L 414.671875 255.953125 L 414.671875 249.28125 L 412.5625 249.703125 L 412.5625 248.625 L 414.65625 248.203125 L 415.84375 248.203125 L 415.84375 255.953125 L 417.78125 255.953125 L 417.78125 256.953125 L 412.734375 256.953125 Z M 376.378906 245.816406 "/>
<path style=" stroke:none;fill-rule:nonzero;fill:rgb(40%,40%,40%);fill-opacity:1;" d="M 487.984375 248.203125 L 489.578125 248.203125 L 493.46875 255.515625 L 493.46875 248.203125 L 494.609375 248.203125 L 494.609375 256.953125 L 493.015625 256.953125 L 489.140625 249.640625 L 489.140625 256.953125 L 487.984375 256.953125 Z M 499.460938 251.140625 C 498.886719 251.140625 498.429688 251.371094 498.085938 251.828125 C 497.75 252.277344 497.585938 252.890625 497.585938 253.671875 C 497.585938 254.464844 497.75 255.085938 498.085938 255.53125 C 498.417969 255.980469 498.875 256.203125 499.460938 256.203125 C 500.03125 256.203125 500.484375 255.980469 500.820312 255.53125 C 501.164062 255.074219 501.335938 254.453125 501.335938 253.671875 C 501.335938 252.902344 501.164062 252.289062 500.820312 251.828125 C 500.484375 251.371094 500.03125 251.140625 499.460938 251.140625 Z M 499.460938 250.234375 C 500.398438 250.234375 501.132812 250.542969 501.664062 251.15625 C 502.203125 251.761719 502.476562 252.601562 502.476562 253.671875 C 502.476562 254.746094 502.203125 255.589844 501.664062 256.203125 C 501.132812 256.820312 500.398438 257.125 499.460938 257.125 C 498.523438 257.125 497.78125 256.820312 497.242188 256.203125 C 496.710938 255.589844 496.445312 254.746094 496.445312 253.671875 C 496.445312 252.601562 496.710938 251.761719 497.242188 251.15625 C 497.78125 250.542969 498.523438 250.234375 499.460938 250.234375 Z M 503.492188 250.390625 L 504.632812 250.390625 L 506.679688 255.890625 L 508.742188 250.390625 L 509.882812 250.390625 L 507.414062 256.953125 L 505.945312 256.953125 Z M 515.53125 255.953125 L 517.46875 255.953125 L 517.46875 249.28125 L 515.359375 249.703125 L 515.359375 248.625 L 517.453125 248.203125 L 518.640625 248.203125 L 518.640625 255.953125 L 520.578125 255.953125 L 520.578125 256.953125 L 515.53125 256.953125 Z M 523.976562 255.953125 L 528.117188 255.953125 L 528.117188 256.953125 L 522.554688 256.953125 L 522.554688 255.953125 C 523 255.496094 523.609375 254.875 524.382812 254.09375 C 525.164062 253.304688 525.652344 252.792969 525.851562 252.5625 C 526.234375 252.148438 526.5 251.792969 526.648438 251.5 C 526.804688 251.199219 526.882812 250.90625 526.882812 250.625 C 526.882812 250.15625 526.714844 249.777344 526.382812 249.484375 C 526.058594 249.195312 525.636719 249.046875 525.117188 249.046875 C 524.742188 249.046875 524.34375 249.109375 523.929688 249.234375 C 523.523438 249.359375 523.085938 249.558594 522.617188 249.828125 L 522.617188 248.625 C 523.09375 248.4375 523.539062 248.296875 523.945312 248.203125 C 524.359375 248.101562 524.742188 248.046875 525.085938 248.046875 C 525.992188 248.046875 526.714844 248.277344 527.257812 248.734375 C 527.796875 249.183594 528.070312 249.789062 528.070312 250.546875 C 528.070312 250.902344 528 251.242188 527.867188 251.5625 C 527.730469 251.886719 527.484375 252.265625 527.132812 252.703125 C 527.027344 252.820312 526.714844 253.148438 526.195312 253.6875 C 525.671875 254.230469 524.933594 254.984375 523.976562 255.953125 Z M 486.8125 245.816406 "/>
<path style=" stroke:none;fill-rule:nonzero;fill:rgb(40%,40%,40%);fill-opacity:1;" d="M 598.417969 248.203125 L 600.011719 248.203125 L 603.902344 255.515625 L 603.902344 248.203125 L 605.042969 248.203125 L 605.042969 256.953125 L 603.449219 256.953125 L 599.574219 249.640625 L 599.574219 256.953125 L 598.417969 256.953125 Z M 609.894531 251.140625 C 609.320312 251.140625 608.863281 251.371094 608.519531 251.828125 C 608.183594 252.277344 608.019531 252.890625 608.019531 253.671875 C 608.019531 254.464844 608.183594 255.085938 608.519531 255.53125 C 608.851562 255.980469 609.308594 256.203125 609.894531 256.203125 C 610.464844 256.203125 610.917969 255.980469 611.253906 255.53125 C 611.597656 255.074219 611.769531 254.453125 611.769531 253.671875 C 611.769531 252.902344 611.597656 252.289062 611.253906 251.828125 C 610.917969 251.371094 610.464844 251.140625 609.894531 251.140625 Z M 609.894531 250.234375 C 610.832031 250.234375 611.566406 250.542969 612.097656 251.15625 C 612.636719 251.761719 612.910156 252.601562 612.910156 253.671875 C 612.910156 254.746094 612.636719 255.589844 612.097656 256.203125 C 611.566406 256.820312 610.832031 257.125 609.894531 257.125 C 608.957031 257.125 608.214844 256.820312 607.675781 256.203125 C 607.144531 255.589844 606.878906 254.746094 606.878906 253.671875 C 606.878906 252.601562 607.144531 251.761719 607.675781 251.15625 C 608.214844 250.542969 608.957031 250.234375 609.894531 250.234375 Z M 613.921875 250.390625 L 615.0625 250.390625 L 617.109375 255.890625 L 619.171875 250.390625 L 620.3125 250.390625 L 617.84375 256.953125 L 616.375 256.953125 Z M 625.964844 255.953125 L 627.902344 255.953125 L 627.902344 249.28125 L 625.792969 249.703125 L 625.792969 248.625 L 627.886719 248.203125 L 629.074219 248.203125 L 629.074219 255.953125 L 631.011719 255.953125 L 631.011719 256.953125 L 625.964844 256.953125 Z M 636.992188 252.234375 C 637.554688 252.359375 637.992188 252.617188 638.304688 253 C 638.625 253.375 638.789062 253.84375 638.789062 254.40625 C 638.789062 255.273438 638.492188 255.945312 637.898438 256.421875 C 637.304688 256.890625 636.460938 257.125 635.367188 257.125 C 635 257.125 634.621094 257.085938 634.226562 257.015625 C 633.839844 256.945312 633.445312 256.835938 633.039062 256.6875 L 633.039062 255.546875 C 633.359375 255.734375 633.714844 255.882812 634.101562 255.984375 C 634.496094 256.078125 634.90625 256.125 635.335938 256.125 C 636.074219 256.125 636.636719 255.980469 637.023438 255.6875 C 637.417969 255.398438 637.617188 254.96875 637.617188 254.40625 C 637.617188 253.898438 637.433594 253.496094 637.070312 253.203125 C 636.703125 252.914062 636.203125 252.765625 635.570312 252.765625 L 634.539062 252.765625 L 634.539062 251.796875 L 635.617188 251.796875 C 636.1875 251.796875 636.632812 251.683594 636.945312 251.453125 C 637.257812 251.214844 637.414062 250.875 637.414062 250.4375 C 637.414062 249.992188 637.25 249.648438 636.929688 249.40625 C 636.617188 249.167969 636.164062 249.046875 635.570312 249.046875 C 635.234375 249.046875 634.882812 249.085938 634.507812 249.15625 C 634.140625 249.21875 633.734375 249.324219 633.289062 249.46875 L 633.289062 248.421875 C 633.746094 248.296875 634.167969 248.203125 634.554688 248.140625 C 634.949219 248.078125 635.320312 248.046875 635.664062 248.046875 C 636.570312 248.046875 637.28125 248.25 637.804688 248.65625 C 638.324219 249.0625 638.585938 249.617188 638.585938 250.3125 C 638.585938 250.804688 638.445312 251.214844 638.164062 251.546875 C 637.890625 251.882812 637.5 252.109375 636.992188 252.234375 Z M 597.246094 245.816406 "/>
<path style=" stroke:none;fill-rule:nonzero;fill:rgb(40%,40%,40%);fill-opacity:1;" d="M 708.851562 248.203125 L 710.445312 248.203125 L 714.335938 255.515625 L 714.335938 248.203125 L 715.476562 248.203125 L 715.476562 256.953125 L 713.882812 256.953125 L 710.007812 249.640625 L 710.007812 256.953125 L 708.851562 256.953125 Z M 720.328125 251.140625 C 719.753906 251.140625 719.296875 251.371094 718.953125 251.828125 C 718.617188 252.277344 718.453125 252.890625 718.453125 253.671875 C 718.453125 254.464844 718.617188 255.085938 718.953125 255.53125 C 719.285156 255.980469 719.742188 256.203125 720.328125 256.203125 C 720.898438 256.203125 721.351562 255.980469 721.6875 255.53125 C 722.03125 255.074219 722.203125 254.453125 722.203125 253.671875 C 722.203125 252.902344 722.03125 252.289062 721.6875 251.828125 C 721.351562 251.371094 720.898438 251.140625 720.328125 251.140625 Z M 720.328125 250.234375 C 721.265625 250.234375 722 250.542969 722.53125 251.15625 C 723.070312 251.761719 723.34375 252.601562 723.34375 253.671875 C 723.34375 254.746094 723.070312 255.589844 722.53125 256.203125 C 722 256.820312 721.265625 257.125 720.328125 257.125 C 719.390625 257.125 718.648438 256.820312 718.109375 256.203125 C 717.578125 255.589844 717.3125 254.746094 717.3125 253.671875 C 717.3125 252.601562 717.578125 251.761719 718.109375 251.15625 C 718.648438 250.542969 719.390625 250.234375 720.328125 250.234375 Z M 724.359375 250.390625 L 725.5 250.390625 L 727.546875 255.890625 L 729.609375 250.390625 L 730.75 250.390625 L 728.28125 256.953125 L 726.8125 256.953125 Z M 736.398438 255.953125 L 738.335938 255.953125 L 738.335938 249.28125 L 736.226562 249.703125 L 736.226562 248.625 L 738.320312 248.203125 L 739.507812 248.203125 L 739.507812 255.953125 L 741.445312 255.953125 L 741.445312 256.953125 L 736.398438 256.953125 Z M 747.078125 249.234375 L 744.09375 253.90625 L 747.078125 253.90625 Z M 746.765625 248.203125 L 748.265625 248.203125 L 748.265625 253.90625 L 749.515625 253.90625 L 749.515625 254.890625 L 748.265625 254.890625 L 748.265625 256.953125 L 747.078125 256.953125 L 747.078125 254.890625 L 743.140625 254.890625 L 743.140625 253.75 Z M 707.679688 245.816406 "/>
<path style="fill:none;stroke-width:1;stroke-linecap:butt;stroke-linejoin:miter;stroke:rgb(0%,0%,0%);stroke-opacity:0.0980392;stroke-miterlimit:10;" d="M 29.5 44 L 29.5 235 "/>
<path style=" stroke:none;fill-rule:nonzero;fill:rgb(40%,40%,40%);fill-opacity:1;" d="M 14.082031 230.789062 C 13.476562 230.789062 13.019531 231.09375 12.707031 231.695312 C 12.402344 232.289062 12.253906 233.191406 12.253906 234.398438 C 12.253906 235.597656 12.402344 236.5 12.707031 237.101562 C 13.019531 237.695312 13.476562 237.992188 14.082031 237.992188 C 14.695312 237.992188 15.152344 237.695312 15.457031 237.101562 C 15.769531 236.5 15.925781 235.597656 15.925781 234.398438 C 15.925781 233.191406 15.769531 232.289062 15.457031 231.695312 C 15.152344 231.09375 14.695312 230.789062 14.082031 230.789062 Z M 14.082031 229.851562 C 15.058594 229.851562 15.808594 230.242188 16.332031 231.023438 C 16.851562 231.796875 17.113281 232.921875 17.113281 234.398438 C 17.113281 235.867188 16.851562 236.992188 16.332031 237.773438 C 15.808594 238.546875 15.058594 238.929688 14.082031 238.929688 C 13.101562 238.929688 12.351562 238.546875 11.832031 237.773438 C 11.320312 236.992188 11.066406 235.867188 11.066406 234.398438 C 11.066406 232.921875 11.320312 231.796875 11.832031 231.023438 C 12.351562 230.242188 13.101562 229.851562 14.082031 229.851562 Z M 10.269531 227.617188 "/>
<path style=" stroke:none;fill-rule:nonzero;fill:rgb(40%,40%,40%);fill-opacity:1;" d="M 4.566406 190.101562 L 8.707031 190.101562 L 8.707031 191.101562 L 3.144531 191.101562 L 3.144531 190.101562 C 3.589844 189.644531 4.199219 189.023438 4.972656 188.242188 C 5.753906 187.453125 6.242188 186.941406 6.441406 186.710938 C 6.824219 186.296875 7.089844 185.941406 7.238281 185.648438 C 7.394531 185.347656 7.472656 185.054688 7.472656 184.773438 C 7.472656 184.304688 7.304688 183.925781 6.972656 183.632812 C 6.648438 183.34375 6.226562 183.195312 5.707031 183.195312 C 5.332031 183.195312 4.933594 183.257812 4.519531 183.382812 C 4.113281 183.507812 3.675781 183.707031 3.207031 183.976562 L 3.207031 182.773438 C 3.683594 182.585938 4.128906 182.445312 4.535156 182.351562 C 4.949219 182.25 5.332031 182.195312 5.675781 182.195312 C 6.582031 182.195312 7.304688 182.425781 7.847656 182.882812 C 8.386719 183.332031 8.660156 183.9375 8.660156 184.695312 C 8.660156 185.050781 8.589844 185.390625 8.457031 185.710938 C 8.320312 186.035156 8.074219 186.414062 7.722656 186.851562 C 7.617188 186.96875 7.304688 187.296875 6.785156 187.835938 C 6.261719 188.378906 5.523438 189.132812 4.566406 190.101562 Z M 13.71875 183.132812 C 13.113281 183.132812 12.65625 183.4375 12.34375 184.039062 C 12.039062 184.632812 11.890625 185.535156 11.890625 186.742188 C 11.890625 187.941406 12.039062 188.84375 12.34375 189.445312 C 12.65625 190.039062 13.113281 190.335938 13.71875 190.335938 C 14.332031 190.335938 14.789062 190.039062 15.09375 189.445312 C 15.40625 188.84375 15.5625 187.941406 15.5625 186.742188 C 15.5625 185.535156 15.40625 184.632812 15.09375 184.039062 C 14.789062 183.4375 14.332031 183.132812 13.71875 183.132812 Z M 13.71875 182.195312 C 14.695312 182.195312 15.445312 182.585938 15.96875 183.367188 C 16.488281 184.140625 16.75 185.265625 16.75 186.742188 C 16.75 188.210938 16.488281 189.335938 15.96875 190.117188 C 15.445312 190.890625 14.695312 191.273438 13.71875 191.273438 C 12.738281 191.273438 11.988281 190.890625 11.46875 190.117188 C 10.957031 189.335938 10.703125 188.210938 10.703125 186.742188 C 10.703125 185.265625 10.957031 184.140625 11.46875 183.367188 C 11.988281 182.585938 12.738281 182.195312 13.71875 182.195312 Z M 2.269531 179.964844 "/>
<path style=" stroke:none;fill-rule:nonzero;fill:rgb(40%,40%,40%);fill-opacity:1;" d="M 6.800781 135.734375 L 3.816406 140.40625 L 6.800781 140.40625 Z M 6.488281 134.703125 L 7.988281 134.703125 L 7.988281 140.40625 L 9.238281 140.40625 L 9.238281 141.390625 L 7.988281 141.390625 L 7.988281 143.453125 L 6.800781 143.453125 L 6.800781 141.390625 L 2.863281 141.390625 L 2.863281 140.25 Z M 13.71875 135.484375 C 13.113281 135.484375 12.65625 135.789062 12.34375 136.390625 C 12.039062 136.984375 11.890625 137.886719 11.890625 139.09375 C 11.890625 140.292969 12.039062 141.195312 12.34375 141.796875 C 12.65625 142.390625 13.113281 142.6875 13.71875 142.6875 C 14.332031 142.6875 14.789062 142.390625 15.09375 141.796875 C 15.40625 141.195312 15.5625 140.292969 15.5625 139.09375 C 15.5625 137.886719 15.40625 136.984375 15.09375 136.390625 C 14.789062 135.789062 14.332031 135.484375 13.71875 135.484375 Z M 13.71875 134.546875 C 14.695312 134.546875 15.445312 134.9375 15.96875 135.71875 C 16.488281 136.492188 16.75 137.617188 16.75 139.09375 C 16.75 140.5625 16.488281 141.6875 15.96875 142.46875 C 15.445312 143.242188 14.695312 143.625 13.71875 143.625 C 12.738281 143.625 11.988281 143.242188 11.46875 142.46875 C 10.957031 141.6875 10.703125 140.5625 10.703125 139.09375 C 10.703125 137.617188 10.957031 136.492188 11.46875 135.71875 C 11.988281 134.9375 12.738281 134.546875 13.71875 134.546875 Z M 2.269531 132.316406 "/>
<path style=" stroke:none;fill-rule:nonzero;fill:rgb(40%,40%,40%);fill-opacity:1;" d="M 6.238281 90.960938 C 5.707031 90.960938 5.285156 91.144531 4.972656 91.507812 C 4.660156 91.875 4.503906 92.367188 4.503906 92.992188 C 4.503906 93.628906 4.660156 94.128906 4.972656 94.492188 C 5.285156 94.859375 5.707031 95.039062 6.238281 95.039062 C 6.769531 95.039062 7.183594 94.859375 7.488281 94.492188 C 7.800781 94.128906 7.957031 93.628906 7.957031 92.992188 C 7.957031 92.367188 7.800781 91.875 7.488281 91.507812 C 7.183594 91.144531 6.769531 90.960938 6.238281 90.960938 Z M 8.582031 87.242188 L 8.582031 88.320312 C 8.277344 88.1875 7.976562 88.082031 7.675781 88.007812 C 7.371094 87.9375 7.074219 87.898438 6.785156 87.898438 C 6.003906 87.898438 5.402344 88.164062 4.988281 88.695312 C 4.582031 89.21875 4.347656 90.007812 4.285156 91.070312 C 4.511719 90.738281 4.800781 90.484375 5.144531 90.304688 C 5.496094 90.117188 5.882812 90.023438 6.300781 90.023438 C 7.175781 90.023438 7.867188 90.289062 8.378906 90.820312 C 8.886719 91.351562 9.144531 92.078125 9.144531 92.992188 C 9.144531 93.898438 8.878906 94.625 8.347656 95.164062 C 7.816406 95.707031 7.113281 95.976562 6.238281 95.976562 C 5.214844 95.976562 4.441406 95.59375 3.910156 94.820312 C 3.378906 94.039062 3.113281 92.914062 3.113281 91.445312 C 3.113281 90.0625 3.441406 88.957031 4.097656 88.132812 C 4.753906 87.3125 5.632812 86.898438 6.738281 86.898438 C 7.027344 86.898438 7.324219 86.929688 7.628906 86.992188 C 7.929688 87.046875 8.246094 87.128906 8.582031 87.242188 Z M 13.71875 87.835938 C 13.113281 87.835938 12.65625 88.140625 12.34375 88.742188 C 12.039062 89.335938 11.890625 90.238281 11.890625 91.445312 C 11.890625 92.644531 12.039062 93.546875 12.34375 94.148438 C 12.65625 94.742188 13.113281 95.039062 13.71875 95.039062 C 14.332031 95.039062 14.789062 94.742188 15.09375 94.148438 C 15.40625 93.546875 15.5625 92.644531 15.5625 91.445312 C 15.5625 90.238281 15.40625 89.335938 15.09375 88.742188 C 14.789062 88.140625 14.332031 87.835938 13.71875 87.835938 Z M 13.71875 86.898438 C 14.695312 86.898438 15.445312 87.289062 15.96875 88.070312 C 16.488281 88.84375 16.75 89.96875 16.75 91.445312 C 16.75 92.914062 16.488281 94.039062 15.96875 94.820312 C 15.445312 95.59375 14.695312 95.976562 13.71875 95.976562 C 12.738281 95.976562 11.988281 95.59375 11.46875 94.820312 C 10.957031 94.039062 10.703125 92.914062 10.703125 91.445312 C 10.703125 89.96875 10.957031 88.84375 11.46875 88.070312 C 11.988281 87.289062 12.738281 86.898438 13.71875 86.898438 Z M 2.269531 84.664062 "/>
<path style=" stroke:none;fill-rule:nonzero;fill:rgb(40%,40%,40%);fill-opacity:1;" d="M 6.082031 44 C 5.519531 44 5.074219 44.152344 4.753906 44.453125 C 4.429688 44.757812 4.269531 45.167969 4.269531 45.6875 C 4.269531 46.21875 4.429688 46.636719 4.753906 46.9375 C 5.074219 47.242188 5.519531 47.390625 6.082031 47.390625 C 6.644531 47.390625 7.085938 47.242188 7.410156 46.9375 C 7.730469 46.636719 7.894531 46.21875 7.894531 45.6875 C 7.894531 45.167969 7.730469 44.757812 7.410156 44.453125 C 7.097656 44.152344 6.652344 44 6.082031 44 Z M 4.894531 43.5 C 4.394531 43.375 3.996094 43.140625 3.707031 42.796875 C 3.425781 42.445312 3.285156 42.015625 3.285156 41.515625 C 3.285156 40.820312 3.535156 40.265625 4.035156 39.859375 C 4.535156 39.453125 5.214844 39.25 6.082031 39.25 C 6.957031 39.25 7.636719 39.453125 8.128906 39.859375 C 8.628906 40.265625 8.878906 40.820312 8.878906 41.515625 C 8.878906 42.015625 8.738281 42.445312 8.457031 42.796875 C 8.175781 43.140625 7.777344 43.375 7.269531 43.5 C 7.839844 43.636719 8.285156 43.898438 8.597656 44.28125 C 8.917969 44.667969 9.082031 45.136719 9.082031 45.6875 C 9.082031 46.542969 8.820312 47.199219 8.300781 47.65625 C 7.789062 48.105469 7.050781 48.328125 6.082031 48.328125 C 5.121094 48.328125 4.382812 48.105469 3.863281 47.65625 C 3.339844 47.199219 3.082031 46.542969 3.082031 45.6875 C 3.082031 45.136719 3.242188 44.667969 3.566406 44.28125 C 3.886719 43.898438 4.332031 43.636719 4.894531 43.5 Z M 4.472656 41.625 C 4.472656 42.085938 4.613281 42.4375 4.894531 42.6875 C 5.175781 42.9375 5.570312 43.0625 6.082031 43.0625 C 6.589844 43.0625 6.988281 42.9375 7.269531 42.6875 C 7.558594 42.4375 7.707031 42.085938 7.707031 41.625 C 7.707031 41.179688 7.558594 40.828125 7.269531 40.578125 C 6.988281 40.320312 6.589844 40.1875 6.082031 40.1875 C 5.570312 40.1875 5.175781 40.320312 4.894531 40.578125 C 4.613281 40.828125 4.472656 41.179688 4.472656 41.625 Z M 13.71875 40.1875 C 13.113281 40.1875 12.65625 40.492188 12.34375 41.09375 C 12.039062 41.6875 11.890625 42.589844 11.890625 43.796875 C 11.890625 44.996094 12.039062 45.898438 12.34375 46.5 C 12.65625 47.09375 13.113281 47.390625 13.71875 47.390625 C 14.332031 47.390625 14.789062 47.09375 15.09375 46.5 C 15.40625 45.898438 15.5625 44.996094 15.5625 43.796875 C 15.5625 42.589844 15.40625 41.6875 15.09375 41.09375 C 14.789062 40.492188 14.332031 40.1875 13.71875 40.1875 Z M 13.71875 39.25 C 14.695312 39.25 15.445312 39.640625 15.96875 40.421875 C 16.488281 41.195312 16.75 42.320312 16.75 43.796875 C 16.75 45.265625 16.488281 46.390625 15.96875 47.171875 C 15.445312 47.945312 14.695312 48.328125 13.71875 48.328125 C 12.738281 48.328125 11.988281 47.945312 11.46875 47.171875 C 10.957031 46.390625 10.703125 45.265625 10.703125 43.796875 C 10.703125 42.320312 10.957031 41.195312 11.46875 40.421875 C 11.988281 39.640625 12.738281 39.25 13.71875 39.25 Z M 2.269531 37.015625 "/>
<g clip-path="url(#clip3)" clip-rule="nonzero">
<path style=" stroke:none;fill-rule:nonzero;fill:rgb(96.862745%,44.705882%,40.784314%);fill-opacity:1;" d="M 800 155.976562 L 797.699219 167.890625 L 795.398438 179.800781 L 793.097656 182.183594 L 790.796875 186.949219 L 788.496094 177.421875 L 786.195312 179.800781 L 783.894531 191.714844 L 781.59375 196.480469 L 779.292969 194.097656 L 776.992188 198.863281 L 774.691406 186.949219 L 772.390625 189.332031 L 770.089844 184.566406 L 767.789062 177.421875 L 765.488281 182.183594 L 763.1875 179.800781 L 760.886719 179.800781 L 758.585938 170.273438 L 756.285156 167.890625 L 753.984375 170.273438 L 751.6875 184.566406 L 749.386719 175.039062 L 747.085938 177.421875 L 744.785156 194.097656 L 742.484375 177.421875 L 740.183594 177.421875 L 737.882812 172.65625 L 735.582031 170.273438 L 733.28125 163.125 L 730.980469 167.890625 L 728.679688 163.125 L 726.378906 148.828125 L 724.078125 144.066406 L 721.777344 136.917969 L 719.476562 134.535156 L 717.175781 151.210938 L 714.875 139.300781 L 712.574219 144.066406 L 710.273438 134.535156 L 707.972656 132.152344 L 705.671875 141.683594 L 703.371094 122.621094 L 701.070312 115.476562 L 698.769531 110.710938 L 696.46875 113.09375 L 694.167969 117.859375 L 691.867188 129.769531 L 689.566406 136.917969 L 687.265625 139.300781 L 684.964844 158.359375 L 682.664062 167.890625 L 680.363281 179.800781 L 678.0625 184.566406 L 673.460938 189.332031 L 671.160156 186.949219 L 668.859375 201.246094 L 666.558594 201.246094 L 664.257812 194.097656 L 661.957031 198.863281 L 659.65625 198.863281 L 657.355469 196.480469 L 655.058594 201.246094 L 652.757812 206.011719 L 650.457031 201.246094 L 648.15625 191.714844 L 645.855469 191.714844 L 643.554688 184.566406 L 641.253906 189.332031 L 638.953125 175.039062 L 636.652344 170.273438 L 634.351562 167.890625 L 632.050781 155.976562 L 629.75 146.449219 L 627.449219 148.828125 L 625.148438 158.359375 L 622.847656 155.976562 L 620.546875 151.210938 L 618.246094 158.359375 L 615.945312 163.125 L 613.644531 141.683594 L 611.34375 151.210938 L 609.042969 144.066406 L 606.742188 113.09375 L 604.441406 132.152344 L 602.140625 141.683594 L 599.839844 158.359375 L 597.539062 132.152344 L 595.238281 136.917969 L 592.9375 108.328125 L 590.636719 120.238281 L 588.335938 139.300781 L 586.035156 155.976562 L 583.734375 160.742188 L 581.433594 163.125 L 579.132812 155.976562 L 576.832031 153.59375 L 574.53125 139.300781 L 572.230469 153.59375 L 569.929688 151.210938 L 567.628906 167.890625 L 565.328125 179.800781 L 563.027344 177.421875 L 560.726562 184.566406 L 558.429688 184.566406 L 556.128906 189.332031 L 553.828125 186.949219 L 549.226562 196.480469 L 546.925781 194.097656 L 544.625 184.566406 L 542.324219 182.183594 L 540.023438 182.183594 L 537.722656 177.421875 L 535.421875 184.566406 L 533.121094 182.183594 L 528.519531 186.949219 L 526.21875 177.421875 L 523.917969 179.800781 L 521.617188 155.976562 L 519.316406 165.507812 L 517.015625 155.976562 L 514.714844 163.125 L 512.414062 189.332031 L 510.113281 155.976562 L 507.8125 165.507812 L 503.210938 160.742188 L 500.910156 146.449219 L 498.609375 144.066406 L 496.308594 155.976562 L 494.007812 165.507812 L 491.707031 148.828125 L 489.40625 136.917969 L 487.105469 125.003906 L 484.804688 115.476562 L 482.503906 113.09375 L 480.203125 115.476562 L 477.902344 113.09375 L 475.601562 129.769531 L 473.300781 129.769531 L 471 139.300781 L 468.699219 146.449219 L 466.398438 151.210938 L 464.097656 146.449219 L 461.800781 167.890625 L 459.5 182.183594 L 457.199219 179.800781 L 454.898438 184.566406 L 452.597656 182.183594 L 450.296875 196.480469 L 447.996094 194.097656 L 445.695312 194.097656 L 443.394531 191.714844 L 441.09375 196.480469 L 436.492188 191.714844 L 434.191406 182.183594 L 431.890625 189.332031 L 429.589844 191.714844 L 427.289062 182.183594 L 424.988281 182.183594 L 422.6875 189.332031 L 420.386719 189.332031 L 418.085938 194.097656 L 415.785156 203.628906 L 413.484375 201.246094 L 411.183594 186.949219 L 408.882812 184.566406 L 406.582031 179.800781 L 404.28125 179.800781 L 401.980469 175.039062 L 399.679688 184.566406 L 397.378906 182.183594 L 395.078125 175.039062 L 392.777344 170.273438 L 390.476562 167.890625 L 388.175781 144.066406 L 385.875 139.300781 L 383.574219 129.769531 L 381.273438 139.300781 L 378.972656 127.386719 L 376.671875 122.621094 L 374.371094 139.300781 L 372.070312 146.449219 L 369.769531 136.917969 L 367.46875 129.769531 L 365.171875 151.210938 L 362.871094 167.890625 L 360.570312 151.210938 L 358.269531 167.890625 L 355.96875 167.890625 L 353.667969 160.742188 L 351.367188 158.359375 L 349.066406 153.59375 L 346.765625 170.273438 L 344.464844 184.566406 L 342.164062 194.097656 L 339.863281 191.714844 L 337.5625 201.246094 L 335.261719 198.863281 L 332.960938 201.246094 L 328.359375 201.246094 L 326.058594 206.011719 L 323.757812 201.246094 L 321.457031 206.011719 L 319.15625 201.246094 L 316.855469 206.011719 L 314.554688 203.628906 L 312.253906 206.011719 L 309.953125 217.921875 L 307.652344 208.390625 L 305.351562 203.628906 L 303.050781 198.863281 L 300.75 172.65625 L 298.449219 184.566406 L 296.148438 177.421875 L 293.847656 172.65625 L 291.546875 177.421875 L 289.246094 179.800781 L 286.945312 179.800781 L 284.644531 160.742188 L 280.042969 151.210938 L 277.742188 148.828125 L 275.441406 158.359375 L 273.140625 139.300781 L 270.839844 134.535156 L 268.542969 101.179688 L 266.242188 105.945312 L 263.941406 113.09375 L 261.640625 96.414062 L 259.339844 105.945312 L 257.039062 129.769531 L 254.738281 120.238281 L 252.4375 132.152344 L 250.136719 122.621094 L 247.835938 122.621094 L 245.535156 132.152344 L 243.234375 132.152344 L 240.933594 129.769531 L 238.632812 125.003906 L 236.332031 136.917969 L 234.03125 132.152344 L 231.730469 146.449219 L 229.429688 139.300781 L 227.128906 139.300781 L 224.828125 160.742188 L 217.925781 160.742188 L 215.625 175.039062 L 213.324219 196.480469 L 211.023438 191.714844 L 206.421875 206.011719 L 204.121094 203.628906 L 201.820312 206.011719 L 199.519531 198.863281 L 197.21875 184.566406 L 194.917969 184.566406 L 192.617188 191.714844 L 190.316406 170.273438 L 188.015625 175.039062 L 185.714844 165.507812 L 183.414062 160.742188 L 181.113281 165.507812 L 176.511719 170.273438 L 174.210938 163.125 L 171.914062 148.828125 L 169.613281 141.683594 L 167.3125 127.386719 L 165.011719 117.859375 L 162.710938 134.535156 L 160.410156 113.09375 L 158.109375 125.003906 L 155.808594 113.09375 L 153.507812 103.5625 L 151.207031 89.265625 L 148.90625 115.476562 L 146.605469 146.449219 L 144.304688 141.683594 L 142.003906 139.300781 L 139.703125 134.535156 L 137.402344 117.859375 L 135.101562 136.917969 L 132.800781 153.59375 L 128.199219 153.59375 L 125.898438 155.976562 L 123.597656 167.890625 L 121.296875 165.507812 L 118.996094 167.890625 L 116.695312 177.421875 L 114.394531 172.65625 L 112.09375 163.125 L 109.792969 175.039062 L 107.492188 167.890625 L 105.191406 172.65625 L 102.890625 182.183594 L 100.589844 191.714844 L 98.289062 196.480469 L 95.988281 194.097656 L 93.6875 208.390625 L 91.386719 215.539062 L 89.085938 203.628906 L 86.785156 194.097656 L 84.484375 189.332031 L 82.183594 179.800781 L 79.882812 163.125 L 77.582031 165.507812 L 75.285156 175.039062 L 72.984375 167.890625 L 70.683594 170.273438 L 68.382812 170.273438 L 66.082031 160.742188 L 63.78125 163.125 L 61.480469 163.125 L 59.179688 165.507812 L 56.878906 158.359375 L 54.578125 153.59375 L 52.277344 139.300781 L 49.976562 141.683594 L 47.675781 132.152344 L 45.375 127.386719 L 43.074219 120.238281 L 40.773438 127.386719 L 38.472656 117.859375 L 36.171875 108.328125 L 33.871094 117.859375 L 31.570312 148.828125 L 29.269531 155.976562 L 29.269531 234.601562 L 800 234.601562 Z M 800 155.976562 "/>
</g>
<g clip-path="url(#clip4)" clip-rule="nonzero">
<path style="fill:none;stroke-width:2;stroke-linecap:butt;stroke-linejoin:miter;stroke:rgb(100%,4.705882%,0%);stroke-opacity:0.247059;stroke-miterlimit:10;" d="M 800 155.976562 L 797.699219 167.890625 L 795.398438 179.800781 L 793.097656 182.183594 L 790.796875 186.949219 L 788.496094 177.421875 L 786.195312 179.800781 L 783.894531 191.714844 L 781.59375 196.480469 L 779.292969 194.097656 L 776.992188 198.863281 L 774.691406 186.949219 L 772.390625 189.332031 L 770.089844 184.566406 L 767.789062 177.421875 L 765.488281 182.183594 L 763.1875 179.800781 L 760.886719 179.800781 L 758.585938 170.273438 L 756.285156 167.890625 L 753.984375 170.273438 L 751.6875 184.566406 L 749.386719 175.039062 L 747.085938 177.421875 L 744.785156 194.097656 L 742.484375 177.421875 L 740.183594 177.421875 L 737.882812 172.65625 L 735.582031 170.273438 L 733.28125 163.125 L 730.980469 167.890625 L 728.679688 163.125 L 726.378906 148.828125 L 724.078125 144.066406 L 721.777344 136.917969 L 719.476562 134.535156 L 717.175781 151.210938 L 714.875 139.300781 L 712.574219 144.066406 L 710.273438 134.535156 L 707.972656 132.152344 L 705.671875 141.683594 L 703.371094 122.621094 L 701.070312 115.476562 L 698.769531 110.710938 L 696.46875 113.09375 L 694.167969 117.859375 L 691.867188 129.769531 L 689.566406 136.917969 L 687.265625 139.300781 L 684.964844 158.359375 L 682.664062 167.890625 L 680.363281 179.800781 L 678.0625 184.566406 L 673.460938 189.332031 L 671.160156 186.949219 L 668.859375 201.246094 L 666.558594 201.246094 L 664.257812 194.097656 L 661.957031 198.863281 L 659.65625 198.863281 L 657.355469 196.480469 L 655.058594 201.246094 L 652.757812 206.011719 L 650.457031 201.246094 L 648.15625 191.714844 L 645.855469 191.714844 L 643.554688 184.566406 L 641.253906 189.332031 L 638.953125 175.039062 L 636.652344 170.273438 L 634.351562 167.890625 L 632.050781 155.976562 L 629.75 146.449219 L 627.449219 148.828125 L 625.148438 158.359375 L 622.847656 155.976562 L 620.546875 151.210938 L 618.246094 158.359375 L 615.945312 163.125 L 613.644531 141.683594 L 611.34375 151.210938 L 609.042969 144.066406 L 606.742188 113.09375 L 604.441406 132.152344 L 602.140625 141.683594 L 599.839844 158.359375 L 597.539062 132.152344 L 595.238281 136.917969 L 592.9375 108.328125 L 590.636719 120.238281 L 588.335938 139.300781 L 586.035156 155.976562 L 583.734375 160.742188 L 581.433594 163.125 L 579.132812 155.976562 L 576.832031 153.59375 L 574.53125 139.300781 L 572.230469 153.59375 L 569.929688 151.210938 L 567.628906 167.890625 L 565.328125 179.800781 L 563.027344 177.421875 L 560.726562 184.566406 L 558.429688 184.566406 L 556.128906 189.332031 L 553.828125 186.949219 L 549.226562 196.480469 L 546.925781 194.097656 L 544.625 184.566406 L 542.324219 182.183594 L 540.023438 182.183594 L 537.722656 177.421875 L 535.421875 184.566406 L 533.121094 182.183594 L 528.519531 186.949219 L 526.21875 177.421875 L 523.917969 179.800781 L 521.617188 155.976562 L 519.316406 165.507812 L 517.015625 155.976562 L 514.714844 163.125 L 512.414062 189.332031 L 510.113281 155.976562 L 507.8125 165.507812 L 503.210938 160.742188 L 500.910156 146.449219 L 498.609375 144.066406 L 496.308594 155.976562 L 494.007812 165.507812 L 491.707031 148.828125 L 489.40625 136.917969 L 487.105469 125.003906 L 484.804688 115.476562 L 482.503906 113.09375 L 480.203125 115.476562 L 477.902344 113.09375 L 475.601562 129.769531 L 473.300781 129.769531 L 471 139.300781 L 468.699219 146.449219 L 466.398438 151.210938 L 464.097656 146.449219 L 461.800781 167.890625 L 459.5 182.183594 L 457.199219 179.800781 L 454.898438 184.566406 L 452.597656 182.183594 L 450.296875 196.480469 L 447.996094 194.097656 L 445.695312 194.097656 L 443.394531 191.714844 L 441.09375 196.480469 L 436.492188 191.714844 L 434.191406 182.183594 L 431.890625 189.332031 L 429.589844 191.714844 L 427.289062 182.183594 L 424.988281 182.183594 L 422.6875 189.332031 L 420.386719 189.332031 L 418.085938 194.097656 L 415.785156 203.628906 L 413.484375 201.246094 L 411.183594 186.949219 L 408.882812 184.566406 L 406.582031 179.800781 L 404.28125 179.800781 L 401.980469 175.039062 L 399.679688 184.566406 L 397.378906 182.183594 L 395.078125 175.039062 L 392.777344 170.273438 L 390.476562 167.890625 L 388.175781 144.066406 L 385.875 139.300781 L 383.574219 129.769531 L 381.273438 139.300781 L 378.972656 127.386719 L 376.671875 122.621094 L 374.371094 139.300781 L 372.070312 146.449219 L 369.769531 136.917969 L 367.46875 129.769531 L 365.171875 151.210938 L 362.871094 167.890625 L 360.570312 151.210938 L 358.269531 167.890625 L 355.96875 167.890625 L 353.667969 160.742188 L 351.367188 158.359375 L 349.066406 153.59375 L 346.765625 170.273438 L 344.464844 184.566406 L 342.164062 194.097656 L 339.863281 191.714844 L 337.5625 201.246094 L 335.261719 198.863281 L 332.960938 201.246094 L 328.359375 201.246094 L 326.058594 206.011719 L 323.757812 201.246094 L 321.457031 206.011719 L 319.15625 201.246094 L 316.855469 206.011719 L 314.554688 203.628906 L 312.253906 206.011719 L 309.953125 217.921875 L 307.652344 208.390625 L 305.351562 203.628906 L 303.050781 198.863281 L 300.75 172.65625 L 298.449219 184.566406 L 296.148438 177.421875 L 293.847656 172.65625 L 291.546875 177.421875 L 289.246094 179.800781 L 286.945312 179.800781 L 284.644531 160.742188 L 280.042969 151.210938 L 277.742188 148.828125 L 275.441406 158.359375 L 273.140625 139.300781 L 270.839844 134.535156 L 268.542969 101.179688 L 266.242188 105.945312 L 263.941406 113.09375 L 261.640625 96.414062 L 259.339844 105.945312 L 257.039062 129.769531 L 254.738281 120.238281 L 252.4375 132.152344 L 250.136719 122.621094 L 247.835938 122.621094 L 245.535156 132.152344 L 243.234375 132.152344 L 240.933594 129.769531 L 238.632812 125.003906 L 236.332031 136.917969 L 234.03125 132.152344 L 231.730469 146.449219 L 229.429688 139.300781 L 227.128906 139.300781 L 224.828125 160.742188 L 217.925781 160.742188 L 215.625 175.039062 L 213.324219 196.480469 L 211.023438 191.714844 L 206.421875 206.011719 L 204.121094 203.628906 L 201.820312 206.011719 L 199.519531 198.863281 L 197.21875 184.566406 L 194.917969 184.566406 L 192.617188 191.714844 L 190.316406 170.273438 L 188.015625 175.039062 L 185.714844 165.507812 L 183.414062 160.742188 L 181.113281 165.507812 L 176.511719 170.273438 L 174.210938 163.125 L 171.914062 148.828125 L 169.613281 141.683594 L 167.3125 127.386719 L 165.011719 117.859375 L 162.710938 134.535156 L 160.410156 113.09375 L 158.109375 125.003906 L 155.808594 113.09375 L 153.507812 103.5625 L 151.207031 89.265625 L 148.90625 115.476562 L 146.605469 146.449219 L 144.304688 141.683594 L 142.003906 139.300781 L 139.703125 134.535156 L 137.402344 117.859375 L 135.101562 136.917969 L 132.800781 153.59375 L 128.199219 153.59375 L 125.898438 155.976562 L 123.597656 167.890625 L 121.296875 165.507812 L 118.996094 167.890625 L 116.695312 177.421875 L 114.394531 172.65625 L 112.09375 163.125 L 109.792969 175.039062 L 107.492188 167.890625 L 105.191406 172.65625 L 102.890625 182.183594 L 100.589844 191.714844 L 98.289062 196.480469 L 95.988281 194.097656 L 93.6875 208.390625 L 91.386719 215.539062 L 89.085938 203.628906 L 86.785156 194.097656 L 84.484375 189.332031 L 82.183594 179.800781 L 79.882812 163.125 L 77.582031 165.507812 L 75.285156 175.039062 L 72.984375 167.890625 L 70.683594 170.273438 L 68.382812 170.273438 L 66.082031 160.742188 L 63.78125 163.125 L 61.480469 163.125 L 59.179688 165.507812 L 56.878906 158.359375 L 54.578125 153.59375 L 52.277344 139.300781 L 49.976562 141.683594 L 47.675781 132.152344 L 45.375 127.386719 L 43.074219 120.238281 L 40.773438 127.386719 L 38.472656 117.859375 L 36.171875 108.328125 L 33.871094 117.859375 L 31.570312 148.828125 L 29.269531 155.976562 "/>
</g>
<g clip-path="url(#clip5)" clip-rule="nonzero">
<path style=" stroke:none;fill-rule:nonzero;fill:rgb(9.019608%,58.823529%,95.294118%);fill-opacity:0.6;" d="M 800 206.011719 L 763.1875 206.011719 L 760.886719 203.628906 L 749.386719 203.628906 L 747.085938 206.011719 L 744.785156 203.628906 L 721.777344 203.628906 L 719.476562 206.011719 L 714.875 206.011719 L 712.574219 208.390625 L 710.273438 206.011719 L 701.070312 206.011719 L 698.769531 203.628906 L 694.167969 203.628906 L 691.867188 206.011719 L 650.457031 206.011719 L 648.15625 203.628906 L 638.953125 203.628906 L 636.652344 206.011719 L 634.351562 203.628906 L 627.449219 203.628906 L 625.148438 206.011719 L 622.847656 203.628906 L 615.945312 203.628906 L 613.644531 206.011719 L 604.441406 206.011719 L 602.140625 203.628906 L 592.9375 203.628906 L 590.636719 206.011719 L 588.335938 206.011719 L 586.035156 203.628906 L 581.433594 203.628906 L 579.132812 206.011719 L 576.832031 208.390625 L 574.53125 208.390625 L 572.230469 206.011719 L 569.929688 208.390625 L 535.421875 208.390625 L 533.121094 206.011719 L 528.519531 206.011719 L 526.21875 208.390625 L 523.917969 206.011719 L 521.617188 206.011719 L 519.316406 203.628906 L 512.414062 203.628906 L 510.113281 206.011719 L 503.210938 206.011719 L 500.910156 208.390625 L 418.085938 208.390625 L 415.785156 210.773438 L 413.484375 208.390625 L 307.652344 208.390625 L 305.351562 210.773438 L 303.050781 208.390625 L 286.945312 208.390625 L 284.644531 206.011719 L 268.542969 206.011719 L 266.242188 208.390625 L 263.941406 208.390625 L 261.640625 206.011719 L 231.730469 206.011719 L 229.429688 208.390625 L 227.128906 206.011719 L 197.21875 206.011719 L 194.917969 208.390625 L 192.617188 206.011719 L 190.316406 208.390625 L 77.582031 208.390625 L 75.285156 210.773438 L 31.570312 210.773438 L 29.269531 208.390625 L 29.269531 234.601562 L 800 234.601562 Z M 800 206.011719 "/>
</g>
<g clip-path="url(#clip6)" clip-rule="nonzero">
<path style="fill:none;stroke-width:2;stroke-linecap:butt;stroke-linejoin:miter;stroke:rgb(9.019608%,58.823529%,95.294118%);stroke-opacity:1;stroke-miterlimit:10;" d="M 800 206.011719 L 763.1875 206.011719 L 760.886719 203.628906 L 749.386719 203.628906 L 747.085938 206.011719 L 744.785156 203.628906 L 721.777344 203.628906 L 719.476562 206.011719 L 714.875 206.011719 L 712.574219 208.390625 L 710.273438 206.011719 L 701.070312 206.011719 L 698.769531 203.628906 L 694.167969 203.628906 L 691.867188 206.011719 L 650.457031 206.011719 L 648.15625 203.628906 L 638.953125 203.628906 L 636.652344 206.011719 L 634.351562 203.628906 L 627.449219 203.628906 L 625.148438 206.011719 L 622.847656 203.628906 L 615.945312 203.628906 L 613.644531 206.011719 L 604.441406 206.011719 L 602.140625 203.628906 L 592.9375 203.628906 L 590.636719 206.011719 L 588.335938 206.011719 L 586.035156 203.628906 L 581.433594 203.628906 L 579.132812 206.011719 L 576.832031 208.390625 L 574.53125 208.390625 L 572.230469 206.011719 L 569.929688 208.390625 L 535.421875 208.390625 L 533.121094 206.011719 L 528.519531 206.011719 L 526.21875 208.390625 L 523.917969 206.011719 L 521.617188 206.011719 L 519.316406 203.628906 L 512.414062 203.628906 L 510.113281 206.011719 L 503.210938 206.011719 L 500.910156 208.390625 L 418.085938 208.390625 L 415.785156 210.773438 L 413.484375 208.390625 L 307.652344 208.390625 L 305.351562 210.773438 L 303.050781 208.390625 L 286.945312 208.390625 L 284.644531 206.011719 L 268.542969 206.011719 L 266.242188 208.390625 L 263.941406 208.390625 L 261.640625 206.011719 L 231.730469 206.011719 L 229.429688 208.390625 L 227.128906 206.011719 L 197.21875 206.011719 L 194.917969 208.390625 L 192.617188 206.011719 L 190.316406 208.390625 L 77.582031 208.390625 L 75.285156 210.773438 L 31.570312 210.773438 L 29.269531 208.390625 "/>
</g>
</g>
</svg>
