<?xml version="1.0" encoding="UTF-8"?>
<svg xmlns="http://www.w3.org/2000/svg" xmlns:xlink="http://www.w3.org/1999/xlink" width="800pt" height="300pt" viewBox="0 0 800 300" version="1.1">
<defs>
<clipPath id="clip1">
  <path d="M 285 263 L 360 263 L 360 300 L 285 300 Z M 285 263 "/>
</clipPath>
<clipPath id="clip2">
  <path d="M 375 263 L 450 263 L 450 300 L 375 300 Z M 375 263 "/>
</clipPath>
<clipPath id="clip3">
  <path d="M 21.632812 82 L 800 82 L 800 234.601562 L 21.632812 234.601562 Z M 21.632812 82 "/>
</clipPath>
<clipPath id="clip4">
  <path d="M 20.632812 53 L 800 53 L 800 235.601562 L 20.632812 235.601562 Z M 20.632812 53 "/>
</clipPath>
<clipPath id="clip5">
  <path d="M 21.632812 44 L 800 44 L 800 234.601562 L 21.632812 234.601562 Z M 21.632812 44 "/>
</clipPath>
<clipPath id="clip6">
  <path d="M 20.632812 43 L 800 43 L 800 187 L 20.632812 187 Z M 20.632812 43 "/>
</clipPath>
</defs>
<g id="surface2379296">
<rect x="0" y="0" width="800" height="300" style="fill:rgb(100%,100%,100%);fill-opacity:1;stroke:none;"/>
<path style="fill:none;stroke-width:1;stroke-linecap:butt;stroke-linejoin:miter;stroke:rgb(0%,0%,0%);stroke-opacity:0.0980392;stroke-miterlimit:10;" d="M 22 234.5 L 800 234.5 "/>
<path style="fill:none;stroke-width:1;stroke-linecap:butt;stroke-linejoin:miter;stroke:rgb(0%,0%,0%);stroke-opacity:0.0980392;stroke-miterlimit:10;" d="M 13.632812 234.5 L 21 234.5 "/>
<path style="fill:none;stroke-width:1;stroke-linecap:butt;stroke-linejoin:miter;stroke:rgb(0%,0%,0%);stroke-opacity:0.0980392;stroke-miterlimit:10;" d="M 22 196.5 L 800 196.5 "/>
<path style="fill:none;stroke-width:1;stroke-linecap:butt;stroke-linejoin:miter;stroke:rgb(0%,0%,0%);stroke-opacity:0.0980392;stroke-miterlimit:10;" d="M 13.632812 196.5 L 21 196.5 "/>
<path style="fill:none;stroke-width:1;stroke-linecap:butt;stroke-linejoin:miter;stroke:rgb(0%,0%,0%);stroke-opacity:0.0980392;stroke-miterlimit:10;" d="M 22 158.5 L 800 158.5 "/>
<path style="fill:none;stroke-width:1;stroke-linecap:butt;stroke-linejoin:miter;stroke:rgb(0%,0%,0%);stroke-opacity:0.0980392;stroke-miterlimit:10;" d="M 13.632812 158.5 L 21 158.5 "/>
<path style="fill:none;stroke-width:1;stroke-linecap:butt;stroke-linejoin:miter;stroke:rgb(0%,0%,0%);stroke-opacity:0.0980392;stroke-miterlimit:10;" d="M 22 120.5 L 800 120.5 "/>
<path style="fill:none;stroke-width:1;stroke-linecap:butt;stroke-linejoin:miter;stroke:rgb(0%,0%,0%);stroke-opacity:0.0980392;stroke-miterlimit:10;" d="M 13.632812 120.5 L 21 120.5 "/>
<path style="fill:none;stroke-width:1;stroke-linecap:butt;stroke-linejoin:miter;stroke:rgb(0%,0%,0%);stroke-opacity:0.0980392;stroke-miterlimit:10;" d="M 22 82.5 L 800 82.5 "/>
<path style="fill:none;stroke-width:1;stroke-linecap:butt;stroke-linejoin:miter;stroke:rgb(0%,0%,0%);stroke-opacity:0.0980392;stroke-miterlimit:10;" d="M 13.632812 82.5 L 21 82.5 "/>
<path style="fill:none;stroke-width:1;stroke-linecap:butt;stroke-linejoin:miter;stroke:rgb(0%,0%,0%);stroke-opacity:0.0980392;stroke-miterlimit:10;" d="M 22 44.5 L 800 44.5 "/>
<path style="fill:none;stroke-width:1;stroke-linecap:butt;stroke-linejoin:miter;stroke:rgb(0%,0%,0%);stroke-opacity:0.0980392;stroke-miterlimit:10;" d="M 13.632812 44.5 L 21 44.5 "/>
<path style=" stroke:none;fill-rule:nonzero;fill:rgb(9.019608%,58.823529%,95.294118%);fill-opacity:0.6;" d="M 331.121094 284 C 331.121094 288.6875 327.324219 292.484375 322.636719 292.484375 C 317.953125 292.484375 314.152344 288.6875 314.152344 284 C 314.152344 279.3125 317.953125 275.515625 322.636719 275.515625 C 327.324219 275.515625 331.121094 279.3125 331.121094 284 Z M 331.121094 284 "/>
<g clip-path="url(#clip1)" clip-rule="nonzero">
<path style="fill:none;stroke-width:2;stroke-linecap:butt;stroke-linejoin:miter;stroke:rgb(9.019608%,58.823529%,95.294118%);stroke-opacity:1;stroke-miterlimit:10;" d="M 331.121094 284 C 331.121094 288.6875 327.324219 292.484375 322.636719 292.484375 C 317.953125 292.484375 314.152344 288.6875 314.152344 284 C 314.152344 279.3125 317.953125 275.515625 322.636719 275.515625 C 327.324219 275.515625 331.121094 279.3125 331.121094 284 Z M 331.121094 284 "/>
</g>
<path style=" stroke:none;fill-rule:nonzero;fill:rgb(0%,0%,0%);fill-opacity:1;" d="M 340.984375 280.4375 L 338 285.109375 L 340.984375 285.109375 Z M 340.671875 279.40625 L 342.171875 279.40625 L 342.171875 285.109375 L 343.421875 285.109375 L 343.421875 286.09375 L 342.171875 286.09375 L 342.171875 288.15625 L 340.984375 288.15625 L 340.984375 286.09375 L 337.046875 286.09375 L 337.046875 284.953125 Z M 354.320312 279.6875 L 354.320312 280.84375 C 353.871094 280.636719 353.445312 280.480469 353.039062 280.375 C 352.640625 280.261719 352.261719 280.203125 351.898438 280.203125 C 351.25 280.203125 350.75 280.328125 350.398438 280.578125 C 350.054688 280.828125 349.882812 281.1875 349.882812 281.65625 C 349.882812 282.042969 349.996094 282.335938 350.226562 282.53125 C 350.453125 282.730469 350.898438 282.886719 351.554688 283 L 352.257812 283.15625 C 353.140625 283.324219 353.792969 283.621094 354.210938 284.046875 C 354.636719 284.464844 354.851562 285.027344 354.851562 285.734375 C 354.851562 286.589844 354.5625 287.234375 353.992188 287.671875 C 353.429688 288.109375 352.59375 288.328125 351.492188 288.328125 C 351.085938 288.328125 350.648438 288.28125 350.179688 288.1875 C 349.710938 288.09375 349.226562 287.953125 348.726562 287.765625 L 348.726562 286.546875 C 349.203125 286.820312 349.671875 287.023438 350.132812 287.15625 C 350.601562 287.292969 351.054688 287.359375 351.492188 287.359375 C 352.167969 287.359375 352.6875 287.230469 353.054688 286.96875 C 353.429688 286.699219 353.617188 286.320312 353.617188 285.828125 C 353.617188 285.402344 353.480469 285.070312 353.210938 284.828125 C 352.949219 284.578125 352.515625 284.398438 351.914062 284.28125 L 351.195312 284.140625 C 350.308594 283.964844 349.667969 283.6875 349.273438 283.3125 C 348.886719 282.9375 348.695312 282.417969 348.695312 281.75 C 348.695312 280.96875 348.964844 280.359375 349.507812 279.921875 C 350.046875 279.476562 350.796875 279.25 351.757812 279.25 C 352.171875 279.25 352.589844 279.289062 353.007812 279.359375 C 353.433594 279.433594 353.871094 279.542969 354.320312 279.6875 Z M 362.265625 284.609375 L 362.265625 285.125 L 357.296875 285.125 C 357.347656 285.875 357.570312 286.445312 357.96875 286.828125 C 358.375 287.214844 358.929688 287.40625 359.640625 287.40625 C 360.054688 287.40625 360.457031 287.359375 360.84375 287.265625 C 361.238281 287.164062 361.628906 287.007812 362.015625 286.796875 L 362.015625 287.828125 C 361.617188 287.984375 361.21875 288.105469 360.8125 288.1875 C 360.40625 288.28125 359.992188 288.328125 359.578125 288.328125 C 358.535156 288.328125 357.707031 288.027344 357.09375 287.421875 C 356.476562 286.808594 356.171875 285.980469 356.171875 284.9375 C 356.171875 283.867188 356.460938 283.015625 357.046875 282.390625 C 357.628906 281.757812 358.410156 281.4375 359.390625 281.4375 C 360.273438 281.4375 360.972656 281.726562 361.484375 282.296875 C 362.003906 282.859375 362.265625 283.632812 362.265625 284.609375 Z M 361.1875 284.28125 C 361.175781 283.699219 361.007812 283.230469 360.6875 282.875 C 360.363281 282.523438 359.9375 282.34375 359.40625 282.34375 C 358.800781 282.34375 358.316406 282.515625 357.953125 282.859375 C 357.597656 283.203125 357.394531 283.683594 357.34375 284.296875 Z M 367.835938 282.59375 C 367.710938 282.53125 367.574219 282.484375 367.429688 282.453125 C 367.292969 282.414062 367.136719 282.390625 366.960938 282.390625 C 366.355469 282.390625 365.886719 282.589844 365.554688 282.984375 C 365.230469 283.382812 365.070312 283.953125 365.070312 284.703125 L 365.070312 288.15625 L 363.992188 288.15625 L 363.992188 281.59375 L 365.070312 281.59375 L 365.070312 282.609375 C 365.296875 282.214844 365.59375 281.921875 365.960938 281.734375 C 366.324219 281.539062 366.765625 281.4375 367.289062 281.4375 C 367.359375 281.4375 367.4375 281.445312 367.523438 281.453125 C 367.617188 281.464844 367.714844 281.480469 367.820312 281.5 Z M 368.195312 281.59375 L 369.335938 281.59375 L 371.382812 287.09375 L 373.445312 281.59375 L 374.585938 281.59375 L 372.117188 288.15625 L 370.648438 288.15625 Z M 381.6875 284.609375 L 381.6875 285.125 L 376.71875 285.125 C 376.769531 285.875 376.992188 286.445312 377.390625 286.828125 C 377.796875 287.214844 378.351562 287.40625 379.0625 287.40625 C 379.476562 287.40625 379.878906 287.359375 380.265625 287.265625 C 380.660156 287.164062 381.050781 287.007812 381.4375 286.796875 L 381.4375 287.828125 C 381.039062 287.984375 380.640625 288.105469 380.234375 288.1875 C 379.828125 288.28125 379.414062 288.328125 379 288.328125 C 377.957031 288.328125 377.128906 288.027344 376.515625 287.421875 C 375.898438 286.808594 375.59375 285.980469 375.59375 284.9375 C 375.59375 283.867188 375.882812 283.015625 376.46875 282.390625 C 377.050781 281.757812 377.832031 281.4375 378.8125 281.4375 C 379.695312 281.4375 380.394531 281.726562 380.90625 282.296875 C 381.425781 282.859375 381.6875 283.632812 381.6875 284.609375 Z M 380.609375 284.28125 C 380.597656 283.699219 380.429688 283.230469 380.109375 282.875 C 379.785156 282.523438 379.359375 282.34375 378.828125 282.34375 C 378.222656 282.34375 377.738281 282.515625 377.375 282.859375 C 377.019531 283.203125 376.816406 283.683594 376.765625 284.296875 Z M 387.257812 282.59375 C 387.132812 282.53125 386.996094 282.484375 386.851562 282.453125 C 386.714844 282.414062 386.558594 282.390625 386.382812 282.390625 C 385.777344 282.390625 385.308594 282.589844 384.976562 282.984375 C 384.652344 283.382812 384.492188 283.953125 384.492188 284.703125 L 384.492188 288.15625 L 383.414062 288.15625 L 383.414062 281.59375 L 384.492188 281.59375 L 384.492188 282.609375 C 384.71875 282.214844 385.015625 281.921875 385.382812 281.734375 C 385.746094 281.539062 386.1875 281.4375 386.710938 281.4375 C 386.78125 281.4375 386.859375 281.445312 386.945312 281.453125 C 387.039062 281.464844 387.136719 281.480469 387.242188 281.5 Z M 392.5625 281.78125 L 392.5625 282.8125 C 392.257812 282.65625 391.941406 282.542969 391.609375 282.46875 C 391.285156 282.386719 390.945312 282.34375 390.59375 282.34375 C 390.0625 282.34375 389.660156 282.429688 389.390625 282.59375 C 389.117188 282.75 388.984375 282.996094 388.984375 283.328125 C 388.984375 283.578125 389.078125 283.777344 389.265625 283.921875 C 389.460938 284.058594 389.851562 284.1875 390.4375 284.3125 L 390.796875 284.40625 C 391.566406 284.5625 392.113281 284.792969 392.4375 285.09375 C 392.757812 285.398438 392.921875 285.8125 392.921875 286.34375 C 392.921875 286.960938 392.675781 287.445312 392.1875 287.796875 C 391.707031 288.152344 391.046875 288.328125 390.203125 288.328125 C 389.847656 288.328125 389.476562 288.289062 389.09375 288.21875 C 388.71875 288.15625 388.320312 288.058594 387.90625 287.921875 L 387.90625 286.796875 C 388.300781 287.007812 388.691406 287.164062 389.078125 287.265625 C 389.460938 287.371094 389.847656 287.421875 390.234375 287.421875 C 390.734375 287.421875 391.117188 287.339844 391.390625 287.171875 C 391.671875 286.996094 391.8125 286.746094 391.8125 286.421875 C 391.8125 286.132812 391.710938 285.90625 391.515625 285.75 C 391.316406 285.59375 390.882812 285.445312 390.21875 285.296875 L 389.84375 285.21875 C 389.175781 285.074219 388.691406 284.855469 388.390625 284.5625 C 388.097656 284.273438 387.953125 283.875 387.953125 283.375 C 387.953125 282.75 388.171875 282.273438 388.609375 281.9375 C 389.046875 281.605469 389.664062 281.4375 390.46875 281.4375 C 390.863281 281.4375 391.238281 281.46875 391.59375 281.53125 C 391.945312 281.585938 392.269531 281.667969 392.5625 281.78125 Z M 332.636719 277.015625 "/>
<path style=" stroke:none;fill-rule:nonzero;fill:rgb(96.862745%,44.705882%,40.784314%);fill-opacity:1;" d="M 420.988281 284 C 420.988281 288.6875 417.191406 292.484375 412.503906 292.484375 C 407.820312 292.484375 404.019531 288.6875 404.019531 284 C 404.019531 279.3125 407.820312 275.515625 412.503906 275.515625 C 417.191406 275.515625 420.988281 279.3125 420.988281 284 Z M 420.988281 284 "/>
<g clip-path="url(#clip2)" clip-rule="nonzero">
<path style="fill:none;stroke-width:2;stroke-linecap:butt;stroke-linejoin:miter;stroke:rgb(100%,4.705882%,0%);stroke-opacity:0.247059;stroke-miterlimit:10;" d="M 420.988281 284 C 420.988281 288.6875 417.191406 292.484375 412.503906 292.484375 C 407.820312 292.484375 404.019531 288.6875 404.019531 284 C 404.019531 279.3125 407.820312 275.515625 412.503906 275.515625 C 417.191406 275.515625 420.988281 279.3125 420.988281 284 Z M 420.988281 284 "/>
</g>
<path style=" stroke:none;fill-rule:nonzero;fill:rgb(0%,0%,0%);fill-opacity:1;" d="M 427.804688 287.15625 L 429.742188 287.15625 L 429.742188 280.484375 L 427.632812 280.90625 L 427.632812 279.828125 L 429.726562 279.40625 L 430.914062 279.40625 L 430.914062 287.15625 L 432.851562 287.15625 L 432.851562 288.15625 L 427.804688 288.15625 Z M 440.125 280.375 L 440.125 283.671875 L 441.609375 283.671875 C 442.160156 283.671875 442.585938 283.53125 442.890625 283.25 C 443.191406 282.960938 443.34375 282.546875 443.34375 282.015625 C 443.34375 281.496094 443.191406 281.09375 442.890625 280.8125 C 442.585938 280.523438 442.160156 280.375 441.609375 280.375 Z M 438.9375 279.40625 L 441.609375 279.40625 C 442.597656 279.40625 443.34375 279.632812 443.84375 280.078125 C 444.34375 280.515625 444.59375 281.164062 444.59375 282.015625 C 444.59375 282.882812 444.34375 283.539062 443.84375 283.984375 C 443.34375 284.421875 442.597656 284.640625 441.609375 284.640625 L 440.125 284.640625 L 440.125 288.15625 L 438.9375 288.15625 Z M 446.128906 279.03125 L 447.207031 279.03125 L 447.207031 288.15625 L 446.128906 288.15625 Z M 452.445312 284.859375 C 451.578125 284.859375 450.976562 284.960938 450.632812 285.15625 C 450.296875 285.355469 450.132812 285.695312 450.132812 286.171875 C 450.132812 286.558594 450.257812 286.867188 450.507812 287.09375 C 450.765625 287.3125 451.109375 287.421875 451.539062 287.421875 C 452.140625 287.421875 452.621094 287.214844 452.976562 286.796875 C 453.339844 286.371094 453.523438 285.804688 453.523438 285.09375 L 453.523438 284.859375 Z M 454.601562 284.40625 L 454.601562 288.15625 L 453.523438 288.15625 L 453.523438 287.15625 C 453.273438 287.554688 452.964844 287.851562 452.601562 288.046875 C 452.234375 288.234375 451.789062 288.328125 451.257812 288.328125 C 450.578125 288.328125 450.042969 288.140625 449.648438 287.765625 C 449.25 287.382812 449.054688 286.875 449.054688 286.25 C 449.054688 285.511719 449.296875 284.953125 449.789062 284.578125 C 450.289062 284.203125 451.027344 284.015625 452.007812 284.015625 L 453.523438 284.015625 L 453.523438 283.90625 C 453.523438 283.40625 453.355469 283.023438 453.023438 282.75 C 452.699219 282.480469 452.246094 282.34375 451.664062 282.34375 C 451.289062 282.34375 450.917969 282.390625 450.554688 282.484375 C 450.199219 282.578125 449.859375 282.714844 449.539062 282.890625 L 449.539062 281.890625 C 449.933594 281.734375 450.3125 281.621094 450.679688 281.546875 C 451.054688 281.476562 451.417969 281.4375 451.773438 281.4375 C 452.71875 281.4375 453.429688 281.683594 453.898438 282.171875 C 454.367188 282.664062 454.601562 283.40625 454.601562 284.40625 Z M 459.550781 288.765625 C 459.246094 289.546875 458.949219 290.054688 458.660156 290.296875 C 458.367188 290.535156 457.980469 290.65625 457.503906 290.65625 L 456.644531 290.65625 L 456.644531 289.75 L 457.269531 289.75 C 457.570312 289.75 457.800781 289.675781 457.957031 289.53125 C 458.121094 289.394531 458.304688 289.066406 458.503906 288.546875 L 458.707031 288.046875 L 456.050781 281.59375 L 457.191406 281.59375 L 459.238281 286.71875 L 461.300781 281.59375 L 462.441406 281.59375 Z M 469.542969 284.609375 L 469.542969 285.125 L 464.574219 285.125 C 464.625 285.875 464.847656 286.445312 465.246094 286.828125 C 465.652344 287.214844 466.207031 287.40625 466.917969 287.40625 C 467.332031 287.40625 467.734375 287.359375 468.121094 287.265625 C 468.515625 287.164062 468.90625 287.007812 469.292969 286.796875 L 469.292969 287.828125 C 468.894531 287.984375 468.496094 288.105469 468.089844 288.1875 C 467.683594 288.28125 467.269531 288.328125 466.855469 288.328125 C 465.8125 288.328125 464.984375 288.027344 464.371094 287.421875 C 463.753906 286.808594 463.449219 285.980469 463.449219 284.9375 C 463.449219 283.867188 463.738281 283.015625 464.324219 282.390625 C 464.90625 281.757812 465.6875 281.4375 466.667969 281.4375 C 467.550781 281.4375 468.25 281.726562 468.761719 282.296875 C 469.28125 282.859375 469.542969 283.632812 469.542969 284.609375 Z M 468.464844 284.28125 C 468.453125 283.699219 468.285156 283.230469 467.964844 282.875 C 467.640625 282.523438 467.214844 282.34375 466.683594 282.34375 C 466.078125 282.34375 465.59375 282.515625 465.230469 282.859375 C 464.875 283.203125 464.671875 283.683594 464.621094 284.296875 Z M 475.113281 282.59375 C 474.988281 282.53125 474.851562 282.484375 474.707031 282.453125 C 474.570312 282.414062 474.414062 282.390625 474.238281 282.390625 C 473.632812 282.390625 473.164062 282.589844 472.832031 282.984375 C 472.507812 283.382812 472.347656 283.953125 472.347656 284.703125 L 472.347656 288.15625 L 471.269531 288.15625 L 471.269531 281.59375 L 472.347656 281.59375 L 472.347656 282.609375 C 472.574219 282.214844 472.871094 281.921875 473.238281 281.734375 C 473.601562 281.539062 474.042969 281.4375 474.566406 281.4375 C 474.636719 281.4375 474.714844 281.445312 474.800781 281.453125 C 474.894531 281.464844 474.992188 281.480469 475.097656 281.5 Z M 480.421875 281.78125 L 480.421875 282.8125 C 480.117188 282.65625 479.800781 282.542969 479.46875 282.46875 C 479.144531 282.386719 478.804688 282.34375 478.453125 282.34375 C 477.921875 282.34375 477.519531 282.429688 477.25 282.59375 C 476.976562 282.75 476.84375 282.996094 476.84375 283.328125 C 476.84375 283.578125 476.9375 283.777344 477.125 283.921875 C 477.320312 284.058594 477.710938 284.1875 478.296875 284.3125 L 478.65625 284.40625 C 479.425781 284.5625 479.972656 284.792969 480.296875 285.09375 C 480.617188 285.398438 480.78125 285.8125 480.78125 286.34375 C 480.78125 286.960938 480.535156 287.445312 480.046875 287.796875 C 479.566406 288.152344 478.90625 288.328125 478.0625 288.328125 C 477.707031 288.328125 477.335938 288.289062 476.953125 288.21875 C 476.578125 288.15625 476.179688 288.058594 475.765625 287.921875 L 475.765625 286.796875 C 476.160156 287.007812 476.550781 287.164062 476.9375 287.265625 C 477.320312 287.371094 477.707031 287.421875 478.09375 287.421875 C 478.59375 287.421875 478.976562 287.339844 479.25 287.171875 C 479.53125 286.996094 479.671875 286.746094 479.671875 286.421875 C 479.671875 286.132812 479.570312 285.90625 479.375 285.75 C 479.175781 285.59375 478.742188 285.445312 478.078125 285.296875 L 477.703125 285.21875 C 477.035156 285.074219 476.550781 284.855469 476.25 284.5625 C 475.957031 284.273438 475.8125 283.875 475.8125 283.375 C 475.8125 282.75 476.03125 282.273438 476.46875 281.9375 C 476.90625 281.605469 477.523438 281.4375 478.328125 281.4375 C 478.722656 281.4375 479.097656 281.46875 479.453125 281.53125 C 479.804688 281.585938 480.128906 281.667969 480.421875 281.78125 Z M 422.503906 277.015625 "/>
<path style=" stroke:none;fill-rule:nonzero;fill:rgb(26.666667%,26.666667%,26.666667%);fill-opacity:1;" d="M 245.09375 14.34375 L 258.53125 14.34375 L 258.53125 17.1875 L 253.703125 17.1875 L 253.703125 28.921875 L 249.9375 28.921875 L 249.9375 17.1875 L 245.09375 17.1875 Z M 271.3125 22.265625 L 271.3125 28.921875 L 267.796875 28.921875 L 267.796875 23.84375 C 267.796875 22.886719 267.773438 22.230469 267.734375 21.875 C 267.691406 21.511719 267.617188 21.246094 267.515625 21.078125 C 267.378906 20.851562 267.191406 20.671875 266.953125 20.546875 C 266.722656 20.421875 266.457031 20.359375 266.15625 20.359375 C 265.425781 20.359375 264.851562 20.640625 264.4375 21.203125 C 264.019531 21.765625 263.8125 22.546875 263.8125 23.546875 L 263.8125 28.921875 L 260.328125 28.921875 L 260.328125 13.71875 L 263.8125 13.71875 L 263.8125 19.578125 C 264.34375 18.945312 264.90625 18.476562 265.5 18.171875 C 266.09375 17.871094 266.742188 17.71875 267.453125 17.71875 C 268.722656 17.71875 269.679688 18.109375 270.328125 18.890625 C 270.984375 19.664062 271.3125 20.789062 271.3125 22.265625 Z M 282.695312 20.96875 C 282.382812 20.824219 282.074219 20.71875 281.773438 20.65625 C 281.46875 20.585938 281.167969 20.546875 280.867188 20.546875 C 279.960938 20.546875 279.261719 20.835938 278.773438 21.40625 C 278.292969 21.980469 278.054688 22.804688 278.054688 23.875 L 278.054688 28.921875 L 274.570312 28.921875 L 274.570312 17.984375 L 278.054688 17.984375 L 278.054688 19.78125 C 278.5 19.0625 279.015625 18.542969 279.601562 18.21875 C 280.183594 17.886719 280.882812 17.71875 281.695312 17.71875 C 281.820312 17.71875 281.949219 17.726562 282.085938 17.734375 C 282.21875 17.746094 282.417969 17.765625 282.679688 17.796875 Z M 289.632812 20.21875 C 288.851562 20.21875 288.257812 20.5 287.851562 21.0625 C 287.445312 21.617188 287.242188 22.417969 287.242188 23.46875 C 287.242188 24.511719 287.445312 25.3125 287.851562 25.875 C 288.257812 26.429688 288.851562 26.703125 289.632812 26.703125 C 290.390625 26.703125 290.96875 26.429688 291.367188 25.875 C 291.773438 25.3125 291.976562 24.511719 291.976562 23.46875 C 291.976562 22.417969 291.773438 21.617188 291.367188 21.0625 C 290.96875 20.5 290.390625 20.21875 289.632812 20.21875 Z M 289.632812 17.71875 C 291.507812 17.71875 292.96875 18.230469 294.023438 19.25 C 295.085938 20.261719 295.617188 21.667969 295.617188 23.46875 C 295.617188 25.261719 295.085938 26.667969 294.023438 27.6875 C 292.96875 28.699219 291.507812 29.203125 289.632812 29.203125 C 287.734375 29.203125 286.257812 28.699219 285.195312 27.6875 C 284.132812 26.667969 283.601562 25.261719 283.601562 23.46875 C 283.601562 21.667969 284.132812 20.261719 285.195312 19.25 C 286.257812 18.230469 287.734375 17.71875 289.632812 17.71875 Z M 297.1875 17.984375 L 300.59375 17.984375 L 302.421875 25.515625 L 304.265625 17.984375 L 307.1875 17.984375 L 309.03125 25.4375 L 310.875 17.984375 L 314.265625 17.984375 L 311.390625 28.921875 L 307.5625 28.921875 L 305.71875 21.40625 L 303.890625 28.921875 L 300.0625 28.921875 Z M 316.648438 17.984375 L 320.132812 17.984375 L 320.132812 28.921875 L 316.648438 28.921875 Z M 316.648438 13.71875 L 320.132812 13.71875 L 320.132812 16.578125 L 316.648438 16.578125 Z M 334.488281 22.265625 L 334.488281 28.921875 L 330.972656 28.921875 L 330.972656 23.828125 C 330.972656 22.882812 330.949219 22.230469 330.910156 21.875 C 330.867188 21.511719 330.792969 21.246094 330.691406 21.078125 C 330.554688 20.851562 330.367188 20.671875 330.128906 20.546875 C 329.898438 20.421875 329.632812 20.359375 329.332031 20.359375 C 328.601562 20.359375 328.027344 20.640625 327.613281 21.203125 C 327.195312 21.765625 326.988281 22.546875 326.988281 23.546875 L 326.988281 28.921875 L 323.503906 28.921875 L 323.503906 17.984375 L 326.988281 17.984375 L 326.988281 19.578125 C 327.519531 18.945312 328.082031 18.476562 328.675781 18.171875 C 329.269531 17.871094 329.917969 17.71875 330.628906 17.71875 C 331.898438 17.71875 332.855469 18.109375 333.503906 18.890625 C 334.160156 19.664062 334.488281 20.789062 334.488281 22.265625 Z M 345.179688 27.0625 C 344.699219 27.699219 344.167969 28.167969 343.585938 28.46875 C 343 28.773438 342.328125 28.921875 341.570312 28.921875 C 340.234375 28.921875 339.132812 28.398438 338.257812 27.34375 C 337.390625 26.292969 336.960938 24.953125 336.960938 23.328125 C 336.960938 21.695312 337.390625 20.355469 338.257812 19.3125 C 339.132812 18.261719 340.234375 17.734375 341.570312 17.734375 C 342.328125 17.734375 343 17.886719 343.585938 18.1875 C 344.167969 18.492188 344.699219 18.964844 345.179688 19.609375 L 345.179688 17.984375 L 348.695312 17.984375 L 348.695312 27.8125 C 348.695312 29.570312 348.136719 30.914062 347.023438 31.84375 C 345.917969 32.769531 344.308594 33.234375 342.195312 33.234375 C 341.515625 33.234375 340.855469 33.179688 340.210938 33.078125 C 339.574219 32.972656 338.933594 32.816406 338.289062 32.609375 L 338.289062 29.875 C 338.902344 30.226562 339.5 30.488281 340.085938 30.65625 C 340.667969 30.832031 341.257812 30.921875 341.851562 30.921875 C 342.996094 30.921875 343.835938 30.671875 344.367188 30.171875 C 344.90625 29.671875 345.179688 28.886719 345.179688 27.8125 Z M 342.867188 20.265625 C 342.148438 20.265625 341.585938 20.53125 341.179688 21.0625 C 340.773438 21.59375 340.570312 22.351562 340.570312 23.328125 C 340.570312 24.328125 340.761719 25.089844 341.148438 25.609375 C 341.542969 26.121094 342.117188 26.375 342.867188 26.375 C 343.59375 26.375 344.164062 26.109375 344.570312 25.578125 C 344.976562 25.046875 345.179688 24.296875 345.179688 23.328125 C 345.179688 22.351562 344.976562 21.59375 344.570312 21.0625 C 344.164062 20.53125 343.59375 20.265625 342.867188 20.265625 Z M 350.964844 14.34375 L 354.574219 14.34375 L 357.089844 24.9375 L 359.589844 14.34375 L 363.214844 14.34375 L 365.714844 24.9375 L 368.230469 14.34375 L 371.808594 14.34375 L 368.371094 28.921875 L 364.027344 28.921875 L 361.386719 17.84375 L 358.777344 28.921875 L 354.433594 28.921875 Z M 384.3125 23.421875 L 384.3125 24.421875 L 376.140625 24.421875 C 376.222656 25.246094 376.519531 25.859375 377.03125 26.265625 C 377.539062 26.671875 378.25 26.875 379.15625 26.875 C 379.894531 26.875 380.648438 26.765625 381.421875 26.546875 C 382.191406 26.328125 382.984375 26 383.796875 25.5625 L 383.796875 28.25 C 382.972656 28.5625 382.144531 28.796875 381.3125 28.953125 C 380.488281 29.117188 379.664062 29.203125 378.84375 29.203125 C 376.863281 29.203125 375.320312 28.703125 374.21875 27.703125 C 373.125 26.695312 372.578125 25.28125 372.578125 23.46875 C 372.578125 21.679688 373.113281 20.273438 374.1875 19.25 C 375.269531 18.230469 376.753906 17.71875 378.640625 17.71875 C 380.359375 17.71875 381.734375 18.242188 382.765625 19.28125 C 383.796875 20.3125 384.3125 21.695312 384.3125 23.421875 Z M 380.71875 22.265625 C 380.71875 21.601562 380.523438 21.0625 380.140625 20.65625 C 379.753906 20.25 379.25 20.046875 378.625 20.046875 C 377.945312 20.046875 377.394531 20.242188 376.96875 20.625 C 376.550781 21 376.289062 21.546875 376.1875 22.265625 Z M 391.859375 24 C 391.128906 24 390.582031 24.125 390.21875 24.375 C 389.851562 24.617188 389.671875 24.980469 389.671875 25.46875 C 389.671875 25.90625 389.816406 26.25 390.109375 26.5 C 390.410156 26.75 390.820312 26.875 391.34375 26.875 C 392 26.875 392.550781 26.640625 393 26.171875 C 393.457031 25.703125 393.6875 25.117188 393.6875 24.40625 L 393.6875 24 Z M 397.203125 22.6875 L 397.203125 28.921875 L 393.6875 28.921875 L 393.6875 27.296875 C 393.21875 27.964844 392.6875 28.449219 392.09375 28.75 C 391.507812 29.050781 390.796875 29.203125 389.953125 29.203125 C 388.828125 29.203125 387.910156 28.875 387.203125 28.21875 C 386.492188 27.554688 386.140625 26.695312 386.140625 25.640625 C 386.140625 24.359375 386.578125 23.421875 387.453125 22.828125 C 388.335938 22.226562 389.726562 21.921875 391.625 21.921875 L 393.6875 21.921875 L 393.6875 21.640625 C 393.6875 21.089844 393.46875 20.6875 393.03125 20.4375 C 392.59375 20.179688 391.910156 20.046875 390.984375 20.046875 C 390.234375 20.046875 389.535156 20.125 388.890625 20.28125 C 388.242188 20.429688 387.644531 20.648438 387.09375 20.9375 L 387.09375 18.28125 C 387.84375 18.09375 388.59375 17.953125 389.34375 17.859375 C 390.101562 17.765625 390.863281 17.71875 391.625 17.71875 C 393.59375 17.71875 395.015625 18.109375 395.890625 18.890625 C 396.765625 19.664062 397.203125 20.929688 397.203125 22.6875 Z M 403.953125 27.34375 L 403.953125 33.078125 L 400.46875 33.078125 L 400.46875 17.984375 L 403.953125 17.984375 L 403.953125 19.578125 C 404.441406 18.945312 404.976562 18.476562 405.5625 18.171875 C 406.144531 17.871094 406.816406 17.71875 407.578125 17.71875 C 408.929688 17.71875 410.039062 18.257812 410.90625 19.328125 C 411.769531 20.402344 412.203125 21.78125 412.203125 23.46875 C 412.203125 25.148438 411.769531 26.523438 410.90625 27.59375 C 410.039062 28.667969 408.929688 29.203125 407.578125 29.203125 C 406.816406 29.203125 406.144531 29.050781 405.5625 28.75 C 404.976562 28.449219 404.441406 27.980469 403.953125 27.34375 Z M 406.28125 20.265625 C 405.53125 20.265625 404.953125 20.542969 404.546875 21.09375 C 404.148438 21.636719 403.953125 22.429688 403.953125 23.46875 C 403.953125 24.5 404.148438 25.292969 404.546875 25.84375 C 404.953125 26.398438 405.53125 26.671875 406.28125 26.671875 C 407.03125 26.671875 407.601562 26.402344 408 25.859375 C 408.394531 25.308594 408.59375 24.511719 408.59375 23.46875 C 408.59375 22.429688 408.394531 21.636719 408 21.09375 C 407.601562 20.542969 407.03125 20.265625 406.28125 20.265625 Z M 419.984375 20.21875 C 419.203125 20.21875 418.609375 20.5 418.203125 21.0625 C 417.796875 21.617188 417.59375 22.417969 417.59375 23.46875 C 417.59375 24.511719 417.796875 25.3125 418.203125 25.875 C 418.609375 26.429688 419.203125 26.703125 419.984375 26.703125 C 420.742188 26.703125 421.320312 26.429688 421.71875 25.875 C 422.125 25.3125 422.328125 24.511719 422.328125 23.46875 C 422.328125 22.417969 422.125 21.617188 421.71875 21.0625 C 421.320312 20.5 420.742188 20.21875 419.984375 20.21875 Z M 419.984375 17.71875 C 421.859375 17.71875 423.320312 18.230469 424.375 19.25 C 425.4375 20.261719 425.96875 21.667969 425.96875 23.46875 C 425.96875 25.261719 425.4375 26.667969 424.375 27.6875 C 423.320312 28.699219 421.859375 29.203125 419.984375 29.203125 C 418.085938 29.203125 416.609375 28.699219 415.546875 27.6875 C 414.484375 26.667969 413.953125 25.261719 413.953125 23.46875 C 413.953125 21.667969 414.484375 20.261719 415.546875 19.25 C 416.609375 18.230469 418.085938 17.71875 419.984375 17.71875 Z M 439.507812 22.265625 L 439.507812 28.921875 L 435.992188 28.921875 L 435.992188 23.828125 C 435.992188 22.882812 435.96875 22.230469 435.929688 21.875 C 435.886719 21.511719 435.8125 21.246094 435.710938 21.078125 C 435.574219 20.851562 435.386719 20.671875 435.148438 20.546875 C 434.917969 20.421875 434.652344 20.359375 434.351562 20.359375 C 433.621094 20.359375 433.046875 20.640625 432.632812 21.203125 C 432.214844 21.765625 432.007812 22.546875 432.007812 23.546875 L 432.007812 28.921875 L 428.523438 28.921875 L 428.523438 17.984375 L 432.007812 17.984375 L 432.007812 19.578125 C 432.539062 18.945312 433.101562 18.476562 433.695312 18.171875 C 434.289062 17.871094 434.9375 17.71875 435.648438 17.71875 C 436.917969 17.71875 437.875 18.109375 438.523438 18.890625 C 439.179688 19.664062 439.507812 20.789062 439.507812 22.265625 Z M 451.292969 18.328125 L 451.292969 20.984375 C 450.550781 20.671875 449.832031 20.4375 449.136719 20.28125 C 448.4375 20.125 447.777344 20.046875 447.152344 20.046875 C 446.496094 20.046875 446.003906 20.132812 445.683594 20.296875 C 445.359375 20.464844 445.199219 20.71875 445.199219 21.0625 C 445.199219 21.34375 445.316406 21.558594 445.558594 21.703125 C 445.808594 21.851562 446.246094 21.960938 446.871094 22.03125 L 447.496094 22.125 C 449.285156 22.355469 450.488281 22.730469 451.105469 23.25 C 451.71875 23.773438 452.027344 24.589844 452.027344 25.703125 C 452.027344 26.871094 451.59375 27.746094 450.730469 28.328125 C 449.875 28.914062 448.597656 29.203125 446.902344 29.203125 C 446.171875 29.203125 445.421875 29.144531 444.652344 29.03125 C 443.878906 28.917969 443.089844 28.746094 442.277344 28.515625 L 442.277344 25.859375 C 442.972656 26.203125 443.6875 26.460938 444.417969 26.625 C 445.144531 26.792969 445.890625 26.875 446.652344 26.875 C 447.339844 26.875 447.855469 26.78125 448.199219 26.59375 C 448.542969 26.40625 448.714844 26.125 448.714844 25.75 C 448.714844 25.4375 448.59375 25.210938 448.355469 25.0625 C 448.113281 24.90625 447.640625 24.789062 446.933594 24.703125 L 446.324219 24.625 C 444.761719 24.429688 443.667969 24.070312 443.042969 23.546875 C 442.417969 23.015625 442.105469 22.214844 442.105469 21.140625 C 442.105469 19.984375 442.5 19.125 443.292969 18.5625 C 444.09375 18 445.3125 17.71875 446.949219 17.71875 C 447.59375 17.71875 448.269531 17.773438 448.980469 17.875 C 449.6875 17.96875 450.457031 18.121094 451.292969 18.328125 Z M 467.441406 26.671875 C 468.191406 26.671875 468.761719 26.402344 469.160156 25.859375 C 469.554688 25.308594 469.753906 24.511719 469.753906 23.46875 C 469.753906 22.429688 469.554688 21.636719 469.160156 21.09375 C 468.761719 20.542969 468.191406 20.265625 467.441406 20.265625 C 466.691406 20.265625 466.113281 20.542969 465.707031 21.09375 C 465.308594 21.636719 465.113281 22.429688 465.113281 23.46875 C 465.113281 24.5 465.308594 25.292969 465.707031 25.84375 C 466.113281 26.398438 466.691406 26.671875 467.441406 26.671875 Z M 465.113281 19.578125 C 465.601562 18.945312 466.136719 18.476562 466.722656 18.171875 C 467.304688 17.871094 467.976562 17.71875 468.738281 17.71875 C 470.089844 17.71875 471.199219 18.257812 472.066406 19.328125 C 472.929688 20.402344 473.363281 21.78125 473.363281 23.46875 C 473.363281 25.148438 472.929688 26.523438 472.066406 27.59375 C 471.199219 28.667969 470.089844 29.203125 468.738281 29.203125 C 467.976562 29.203125 467.304688 29.050781 466.722656 28.75 C 466.136719 28.449219 465.601562 27.980469 465.113281 27.34375 L 465.113281 28.921875 L 461.628906 28.921875 L 461.628906 13.71875 L 465.113281 13.71875 Z M 474.507812 17.984375 L 477.992188 17.984375 L 480.945312 25.40625 L 483.445312 17.984375 L 486.929688 17.984375 L 482.335938 29.953125 C 481.875 31.171875 481.335938 32.019531 480.710938 32.5 C 480.09375 32.988281 479.289062 33.234375 478.289062 33.234375 L 476.257812 33.234375 L 476.257812 30.9375 L 477.351562 30.9375 C 477.945312 30.9375 478.375 30.84375 478.648438 30.65625 C 478.917969 30.46875 479.125 30.128906 479.273438 29.640625 L 479.382812 29.34375 Z M 495.945312 17.984375 L 499.429688 17.984375 L 499.429688 28.921875 L 495.945312 28.921875 Z M 495.945312 13.71875 L 499.429688 13.71875 L 499.429688 16.578125 L 495.945312 16.578125 Z M 513.097656 14.796875 L 513.097656 17.890625 C 512.292969 17.527344 511.511719 17.257812 510.753906 17.078125 C 509.992188 16.890625 509.273438 16.796875 508.597656 16.796875 C 507.699219 16.796875 507.035156 16.921875 506.597656 17.171875 C 506.167969 17.421875 505.957031 17.808594 505.957031 18.328125 C 505.957031 18.714844 506.101562 19.015625 506.394531 19.234375 C 506.683594 19.453125 507.210938 19.640625 507.972656 19.796875 L 509.566406 20.125 C 511.191406 20.449219 512.339844 20.945312 513.019531 21.609375 C 513.707031 22.277344 514.050781 23.21875 514.050781 24.4375 C 514.050781 26.042969 513.570312 27.242188 512.613281 28.03125 C 511.664062 28.8125 510.210938 29.203125 508.253906 29.203125 C 507.324219 29.203125 506.394531 29.113281 505.457031 28.9375 C 504.527344 28.761719 503.601562 28.5 502.675781 28.15625 L 502.675781 24.984375 C 503.601562 25.484375 504.496094 25.859375 505.363281 26.109375 C 506.238281 26.359375 507.082031 26.484375 507.894531 26.484375 C 508.714844 26.484375 509.339844 26.351562 509.769531 26.078125 C 510.207031 25.796875 510.425781 25.402344 510.425781 24.890625 C 510.425781 24.445312 510.273438 24.09375 509.972656 23.84375 C 509.679688 23.59375 509.089844 23.371094 508.207031 23.171875 L 506.753906 22.859375 C 505.292969 22.546875 504.226562 22.054688 503.550781 21.375 C 502.882812 20.6875 502.550781 19.761719 502.550781 18.59375 C 502.550781 17.148438 503.019531 16.03125 503.957031 15.25 C 504.894531 14.46875 506.242188 14.078125 508.003906 14.078125 C 508.804688 14.078125 509.628906 14.140625 510.472656 14.265625 C 511.316406 14.382812 512.191406 14.558594 513.097656 14.796875 Z M 522.09375 24 C 521.363281 24 520.816406 24.125 520.453125 24.375 C 520.085938 24.617188 519.90625 24.980469 519.90625 25.46875 C 519.90625 25.90625 520.050781 26.25 520.34375 26.5 C 520.644531 26.75 521.054688 26.875 521.578125 26.875 C 522.234375 26.875 522.785156 26.640625 523.234375 26.171875 C 523.691406 25.703125 523.921875 25.117188 523.921875 24.40625 L 523.921875 24 Z M 527.4375 22.6875 L 527.4375 28.921875 L 523.921875 28.921875 L 523.921875 27.296875 C 523.453125 27.964844 522.921875 28.449219 522.328125 28.75 C 521.742188 29.050781 521.03125 29.203125 520.1875 29.203125 C 519.0625 29.203125 518.144531 28.875 517.4375 28.21875 C 516.726562 27.554688 516.375 26.695312 516.375 25.640625 C 516.375 24.359375 516.8125 23.421875 517.6875 22.828125 C 518.570312 22.226562 519.960938 21.921875 521.859375 21.921875 L 523.921875 21.921875 L 523.921875 21.640625 C 523.921875 21.089844 523.703125 20.6875 523.265625 20.4375 C 522.828125 20.179688 522.144531 20.046875 521.21875 20.046875 C 520.46875 20.046875 519.769531 20.125 519.125 20.28125 C 518.476562 20.429688 517.878906 20.648438 517.328125 20.9375 L 517.328125 18.28125 C 518.078125 18.09375 518.828125 17.953125 519.578125 17.859375 C 520.335938 17.765625 521.097656 17.71875 521.859375 17.71875 C 523.828125 17.71875 525.25 18.109375 526.125 18.890625 C 527 19.664062 527.4375 20.929688 527.4375 22.6875 Z M 539.53125 18.328125 L 539.53125 21.171875 C 539.0625 20.851562 538.585938 20.609375 538.109375 20.453125 C 537.628906 20.296875 537.128906 20.21875 536.609375 20.21875 C 535.640625 20.21875 534.878906 20.507812 534.328125 21.078125 C 533.785156 21.640625 533.515625 22.4375 533.515625 23.46875 C 533.515625 24.492188 533.785156 25.289062 534.328125 25.859375 C 534.878906 26.421875 535.640625 26.703125 536.609375 26.703125 C 537.160156 26.703125 537.679688 26.625 538.171875 26.46875 C 538.660156 26.304688 539.113281 26.058594 539.53125 25.734375 L 539.53125 28.59375 C 538.988281 28.804688 538.4375 28.953125 537.875 29.046875 C 537.3125 29.148438 536.742188 29.203125 536.171875 29.203125 C 534.203125 29.203125 532.660156 28.699219 531.546875 27.6875 C 530.429688 26.679688 529.875 25.273438 529.875 23.46875 C 529.875 21.65625 530.429688 20.246094 531.546875 19.234375 C 532.660156 18.226562 534.203125 17.71875 536.171875 17.71875 C 536.742188 17.71875 537.304688 17.773438 537.859375 17.875 C 538.421875 17.96875 538.976562 18.121094 539.53125 18.328125 Z M 553.539062 22.265625 L 553.539062 28.921875 L 550.023438 28.921875 L 550.023438 23.84375 C 550.023438 22.886719 550 22.230469 549.960938 21.875 C 549.917969 21.511719 549.84375 21.246094 549.742188 21.078125 C 549.605469 20.851562 549.417969 20.671875 549.179688 20.546875 C 548.949219 20.421875 548.683594 20.359375 548.382812 20.359375 C 547.652344 20.359375 547.078125 20.640625 546.664062 21.203125 C 546.246094 21.765625 546.039062 22.546875 546.039062 23.546875 L 546.039062 28.921875 L 542.554688 28.921875 L 542.554688 13.71875 L 546.039062 13.71875 L 546.039062 19.578125 C 546.570312 18.945312 547.132812 18.476562 547.726562 18.171875 C 548.320312 17.871094 548.96875 17.71875 549.679688 17.71875 C 550.949219 17.71875 551.90625 18.109375 552.554688 18.890625 C 553.210938 19.664062 553.539062 20.789062 553.539062 22.265625 Z M 245 10.359375 "/>
<path style="fill:none;stroke-width:1;stroke-linecap:butt;stroke-linejoin:miter;stroke:rgb(0%,0%,0%);stroke-opacity:0.0980392;stroke-miterlimit:10;" d="M 21 234.5 L 801 234.5 "/>
<path style=" stroke:none;fill-rule:nonzero;fill:rgb(40%,40%,40%);fill-opacity:1;" d="M 42.980469 248.203125 L 44.574219 248.203125 L 48.464844 255.515625 L 48.464844 248.203125 L 49.605469 248.203125 L 49.605469 256.953125 L 48.011719 256.953125 L 44.136719 249.640625 L 44.136719 256.953125 L 42.980469 256.953125 Z M 54.457031 251.140625 C 53.882812 251.140625 53.425781 251.371094 53.082031 251.828125 C 52.746094 252.277344 52.582031 252.890625 52.582031 253.671875 C 52.582031 254.464844 52.746094 255.085938 53.082031 255.53125 C 53.414062 255.980469 53.871094 256.203125 54.457031 256.203125 C 55.027344 256.203125 55.480469 255.980469 55.816406 255.53125 C 56.160156 255.074219 56.332031 254.453125 56.332031 253.671875 C 56.332031 252.902344 56.160156 252.289062 55.816406 251.828125 C 55.480469 251.371094 55.027344 251.140625 54.457031 251.140625 Z M 54.457031 250.234375 C 55.394531 250.234375 56.128906 250.542969 56.660156 251.15625 C 57.199219 251.761719 57.472656 252.601562 57.472656 253.671875 C 57.472656 254.746094 57.199219 255.589844 56.660156 256.203125 C 56.128906 256.820312 55.394531 257.125 54.457031 257.125 C 53.519531 257.125 52.777344 256.820312 52.238281 256.203125 C 51.707031 255.589844 51.441406 254.746094 51.441406 253.671875 C 51.441406 252.601562 51.707031 251.761719 52.238281 251.15625 C 52.777344 250.542969 53.519531 250.234375 54.457031 250.234375 Z M 58.484375 250.390625 L 59.625 250.390625 L 61.671875 255.890625 L 63.734375 250.390625 L 64.875 250.390625 L 62.40625 256.953125 L 60.9375 256.953125 Z M 72.855469 252.796875 C 72.292969 252.796875 71.847656 252.949219 71.527344 253.25 C 71.203125 253.554688 71.042969 253.964844 71.042969 254.484375 C 71.042969 255.015625 71.203125 255.433594 71.527344 255.734375 C 71.847656 256.039062 72.292969 256.1875 72.855469 256.1875 C 73.417969 256.1875 73.859375 256.039062 74.183594 255.734375 C 74.503906 255.433594 74.667969 255.015625 74.667969 254.484375 C 74.667969 253.964844 74.503906 253.554688 74.183594 253.25 C 73.871094 252.949219 73.425781 252.796875 72.855469 252.796875 Z M 71.667969 252.296875 C 71.167969 252.171875 70.769531 251.9375 70.480469 251.59375 C 70.199219 251.242188 70.058594 250.8125 70.058594 250.3125 C 70.058594 249.617188 70.308594 249.0625 70.808594 248.65625 C 71.308594 248.25 71.988281 248.046875 72.855469 248.046875 C 73.730469 248.046875 74.410156 248.25 74.902344 248.65625 C 75.402344 249.0625 75.652344 249.617188 75.652344 250.3125 C 75.652344 250.8125 75.511719 251.242188 75.230469 251.59375 C 74.949219 251.9375 74.550781 252.171875 74.042969 252.296875 C 74.613281 252.433594 75.058594 252.695312 75.371094 253.078125 C 75.691406 253.464844 75.855469 253.933594 75.855469 254.484375 C 75.855469 255.339844 75.59375 255.996094 75.074219 256.453125 C 74.5625 256.902344 73.824219 257.125 72.855469 257.125 C 71.894531 257.125 71.15625 256.902344 70.636719 256.453125 C 70.113281 255.996094 69.855469 255.339844 69.855469 254.484375 C 69.855469 253.933594 70.015625 253.464844 70.339844 253.078125 C 70.660156 252.695312 71.105469 252.433594 71.667969 252.296875 Z M 71.246094 250.421875 C 71.246094 250.882812 71.386719 251.234375 71.667969 251.484375 C 71.949219 251.734375 72.34375 251.859375 72.855469 251.859375 C 73.363281 251.859375 73.761719 251.734375 74.042969 251.484375 C 74.332031 251.234375 74.480469 250.882812 74.480469 250.421875 C 74.480469 249.976562 74.332031 249.625 74.042969 249.375 C 73.761719 249.117188 73.363281 248.984375 72.855469 248.984375 C 72.34375 248.984375 71.949219 249.117188 71.667969 249.375 C 71.386719 249.625 71.246094 249.976562 71.246094 250.421875 Z M 41.808594 245.816406 "/>
<path style=" stroke:none;fill-rule:nonzero;fill:rgb(40%,40%,40%);fill-opacity:1;" d="M 154.507812 248.203125 L 156.101562 248.203125 L 159.992188 255.515625 L 159.992188 248.203125 L 161.132812 248.203125 L 161.132812 256.953125 L 159.539062 256.953125 L 155.664062 249.640625 L 155.664062 256.953125 L 154.507812 256.953125 Z M 165.984375 251.140625 C 165.410156 251.140625 164.953125 251.371094 164.609375 251.828125 C 164.273438 252.277344 164.109375 252.890625 164.109375 253.671875 C 164.109375 254.464844 164.273438 255.085938 164.609375 255.53125 C 164.941406 255.980469 165.398438 256.203125 165.984375 256.203125 C 166.554688 256.203125 167.007812 255.980469 167.34375 255.53125 C 167.6875 255.074219 167.859375 254.453125 167.859375 253.671875 C 167.859375 252.902344 167.6875 252.289062 167.34375 251.828125 C 167.007812 251.371094 166.554688 251.140625 165.984375 251.140625 Z M 165.984375 250.234375 C 166.921875 250.234375 167.65625 250.542969 168.1875 251.15625 C 168.726562 251.761719 169 252.601562 169 253.671875 C 169 254.746094 168.726562 255.589844 168.1875 256.203125 C 167.65625 256.820312 166.921875 257.125 165.984375 257.125 C 165.046875 257.125 164.304688 256.820312 163.765625 256.203125 C 163.234375 255.589844 162.96875 254.746094 162.96875 253.671875 C 162.96875 252.601562 163.234375 251.761719 163.765625 251.15625 C 164.304688 250.542969 165.046875 250.234375 165.984375 250.234375 Z M 170.015625 250.390625 L 171.15625 250.390625 L 173.203125 255.890625 L 175.265625 250.390625 L 176.40625 250.390625 L 173.9375 256.953125 L 172.46875 256.953125 Z M 181.882812 256.765625 L 181.882812 255.6875 C 182.183594 255.835938 182.484375 255.945312 182.789062 256.015625 C 183.089844 256.089844 183.390625 256.125 183.695312 256.125 C 184.476562 256.125 185.070312 255.867188 185.476562 255.34375 C 185.890625 254.8125 186.125 254.011719 186.179688 252.9375 C 185.960938 253.28125 185.671875 253.542969 185.320312 253.71875 C 184.976562 253.898438 184.589844 253.984375 184.164062 253.984375 C 183.289062 253.984375 182.59375 253.726562 182.085938 253.203125 C 181.574219 252.671875 181.320312 251.945312 181.320312 251.015625 C 181.320312 250.121094 181.585938 249.402344 182.117188 248.859375 C 182.648438 248.320312 183.355469 248.046875 184.242188 248.046875 C 185.25 248.046875 186.023438 248.4375 186.554688 249.21875 C 187.09375 249.992188 187.367188 251.117188 187.367188 252.59375 C 187.367188 253.96875 187.039062 255.070312 186.382812 255.890625 C 185.726562 256.714844 184.84375 257.125 183.742188 257.125 C 183.4375 257.125 183.136719 257.09375 182.835938 257.03125 C 182.53125 256.976562 182.214844 256.890625 181.882812 256.765625 Z M 184.242188 253.0625 C 184.773438 253.0625 185.195312 252.882812 185.507812 252.515625 C 185.820312 252.152344 185.976562 251.652344 185.976562 251.015625 C 185.976562 250.390625 185.820312 249.898438 185.507812 249.53125 C 185.195312 249.167969 184.773438 248.984375 184.242188 248.984375 C 183.710938 248.984375 183.289062 249.167969 182.976562 249.53125 C 182.671875 249.898438 182.523438 250.390625 182.523438 251.015625 C 182.523438 251.652344 182.671875 252.152344 182.976562 252.515625 C 183.289062 252.882812 183.710938 253.0625 184.242188 253.0625 Z M 153.335938 245.816406 "/>
<path style=" stroke:none;fill-rule:nonzero;fill:rgb(40%,40%,40%);fill-opacity:1;" d="M 262.035156 248.203125 L 263.628906 248.203125 L 267.519531 255.515625 L 267.519531 248.203125 L 268.660156 248.203125 L 268.660156 256.953125 L 267.066406 256.953125 L 263.191406 249.640625 L 263.191406 256.953125 L 262.035156 256.953125 Z M 273.511719 251.140625 C 272.9375 251.140625 272.480469 251.371094 272.136719 251.828125 C 271.800781 252.277344 271.636719 252.890625 271.636719 253.671875 C 271.636719 254.464844 271.800781 255.085938 272.136719 255.53125 C 272.46875 255.980469 272.925781 256.203125 273.511719 256.203125 C 274.082031 256.203125 274.535156 255.980469 274.871094 255.53125 C 275.214844 255.074219 275.386719 254.453125 275.386719 253.671875 C 275.386719 252.902344 275.214844 252.289062 274.871094 251.828125 C 274.535156 251.371094 274.082031 251.140625 273.511719 251.140625 Z M 273.511719 250.234375 C 274.449219 250.234375 275.183594 250.542969 275.714844 251.15625 C 276.253906 251.761719 276.527344 252.601562 276.527344 253.671875 C 276.527344 254.746094 276.253906 255.589844 275.714844 256.203125 C 275.183594 256.820312 274.449219 257.125 273.511719 257.125 C 272.574219 257.125 271.832031 256.820312 271.292969 256.203125 C 270.761719 255.589844 270.496094 254.746094 270.496094 253.671875 C 270.496094 252.601562 270.761719 251.761719 271.292969 251.15625 C 271.832031 250.542969 272.574219 250.234375 273.511719 250.234375 Z M 277.539062 250.390625 L 278.679688 250.390625 L 280.726562 255.890625 L 282.789062 250.390625 L 283.929688 250.390625 L 281.460938 256.953125 L 279.992188 256.953125 Z M 289.582031 255.953125 L 291.519531 255.953125 L 291.519531 249.28125 L 289.410156 249.703125 L 289.410156 248.625 L 291.503906 248.203125 L 292.691406 248.203125 L 292.691406 255.953125 L 294.628906 255.953125 L 294.628906 256.953125 L 289.582031 256.953125 Z M 299.546875 248.984375 C 298.941406 248.984375 298.484375 249.289062 298.171875 249.890625 C 297.867188 250.484375 297.71875 251.386719 297.71875 252.59375 C 297.71875 253.792969 297.867188 254.695312 298.171875 255.296875 C 298.484375 255.890625 298.941406 256.1875 299.546875 256.1875 C 300.160156 256.1875 300.617188 255.890625 300.921875 255.296875 C 301.234375 254.695312 301.390625 253.792969 301.390625 252.59375 C 301.390625 251.386719 301.234375 250.484375 300.921875 249.890625 C 300.617188 249.289062 300.160156 248.984375 299.546875 248.984375 Z M 299.546875 248.046875 C 300.523438 248.046875 301.273438 248.4375 301.796875 249.21875 C 302.316406 249.992188 302.578125 251.117188 302.578125 252.59375 C 302.578125 254.0625 302.316406 255.1875 301.796875 255.96875 C 301.273438 256.742188 300.523438 257.125 299.546875 257.125 C 298.566406 257.125 297.816406 256.742188 297.296875 255.96875 C 296.785156 255.1875 296.53125 254.0625 296.53125 252.59375 C 296.53125 251.117188 296.785156 249.992188 297.296875 249.21875 C 297.816406 248.4375 298.566406 248.046875 299.546875 248.046875 Z M 260.863281 245.816406 "/>
<path style=" stroke:none;fill-rule:nonzero;fill:rgb(40%,40%,40%);fill-opacity:1;" d="M 373.5625 248.203125 L 375.15625 248.203125 L 379.046875 255.515625 L 379.046875 248.203125 L 380.1875 248.203125 L 380.1875 256.953125 L 378.59375 256.953125 L 374.71875 249.640625 L 374.71875 256.953125 L 373.5625 256.953125 Z M 385.039062 251.140625 C 384.464844 251.140625 384.007812 251.371094 383.664062 251.828125 C 383.328125 252.277344 383.164062 252.890625 383.164062 253.671875 C 383.164062 254.464844 383.328125 255.085938 383.664062 255.53125 C 383.996094 255.980469 384.453125 256.203125 385.039062 256.203125 C 385.609375 256.203125 386.0625 255.980469 386.398438 255.53125 C 386.742188 255.074219 386.914062 254.453125 386.914062 253.671875 C 386.914062 252.902344 386.742188 252.289062 386.398438 251.828125 C 386.0625 251.371094 385.609375 251.140625 385.039062 251.140625 Z M 385.039062 250.234375 C 385.976562 250.234375 386.710938 250.542969 387.242188 251.15625 C 387.78125 251.761719 388.054688 252.601562 388.054688 253.671875 C 388.054688 254.746094 387.78125 255.589844 387.242188 256.203125 C 386.710938 256.820312 385.976562 257.125 385.039062 257.125 C 384.101562 257.125 383.359375 256.820312 382.820312 256.203125 C 382.289062 255.589844 382.023438 254.746094 382.023438 253.671875 C 382.023438 252.601562 382.289062 251.761719 382.820312 251.15625 C 383.359375 250.542969 384.101562 250.234375 385.039062 250.234375 Z M 389.070312 250.390625 L 390.210938 250.390625 L 392.257812 255.890625 L 394.320312 250.390625 L 395.460938 250.390625 L 392.992188 256.953125 L 391.523438 256.953125 Z M 401.109375 255.953125 L 403.046875 255.953125 L 403.046875 249.28125 L 400.9375 249.703125 L 400.9375 248.625 L 403.03125 248.203125 L 404.21875 248.203125 L 404.21875 255.953125 L 406.15625 255.953125 L 406.15625 256.953125 L 401.109375 256.953125 Z M 408.742188 255.953125 L 410.679688 255.953125 L 410.679688 249.28125 L 408.570312 249.703125 L 408.570312 248.625 L 410.664062 248.203125 L 411.851562 248.203125 L 411.851562 255.953125 L 413.789062 255.953125 L 413.789062 256.953125 L 408.742188 256.953125 Z M 372.390625 245.816406 "/>
<path style=" stroke:none;fill-rule:nonzero;fill:rgb(40%,40%,40%);fill-opacity:1;" d="M 485.089844 248.203125 L 486.683594 248.203125 L 490.574219 255.515625 L 490.574219 248.203125 L 491.714844 248.203125 L 491.714844 256.953125 L 490.121094 256.953125 L 486.246094 249.640625 L 486.246094 256.953125 L 485.089844 256.953125 Z M 496.566406 251.140625 C 495.992188 251.140625 495.535156 251.371094 495.191406 251.828125 C 494.855469 252.277344 494.691406 252.890625 494.691406 253.671875 C 494.691406 254.464844 494.855469 255.085938 495.191406 255.53125 C 495.523438 255.980469 495.980469 256.203125 496.566406 256.203125 C 497.136719 256.203125 497.589844 255.980469 497.925781 255.53125 C 498.269531 255.074219 498.441406 254.453125 498.441406 253.671875 C 498.441406 252.902344 498.269531 252.289062 497.925781 251.828125 C 497.589844 251.371094 497.136719 251.140625 496.566406 251.140625 Z M 496.566406 250.234375 C 497.503906 250.234375 498.238281 250.542969 498.769531 251.15625 C 499.308594 251.761719 499.582031 252.601562 499.582031 253.671875 C 499.582031 254.746094 499.308594 255.589844 498.769531 256.203125 C 498.238281 256.820312 497.503906 257.125 496.566406 257.125 C 495.628906 257.125 494.886719 256.820312 494.347656 256.203125 C 493.816406 255.589844 493.550781 254.746094 493.550781 253.671875 C 493.550781 252.601562 493.816406 251.761719 494.347656 251.15625 C 494.886719 250.542969 495.628906 250.234375 496.566406 250.234375 Z M 500.59375 250.390625 L 501.734375 250.390625 L 503.78125 255.890625 L 505.84375 250.390625 L 506.984375 250.390625 L 504.515625 256.953125 L 503.046875 256.953125 Z M 512.636719 255.953125 L 514.574219 255.953125 L 514.574219 249.28125 L 512.464844 249.703125 L 512.464844 248.625 L 514.558594 248.203125 L 515.746094 248.203125 L 515.746094 255.953125 L 517.683594 255.953125 L 517.683594 256.953125 L 512.636719 256.953125 Z M 521.085938 255.953125 L 525.226562 255.953125 L 525.226562 256.953125 L 519.664062 256.953125 L 519.664062 255.953125 C 520.109375 255.496094 520.71875 254.875 521.492188 254.09375 C 522.273438 253.304688 522.761719 252.792969 522.960938 252.5625 C 523.34375 252.148438 523.609375 251.792969 523.757812 251.5 C 523.914062 251.199219 523.992188 250.90625 523.992188 250.625 C 523.992188 250.15625 523.824219 249.777344 523.492188 249.484375 C 523.167969 249.195312 522.746094 249.046875 522.226562 249.046875 C 521.851562 249.046875 521.453125 249.109375 521.039062 249.234375 C 520.632812 249.359375 520.195312 249.558594 519.726562 249.828125 L 519.726562 248.625 C 520.203125 248.4375 520.648438 248.296875 521.054688 248.203125 C 521.46875 248.101562 521.851562 248.046875 522.195312 248.046875 C 523.101562 248.046875 523.824219 248.277344 524.367188 248.734375 C 524.90625 249.183594 525.179688 249.789062 525.179688 250.546875 C 525.179688 250.902344 525.109375 251.242188 524.976562 251.5625 C 524.839844 251.886719 524.59375 252.265625 524.242188 252.703125 C 524.136719 252.820312 523.824219 253.148438 523.304688 253.6875 C 522.78125 254.230469 522.042969 254.984375 521.085938 255.953125 Z M 483.917969 245.816406 "/>
<path style=" stroke:none;fill-rule:nonzero;fill:rgb(40%,40%,40%);fill-opacity:1;" d="M 596.617188 248.203125 L 598.210938 248.203125 L 602.101562 255.515625 L 602.101562 248.203125 L 603.242188 248.203125 L 603.242188 256.953125 L 601.648438 256.953125 L 597.773438 249.640625 L 597.773438 256.953125 L 596.617188 256.953125 Z M 608.09375 251.140625 C 607.519531 251.140625 607.0625 251.371094 606.71875 251.828125 C 606.382812 252.277344 606.21875 252.890625 606.21875 253.671875 C 606.21875 254.464844 606.382812 255.085938 606.71875 255.53125 C 607.050781 255.980469 607.507812 256.203125 608.09375 256.203125 C 608.664062 256.203125 609.117188 255.980469 609.453125 255.53125 C 609.796875 255.074219 609.96875 254.453125 609.96875 253.671875 C 609.96875 252.902344 609.796875 252.289062 609.453125 251.828125 C 609.117188 251.371094 608.664062 251.140625 608.09375 251.140625 Z M 608.09375 250.234375 C 609.03125 250.234375 609.765625 250.542969 610.296875 251.15625 C 610.835938 251.761719 611.109375 252.601562 611.109375 253.671875 C 611.109375 254.746094 610.835938 255.589844 610.296875 256.203125 C 609.765625 256.820312 609.03125 257.125 608.09375 257.125 C 607.15625 257.125 606.414062 256.820312 605.875 256.203125 C 605.34375 255.589844 605.078125 254.746094 605.078125 253.671875 C 605.078125 252.601562 605.34375 251.761719 605.875 251.15625 C 606.414062 250.542969 607.15625 250.234375 608.09375 250.234375 Z M 612.125 250.390625 L 613.265625 250.390625 L 615.3125 255.890625 L 617.375 250.390625 L 618.515625 250.390625 L 616.046875 256.953125 L 614.578125 256.953125 Z M 624.164062 255.953125 L 626.101562 255.953125 L 626.101562 249.28125 L 623.992188 249.703125 L 623.992188 248.625 L 626.085938 248.203125 L 627.273438 248.203125 L 627.273438 255.953125 L 629.210938 255.953125 L 629.210938 256.953125 L 624.164062 256.953125 Z M 635.1875 252.234375 C 635.75 252.359375 636.1875 252.617188 636.5 253 C 636.820312 253.375 636.984375 253.84375 636.984375 254.40625 C 636.984375 255.273438 636.6875 255.945312 636.09375 256.421875 C 635.5 256.890625 634.65625 257.125 633.5625 257.125 C 633.195312 257.125 632.816406 257.085938 632.421875 257.015625 C 632.035156 256.945312 631.640625 256.835938 631.234375 256.6875 L 631.234375 255.546875 C 631.554688 255.734375 631.910156 255.882812 632.296875 255.984375 C 632.691406 256.078125 633.101562 256.125 633.53125 256.125 C 634.269531 256.125 634.832031 255.980469 635.21875 255.6875 C 635.613281 255.398438 635.8125 254.96875 635.8125 254.40625 C 635.8125 253.898438 635.628906 253.496094 635.265625 253.203125 C 634.898438 252.914062 634.398438 252.765625 633.765625 252.765625 L 632.734375 252.765625 L 632.734375 251.796875 L 633.8125 251.796875 C 634.382812 251.796875 634.828125 251.683594 635.140625 251.453125 C 635.453125 251.214844 635.609375 250.875 635.609375 250.4375 C 635.609375 249.992188 635.445312 249.648438 635.125 249.40625 C 634.8125 249.167969 634.359375 249.046875 633.765625 249.046875 C 633.429688 249.046875 633.078125 249.085938 632.703125 249.15625 C 632.335938 249.21875 631.929688 249.324219 631.484375 249.46875 L 631.484375 248.421875 C 631.941406 248.296875 632.363281 248.203125 632.75 248.140625 C 633.144531 248.078125 633.515625 248.046875 633.859375 248.046875 C 634.765625 248.046875 635.476562 248.25 636 248.65625 C 636.519531 249.0625 636.78125 249.617188 636.78125 250.3125 C 636.78125 250.804688 636.640625 251.214844 636.359375 251.546875 C 636.085938 251.882812 635.695312 252.109375 635.1875 252.234375 Z M 595.445312 245.816406 "/>
<path style=" stroke:none;fill-rule:nonzero;fill:rgb(40%,40%,40%);fill-opacity:1;" d="M 708.144531 248.203125 L 709.738281 248.203125 L 713.628906 255.515625 L 713.628906 248.203125 L 714.769531 248.203125 L 714.769531 256.953125 L 713.175781 256.953125 L 709.300781 249.640625 L 709.300781 256.953125 L 708.144531 256.953125 Z M 719.621094 251.140625 C 719.046875 251.140625 718.589844 251.371094 718.246094 251.828125 C 717.910156 252.277344 717.746094 252.890625 717.746094 253.671875 C 717.746094 254.464844 717.910156 255.085938 718.246094 255.53125 C 718.578125 255.980469 719.035156 256.203125 719.621094 256.203125 C 720.191406 256.203125 720.644531 255.980469 720.980469 255.53125 C 721.324219 255.074219 721.496094 254.453125 721.496094 253.671875 C 721.496094 252.902344 721.324219 252.289062 720.980469 251.828125 C 720.644531 251.371094 720.191406 251.140625 719.621094 251.140625 Z M 719.621094 250.234375 C 720.558594 250.234375 721.292969 250.542969 721.824219 251.15625 C 722.363281 251.761719 722.636719 252.601562 722.636719 253.671875 C 722.636719 254.746094 722.363281 255.589844 721.824219 256.203125 C 721.292969 256.820312 720.558594 257.125 719.621094 257.125 C 718.683594 257.125 717.941406 256.820312 717.402344 256.203125 C 716.871094 255.589844 716.605469 254.746094 716.605469 253.671875 C 716.605469 252.601562 716.871094 251.761719 717.402344 251.15625 C 717.941406 250.542969 718.683594 250.234375 719.621094 250.234375 Z M 723.648438 250.390625 L 724.789062 250.390625 L 726.835938 255.890625 L 728.898438 250.390625 L 730.039062 250.390625 L 727.570312 256.953125 L 726.101562 256.953125 Z M 735.691406 255.953125 L 737.628906 255.953125 L 737.628906 249.28125 L 735.519531 249.703125 L 735.519531 248.625 L 737.613281 248.203125 L 738.800781 248.203125 L 738.800781 255.953125 L 740.738281 255.953125 L 740.738281 256.953125 L 735.691406 256.953125 Z M 746.375 249.234375 L 743.390625 253.90625 L 746.375 253.90625 Z M 746.0625 248.203125 L 747.5625 248.203125 L 747.5625 253.90625 L 748.8125 253.90625 L 748.8125 254.890625 L 747.5625 254.890625 L 747.5625 256.953125 L 746.375 256.953125 L 746.375 254.890625 L 742.4375 254.890625 L 742.4375 253.75 Z M 706.972656 245.816406 "/>
<path style="fill:none;stroke-width:1;stroke-linecap:butt;stroke-linejoin:miter;stroke:rgb(0%,0%,0%);stroke-opacity:0.0980392;stroke-miterlimit:10;" d="M 21.5 44 L 21.5 235 "/>
<path style=" stroke:none;fill-rule:nonzero;fill:rgb(40%,40%,40%);fill-opacity:1;" d="M 6.445312 230.789062 C 5.839844 230.789062 5.382812 231.09375 5.070312 231.695312 C 4.765625 232.289062 4.617188 233.191406 4.617188 234.398438 C 4.617188 235.597656 4.765625 236.5 5.070312 237.101562 C 5.382812 237.695312 5.839844 237.992188 6.445312 237.992188 C 7.058594 237.992188 7.515625 237.695312 7.820312 237.101562 C 8.132812 236.5 8.289062 235.597656 8.289062 234.398438 C 8.289062 233.191406 8.132812 232.289062 7.820312 231.695312 C 7.515625 231.09375 7.058594 230.789062 6.445312 230.789062 Z M 6.445312 229.851562 C 7.421875 229.851562 8.171875 230.242188 8.695312 231.023438 C 9.214844 231.796875 9.476562 232.921875 9.476562 234.398438 C 9.476562 235.867188 9.214844 236.992188 8.695312 237.773438 C 8.171875 238.546875 7.421875 238.929688 6.445312 238.929688 C 5.464844 238.929688 4.714844 238.546875 4.195312 237.773438 C 3.683594 236.992188 3.429688 235.867188 3.429688 234.398438 C 3.429688 232.921875 3.683594 231.796875 4.195312 231.023438 C 4.714844 230.242188 5.464844 229.851562 6.445312 229.851562 Z M 2.632812 227.617188 "/>
<path style=" stroke:none;fill-rule:nonzero;fill:rgb(40%,40%,40%);fill-opacity:1;" d="M 4.117188 199.632812 L 6.054688 199.632812 L 6.054688 192.960938 L 3.945312 193.382812 L 3.945312 192.304688 L 6.039062 191.882812 L 7.226562 191.882812 L 7.226562 199.632812 L 9.164062 199.632812 L 9.164062 200.632812 L 4.117188 200.632812 Z M 2.632812 189.496094 "/>
<path style=" stroke:none;fill-rule:nonzero;fill:rgb(40%,40%,40%);fill-opacity:1;" d="M 4.929688 161.515625 L 9.070312 161.515625 L 9.070312 162.515625 L 3.507812 162.515625 L 3.507812 161.515625 C 3.953125 161.058594 4.5625 160.4375 5.335938 159.65625 C 6.117188 158.867188 6.605469 158.355469 6.804688 158.125 C 7.1875 157.710938 7.453125 157.355469 7.601562 157.0625 C 7.757812 156.761719 7.835938 156.46875 7.835938 156.1875 C 7.835938 155.71875 7.667969 155.339844 7.335938 155.046875 C 7.011719 154.757812 6.589844 154.609375 6.070312 154.609375 C 5.695312 154.609375 5.296875 154.671875 4.882812 154.796875 C 4.476562 154.921875 4.039062 155.121094 3.570312 155.390625 L 3.570312 154.1875 C 4.046875 154 4.492188 153.859375 4.898438 153.765625 C 5.3125 153.664062 5.695312 153.609375 6.039062 153.609375 C 6.945312 153.609375 7.667969 153.839844 8.210938 154.296875 C 8.75 154.746094 9.023438 155.351562 9.023438 156.109375 C 9.023438 156.464844 8.953125 156.804688 8.820312 157.125 C 8.683594 157.449219 8.4375 157.828125 8.085938 158.265625 C 7.980469 158.382812 7.667969 158.710938 7.148438 159.25 C 6.625 159.792969 5.886719 160.546875 4.929688 161.515625 Z M 2.632812 151.375 "/>
<path style=" stroke:none;fill-rule:nonzero;fill:rgb(40%,40%,40%);fill-opacity:1;" d="M 7.507812 119.671875 C 8.070312 119.796875 8.507812 120.054688 8.820312 120.4375 C 9.140625 120.8125 9.304688 121.28125 9.304688 121.84375 C 9.304688 122.710938 9.007812 123.382812 8.414062 123.859375 C 7.820312 124.328125 6.976562 124.5625 5.882812 124.5625 C 5.515625 124.5625 5.136719 124.523438 4.742188 124.453125 C 4.355469 124.382812 3.960938 124.273438 3.554688 124.125 L 3.554688 122.984375 C 3.875 123.171875 4.230469 123.320312 4.617188 123.421875 C 5.011719 123.515625 5.421875 123.5625 5.851562 123.5625 C 6.589844 123.5625 7.152344 123.417969 7.539062 123.125 C 7.933594 122.835938 8.132812 122.40625 8.132812 121.84375 C 8.132812 121.335938 7.949219 120.933594 7.585938 120.640625 C 7.21875 120.351562 6.71875 120.203125 6.085938 120.203125 L 5.054688 120.203125 L 5.054688 119.234375 L 6.132812 119.234375 C 6.703125 119.234375 7.148438 119.121094 7.460938 118.890625 C 7.773438 118.652344 7.929688 118.3125 7.929688 117.875 C 7.929688 117.429688 7.765625 117.085938 7.445312 116.84375 C 7.132812 116.605469 6.679688 116.484375 6.085938 116.484375 C 5.75 116.484375 5.398438 116.523438 5.023438 116.59375 C 4.65625 116.65625 4.25 116.761719 3.804688 116.90625 L 3.804688 115.859375 C 4.261719 115.734375 4.683594 115.640625 5.070312 115.578125 C 5.464844 115.515625 5.835938 115.484375 6.179688 115.484375 C 7.085938 115.484375 7.796875 115.6875 8.320312 116.09375 C 8.839844 116.5 9.101562 117.054688 9.101562 117.75 C 9.101562 118.242188 8.960938 118.652344 8.679688 118.984375 C 8.40625 119.320312 8.015625 119.546875 7.507812 119.671875 Z M 2.632812 113.253906 "/>
<path style=" stroke:none;fill-rule:nonzero;fill:rgb(40%,40%,40%);fill-opacity:1;" d="M 7.164062 78.554688 L 4.179688 83.226562 L 7.164062 83.226562 Z M 6.851562 77.523438 L 8.351562 77.523438 L 8.351562 83.226562 L 9.601562 83.226562 L 9.601562 84.210938 L 8.351562 84.210938 L 8.351562 86.273438 L 7.164062 86.273438 L 7.164062 84.210938 L 3.226562 84.210938 L 3.226562 83.070312 Z M 2.632812 75.136719 "/>
<path style=" stroke:none;fill-rule:nonzero;fill:rgb(40%,40%,40%);fill-opacity:1;" d="M 3.929688 39.40625 L 8.570312 39.40625 L 8.570312 40.40625 L 5.007812 40.40625 L 5.007812 42.546875 C 5.183594 42.484375 5.355469 42.445312 5.523438 42.421875 C 5.699219 42.390625 5.871094 42.375 6.039062 42.375 C 7.015625 42.375 7.792969 42.648438 8.367188 43.1875 C 8.9375 43.71875 9.226562 44.4375 9.226562 45.34375 C 9.226562 46.292969 8.929688 47.027344 8.335938 47.546875 C 7.75 48.070312 6.929688 48.328125 5.867188 48.328125 C 5.492188 48.328125 5.109375 48.296875 4.726562 48.234375 C 4.351562 48.171875 3.960938 48.078125 3.554688 47.953125 L 3.554688 46.765625 C 3.90625 46.953125 4.273438 47.09375 4.648438 47.1875 C 5.023438 47.28125 5.417969 47.328125 5.835938 47.328125 C 6.511719 47.328125 7.046875 47.152344 7.445312 46.796875 C 7.839844 46.445312 8.039062 45.960938 8.039062 45.34375 C 8.039062 44.742188 7.839844 44.261719 7.445312 43.90625 C 7.046875 43.554688 6.511719 43.375 5.835938 43.375 C 5.523438 43.375 5.203125 43.414062 4.882812 43.484375 C 4.570312 43.546875 4.25 43.652344 3.929688 43.796875 Z M 2.632812 37.015625 "/>
<g clip-path="url(#clip3)" clip-rule="nonzero">
<path style=" stroke:none;fill-rule:nonzero;fill:rgb(96.862745%,44.705882%,40.784314%);fill-opacity:1;" d="M 800 196.480469 L 797.675781 158.359375 L 788.382812 158.359375 L 786.058594 196.480469 L 779.089844 196.480469 L 776.765625 120.238281 L 774.441406 82.121094 L 772.117188 120.238281 L 769.792969 234.601562 L 767.472656 196.480469 L 765.148438 234.601562 L 760.5 234.601562 L 758.175781 196.480469 L 755.855469 196.480469 L 753.53125 234.601562 L 751.207031 234.601562 L 748.882812 158.359375 L 744.238281 158.359375 L 741.914062 196.480469 L 732.617188 196.480469 L 730.296875 234.601562 L 721 234.601562 L 718.679688 196.480469 L 711.707031 196.480469 L 709.382812 234.601562 L 704.738281 234.601562 L 702.414062 196.480469 L 693.121094 196.480469 L 690.796875 234.601562 L 688.472656 234.601562 L 686.148438 120.238281 L 683.824219 158.359375 L 676.855469 158.359375 L 674.53125 234.601562 L 672.207031 196.480469 L 669.886719 196.480469 L 667.5625 158.359375 L 665.238281 82.121094 L 662.914062 120.238281 L 660.589844 196.480469 L 655.945312 196.480469 L 653.621094 234.601562 L 651.296875 158.359375 L 648.972656 234.601562 L 646.652344 196.480469 L 639.679688 196.480469 L 637.355469 234.601562 L 618.769531 234.601562 L 616.445312 196.480469 L 614.121094 234.601562 L 611.796875 196.480469 L 609.476562 234.601562 L 607.152344 196.480469 L 604.828125 234.601562 L 602.503906 234.601562 L 600.179688 196.480469 L 588.5625 196.480469 L 586.238281 234.601562 L 576.945312 234.601562 L 574.621094 120.238281 L 567.652344 120.238281 L 565.328125 158.359375 L 560.683594 158.359375 L 558.359375 234.601562 L 556.035156 196.480469 L 553.710938 120.238281 L 551.386719 120.238281 L 549.0625 158.359375 L 546.742188 196.480469 L 544.417969 234.601562 L 525.828125 234.601562 L 523.507812 196.480469 L 518.859375 196.480469 L 516.535156 234.601562 L 481.683594 234.601562 L 479.359375 196.480469 L 439.859375 196.480469 L 437.539062 234.601562 L 435.214844 234.601562 L 432.890625 196.480469 L 409.65625 196.480469 L 407.332031 234.601562 L 381.773438 234.601562 L 379.449219 196.480469 L 370.15625 196.480469 L 367.832031 234.601562 L 365.507812 196.480469 L 353.890625 196.480469 L 351.570312 234.601562 L 346.921875 234.601562 L 342.273438 158.359375 L 339.953125 120.238281 L 337.628906 158.359375 L 330.65625 158.359375 L 328.332031 234.601562 L 260.953125 234.601562 L 258.628906 196.480469 L 253.984375 196.480469 L 251.660156 234.601562 L 237.71875 234.601562 L 235.394531 196.480469 L 233.070312 234.601562 L 221.453125 234.601562 L 219.128906 196.480469 L 216.808594 234.601562 L 151.75 234.601562 L 149.425781 196.480469 L 147.101562 196.480469 L 144.777344 234.601562 L 123.867188 234.601562 L 121.542969 196.480469 L 114.574219 196.480469 L 112.25 234.601562 L 42.546875 234.601562 L 40.222656 196.480469 L 37.898438 196.480469 L 35.574219 120.238281 L 33.253906 196.480469 L 28.605469 196.480469 L 26.28125 234.601562 L 21.632812 234.601562 L 800 234.601562 Z M 800 196.480469 "/>
</g>
<g clip-path="url(#clip4)" clip-rule="nonzero">
<path style="fill:none;stroke-width:2;stroke-linecap:butt;stroke-linejoin:miter;stroke:rgb(100%,4.705882%,0%);stroke-opacity:0.247059;stroke-miterlimit:10;" d="M 800 196.480469 L 797.675781 158.359375 L 788.382812 158.359375 L 786.058594 196.480469 L 779.089844 196.480469 L 776.765625 120.238281 L 774.441406 82.121094 L 772.117188 120.238281 L 769.792969 234.601562 L 767.472656 196.480469 L 765.148438 234.601562 L 760.5 234.601562 L 758.175781 196.480469 L 755.855469 196.480469 L 753.53125 234.601562 L 751.207031 234.601562 L 748.882812 158.359375 L 744.238281 158.359375 L 741.914062 196.480469 L 732.617188 196.480469 L 730.296875 234.601562 L 721 234.601562 L 718.679688 196.480469 L 711.707031 196.480469 L 709.382812 234.601562 L 704.738281 234.601562 L 702.414062 196.480469 L 693.121094 196.480469 L 690.796875 234.601562 L 688.472656 234.601562 L 686.148438 120.238281 L 683.824219 158.359375 L 676.855469 158.359375 L 674.53125 234.601562 L 672.207031 196.480469 L 669.886719 196.480469 L 667.5625 158.359375 L 665.238281 82.121094 L 662.914062 120.238281 L 660.589844 196.480469 L 655.945312 196.480469 L 653.621094 234.601562 L 651.296875 158.359375 L 648.972656 234.601562 L 646.652344 196.480469 L 639.679688 196.480469 L 637.355469 234.601562 L 618.769531 234.601562 L 616.445312 196.480469 L 614.121094 234.601562 L 611.796875 196.480469 L 609.476562 234.601562 L 607.152344 196.480469 L 604.828125 234.601562 L 602.503906 234.601562 L 600.179688 196.480469 L 588.5625 196.480469 L 586.238281 234.601562 L 576.945312 234.601562 L 574.621094 120.238281 L 567.652344 120.238281 L 565.328125 158.359375 L 560.683594 158.359375 L 558.359375 234.601562 L 556.035156 196.480469 L 553.710938 120.238281 L 551.386719 120.238281 L 549.0625 158.359375 L 546.742188 196.480469 L 544.417969 234.601562 L 525.828125 234.601562 L 523.507812 196.480469 L 518.859375 196.480469 L 516.535156 234.601562 L 481.683594 234.601562 L 479.359375 196.480469 L 439.859375 196.480469 L 437.539062 234.601562 L 435.214844 234.601562 L 432.890625 196.480469 L 409.65625 196.480469 L 407.332031 234.601562 L 381.773438 234.601562 L 379.449219 196.480469 L 370.15625 196.480469 L 367.832031 234.601562 L 365.507812 196.480469 L 353.890625 196.480469 L 351.570312 234.601562 L 346.921875 234.601562 L 342.273438 158.359375 L 339.953125 120.238281 L 337.628906 158.359375 L 330.65625 158.359375 L 328.332031 234.601562 L 260.953125 234.601562 L 258.628906 196.480469 L 253.984375 196.480469 L 251.660156 234.601562 L 237.71875 234.601562 L 235.394531 196.480469 L 233.070312 234.601562 L 221.453125 234.601562 L 219.128906 196.480469 L 216.808594 234.601562 L 151.75 234.601562 L 149.425781 196.480469 L 147.101562 196.480469 L 144.777344 234.601562 L 123.867188 234.601562 L 121.542969 196.480469 L 114.574219 196.480469 L 112.25 234.601562 L 42.546875 234.601562 L 40.222656 196.480469 L 37.898438 196.480469 L 35.574219 120.238281 L 33.253906 196.480469 L 28.605469 196.480469 L 26.28125 234.601562 L 21.632812 234.601562 "/>
</g>
<g clip-path="url(#clip5)" clip-rule="nonzero">
<path style=" stroke:none;fill-rule:nonzero;fill:rgb(9.019608%,58.823529%,95.294118%);fill-opacity:0.6;" d="M 800 82.121094 L 783.734375 82.121094 L 781.414062 120.238281 L 727.972656 120.238281 L 725.648438 82.121094 L 721 82.121094 L 718.679688 44 L 711.707031 44 L 709.382812 82.121094 L 660.589844 82.121094 L 658.269531 120.238281 L 618.769531 120.238281 L 616.445312 82.121094 L 588.5625 82.121094 L 586.238281 120.238281 L 583.917969 82.121094 L 581.59375 82.121094 L 579.269531 120.238281 L 272.570312 120.238281 L 270.246094 158.359375 L 267.921875 120.238281 L 263.277344 120.238281 L 260.953125 82.121094 L 200.542969 82.121094 L 198.21875 120.238281 L 123.867188 120.238281 L 121.542969 82.121094 L 42.546875 82.121094 L 40.222656 44 L 23.957031 44 L 21.632812 82.121094 L 21.632812 234.601562 L 800 234.601562 Z M 800 82.121094 "/>
</g>
<g clip-path="url(#clip6)" clip-rule="nonzero">
<path style="fill:none;stroke-width:2;stroke-linecap:butt;stroke-linejoin:miter;stroke:rgb(9.019608%,58.823529%,95.294118%);stroke-opacity:1;stroke-miterlimit:10;" d="M 800 82.121094 L 783.734375 82.121094 L 781.414062 120.238281 L 727.972656 120.238281 L 725.648438 82.121094 L 721 82.121094 L 718.679688 44 L 711.707031 44 L 709.382812 82.121094 L 660.589844 82.121094 L 658.269531 120.238281 L 618.769531 120.238281 L 616.445312 82.121094 L 588.5625 82.121094 L 586.238281 120.238281 L 583.917969 82.121094 L 581.59375 82.121094 L 579.269531 120.238281 L 272.570312 120.238281 L 270.246094 158.359375 L 267.921875 120.238281 L 263.277344 120.238281 L 260.953125 82.121094 L 200.542969 82.121094 L 198.21875 120.238281 L 123.867188 120.238281 L 121.542969 82.121094 L 42.546875 82.121094 L 40.222656 44 L 23.957031 44 L 21.632812 82.121094 "/>
</g>
</g>
</svg>
